<mxfile host="app.diagrams.net" modified="2022-02-03T21:31:17.062Z" agent="5.0 (Windows NT 10.0; Win64; x64) AppleWebKit/537.36 (KHTML, like Gecko) Chrome/97.0.4692.99 Safari/537.36" etag="mWFRPhXcXqEdz4I203Sl" version="16.3.0" type="github">
  <diagram id="HHAp969gH5cRg_ldeOqK" name="Page-1">
    <mxGraphModel dx="4377" dy="4483" grid="0" gridSize="10" guides="1" tooltips="1" connect="1" arrows="1" fold="1" page="1" pageScale="1" pageWidth="1700" pageHeight="1100" background="none" math="0" shadow="0">
      <root>
        <mxCell id="0" />
        <mxCell id="1" value="Base" style="" parent="0" visible="0" />
        <mxCell id="JfqZfDmFp8OTxattPUuS-4" value="" style="fontColor=#0066CC;verticalAlign=top;verticalLabelPosition=bottom;labelPosition=center;align=center;html=1;outlineConnect=0;fillColor=#CCCCCC;strokeColor=#6881B3;gradientColor=none;gradientDirection=north;strokeWidth=2;shape=mxgraph.networks.laptop;" vertex="1" parent="1">
          <mxGeometry x="-759" y="-92" width="1727" height="1049" as="geometry" />
        </mxCell>
        <mxCell id="JfqZfDmFp8OTxattPUuS-5" value="&lt;font color=&quot;#3333ff&quot;&gt;&lt;b&gt;&lt;font style=&quot;font-size: 43px&quot;&gt;Windows 10&lt;/font&gt;&lt;br style=&quot;font-size: 37px&quot;&gt;&lt;/b&gt;&lt;/font&gt;&lt;ul style=&quot;font-size: 37px ; line-height: 1.8&quot;&gt;&lt;li&gt;Command Prompt (cmd.exe)&lt;/li&gt;&lt;li style=&quot;font-size: 37px&quot;&gt;&lt;font style=&quot;font-size: 37px&quot;&gt;Python - language&lt;/font&gt;&lt;/li&gt;&lt;li style=&quot;font-size: 37px&quot;&gt;&lt;font style=&quot;font-size: 37px&quot;&gt;Visual Studio Code - editor, development environment&lt;/font&gt;&lt;/li&gt;&lt;/ul&gt;" style="rounded=0;whiteSpace=wrap;html=1;fontSize=37;align=left;spacingLeft=8;verticalAlign=top;strokeColor=none;fontColor=#000000;" vertex="1" parent="1">
          <mxGeometry x="-352" y="106" width="956.42" height="438.89" as="geometry" />
        </mxCell>
        <mxCell id="JfqZfDmFp8OTxattPUuS-2" value="Breakout" style="" parent="0" />
        <mxCell id="JfqZfDmFp8OTxattPUuS-16" value="Add cmd.exe" parent="0" />
        <UserObject label="" tags="" id="JfqZfDmFp8OTxattPUuS-20">
          <mxCell style="shape=image;verticalLabelPosition=bottom;labelBackgroundColor=default;verticalAlign=top;aspect=fixed;imageAspect=0;image=data:image/png,iVBORw0KGgoAAAANSUhEUgAAAdMAAAD6CAYAAAD6Kq3nAAAb9UlEQVR4nO3dT2wjZ5rf8V9R9Nie8SCbzW4wCSMJQbdNwtjkkiAAWzpQQoDA4iEBAvCgbqCDHGSKAWLnwIMao1MbzQMPlheIRPcpAlo68DQ5kD4EaPEgNe9JMKBG3VmIWiK7O9nsIh7PjG2JlUPxTxVFsop82U1R/n4Awm4W37feelmsp963SvVY29vbtiTZti1JsixLbe33Br3f+16z2VQoFPK832w2ZVlWoPL91tVsNmXbtqfeUds1qF5JCoVCY5Uf9Nn2++PWO6i/+vXtsHpH6QP3+kZtV+9nJ9EHpvvXVdPW982m5ixL4bmQnOpsybZ1JUtXtvTt1ZXe+v3/1tfW39FfXP5YcyFL74UtfdeU7GZTC2//Xvrub3Q1967+svn3NP8TS2HLluXUJKm9Prvzf5ZlyW4taTaburKlpizJksKWpZC62yvLcpokqWnburSlsCXNhSxnHT19Y9vSpW3rqmnLsqQfhUK6tG29+k1Tv/7WVtOWfvaOpX/045DembP0fdPWd1dXCn3//xS6/Fp/GfqH+vV3ln4attSU9NtLW/NvX+rv2n+tby+/1zdv/Uw/fvttvRe2NGdJti017aZCrr69sqXLpi1b3rb2fg+etkp6a86SLUt/821T/+sbW7+9tPXOnHTnvZD+6G1Ll7rU768uZV9+q/Dv/0pvh3+iubl3XX3s9LPdvNT33/5avw3/sULv/KF+8lbYaWu7v2ynW/32j+8uv9X3V9/p7bfeVTgU7uxf095v+9XbtJv63XffKDwX1tvhdz3l2597U8fFfp/t3Yambbd+A5ZCrbevri71ze/+Vj+yv9c74Xdkxu78xiTn99ZUSJdy2hvWlUKyZbk+Z7f+p/vb7ZYPqtn8Tt9ffqO5d/9Y4R/9tLWtTt+EWvtc2LZtffbZZ4YbCACj+W/TbgAwQSH/jwAAgGEIpgAAGAq557sBAMDoGJkCAGAo5L5TCwAAjI6RKQAAhgimAAAYCge5AenzP90zWsl/+o+bRuUBALjJwkE/+C//1Ue+n/nP/+W/6j/8u3/t+W/0H/zIqIEAANx0gad5f/f1X/u+/v2/Xb72X3/3tHNmdx7nZZ/t6J7BBk3fhsr2mXaubcSGyrZrO/t+BgAwiwKPTP/FP/9nY61g6BTxvR2dnXyis48tWU+77+1sSC+eDi42u17qi6X39ekL6d7OmU72d1R8/1O9mEpbNlS2s/pVqz0AgPGFLi8vp7Tqe9rZdwLpmjtwvvhUn97KQOr14tO8vrqbVIrRKQDMvNDc3NxIBdzZFXrfH8m9lJJ3v9IvhgXOezs6c02NljfaC1pTqRvd5eUNZ7TX/uxZZw51lM9KG2XXVGxnha06dsp9y7jbebbz4Wj94Kq/XD6TbZe18Rq33Vm2obL9pT7SXX1y4t5OAMBYWinYhr4+/9O9VpYju/Ne+/97/zuo7LXXvR377GzHvjdwvRt22bbt8obr8/aZvXOvu8xul98o284/7zmf3Sjbtl22NzTqZ3vX37O+8sbA+tvtvLdzZtudcoPqa32us/1OHZ02va5tv1ZPv3by4sWLF69RX2P/nWn7T2oG5cgL5O4H+pNBy+59qPflGrm++FT5r+7qg06Bl/riYet649Nf6Cu9VKnYuvj39Bf6Su/rw3tjfHajPfr8Ut77l1/qi8+eXi9z70O9//ILtRe9+DSvrwZvsDMStG2dfHKmjz3XS11tel3bfq0eAMAkjP04wXa5folnA3lRVOnlR/o3N2mG8d6Ozr6UPrYsWdaSvng56RW81BdLViuh7pre/KXhe/rw/Te+UgC49UYamVqW1bku129k2jbouqrXC32a/0offem+HqjO3bx68UudyRVs7+0o+5HPNVZTf/KB7r78lf6n1LqmG6DMi1/q7O4n+vlGu5lZ+f9FboA6J7btd5Vs3+UU5Do1AGBkI0/zOqOq/qNQd4ANNFJ9uiZr6Qu9/6Xrpp99qfhUkp5qzb3sJKnS0msezT39TF/oE53Ytuz9D3QWaGT6VGsfOycFtm1rX6Uh07yBGzLBbX+psw/2W/V8orOP2/U81S++4gYkAJiIUW5AGudlUpaX6YubjHjx4sXrTbwCP7TB9Pm8AADcVoGCKQ+qBwBgsDDJwW+zp1qzuNsIAF630P/95q+m3QYAAGZa6A9+/EfTbgMAADMtNBca7dm8AADAa+zHCQIAAMfYjxMEAAAORqYAABgimAIAYChsWZbee++9abcDAICZxcgUAABDBFMAAAyNdDevZcWUOaiocpBRbNRk4DeEFcvooFJRpfU6yMTe3Lon2H9WMnfjvodY5qDTrzetbdLt2H9xM3X2rSkcV3AzhK6urmRZSeV6dgDnwHigTOz2HHQsK6knhZTq+RUlEgklEgnd3611lidz4/0IBpWLZQ5UySWN2jxzqnmnb+/vqtY6UUvmKn37YdD7t1X3gJtTsk8wT+YqRicjpuWHta83WAz8Pn3W3zmZHXP5uO33nOgNCHjD2u9Z1qesbde0e985puSrIzUbt0QoHA5L0UUtNBrS0qpiliXLiml1SWo0vB/u7DCuA+VMiS5qQVUdlydb7auLhiLzd3w/N/P9N6bycVWKL3sOcJaV1HJcqk76yxhimv1vJXM6OtqWTvofaZO5irILRaVXVrSyklZRKRWerAWu37T8sPZZVkybzwpaOkkrkUg49S9kPQElyPotK6bN7ZTq1f594Ld83Pa3NYrpzkl0vxPpYe0vbXXLrazkVU8VlEvenoEGzLmumZ7opL6k1aik6KrmTw514vqg58xuwGjCSuYGnr3FMgc6yMQ89biXXzvz7Tm7vL684tmZ/coP025TNi5FUgXf7RxF4+KVZx396m23PZd0Zgicz12fFXCfHR9l433r6Lf9g0bI7hG1X/8aKR+rqriW3cfWPic2w0YGo+8/3vb77b/D+i/o9zOIZcW0uS7lVx5o77zf8qSW4w0VH++pZtuy7Zr2HhfViK8HWod5+eHtU3RVS5GqDvdOJTknJXuHVUU6J9/B1h/d3FZKRe0f92+H3/Kx2+9bfrT+s+2SjqvSwmJ09JXh1vLcgPT8uK6l1aiiq/O6eP5KUkTtAVdt974SiYTSxUafalpnhtkFFdP9p1AlJ1AVlk6cs790UUptKxOzrp35OutZUPbZZueAGt3cVqqe95xZbpWc0YVf+faB9KiQUkRxZY+OPAfM9rblqz1nr1ulQJ14el7v/H/7oC9Jd+Yjnff9+k+S4tl1XbT6L12UUg+70SeZqyir7vavuOaS/Lb/9LwuLSz2nTarn5/69q+p9sEn7oqm0dUlRarHKrmmgt3bl69fH9kM2n+CtH9Y/wfZ/6Th38/w7a9p9/5WZ1uvWVtWXHW1vgpZsYyeFVKKuH5/QxmW923fnXlFet97daFGZF53Aq7fimW0nZKKj/d02mcVfsuN2u9nxP6zYhmtx7snF4DUvgGp/WMpH6u+9FAP5y/0fMT9ZG05rkbxsXZrQ3boRlHpB87Zn07P1QlBPWe+knS6d6hqpDVSbuuZKlTA8u0D6Uq6qIaqyq+0A77BD7DXwqJiVkyr8+pMl0vdYBVENf+g03/uANg5c94fMCXq13+vLtQOIe1gb1kxLS701DOofyfAPdXrXEaIdKZ4+21feb+oRm97Bu0/pu0PuP8N+n4monGhV9FNHVQqOios6SSd1pDzrsmXH6ZnZqE9HesJsD7rX3uYkoYcH/yWT4Jn1qn3mmyA/mvPnBwVUlJxf3LHDtwK4c7/1c9Vs0s6rme1frGvU0mrAStpH5jrxz6Bo37euVZl2yVtJZyRn5WcV6RxoVeeD7/SRaN1ZlhzAmJaByocHSkrOTe6tEeOd/zLvxHRVS3pUIf1da1G9zTGjNOAehe1oLoGdq/f9pfPVY8s646iWpyvq65VRfVcUkOtWejh/TsJ5WNVs1ktr0nlV63g1Y6d0UUtKKJ44UgpT6GGFqPqfn8D9h/j9vv135sYgERSKhQaKqZXtFuznYD1JssPYdslPUov6lnhSJWsJDVUzBfVyM4HWr+VzDnXIx/170i/5ZNQ272vxG7338lcRYVnUvpBayQcoP9KWwmVXOUruQn/RjDTwr1vuHeY87o03/uBIRY8R74RuKaMuqXvaD7SPdhL3R9Ee1qukpOzMwcs/9q0139Hqh/vqaxlPVtdkxZe3/qjiwuSLrzrl8/2R1c1f7Gv4/ltrUbPNR/xBuiB/TsBzlRvVtnlNUUXlxSpHnbP7E/PVVdDJ+kHRiOTsdt/E/YfxVV3jXyd0XJDJ0HWb1o+ALu2q/uuaGQlc0q1puktn/WvPYxLkbgKR+5TJeff1fyKjpeHL5/U5Qa38nFV2azznZ+O0X/l46qy687MxA/pZkIMFrIsq3Vg7i/IRXbbrun5SUOR1MPxptlOn+ukEdf6Zndda0+yijdO+k43t9c3bvlBXl00OjdVjG5B6+tybqgpH6ueWtfSGLX01bN9VjKnQioycLnUu/2vdNFY0PLDJen8VOXjupYeLmvh2mjMca1/J8SZ6l3XtmuK11lfScfVSOBrkH5Gbv+E9p9x2bVdHVal+Hr3Gu3aw5Qi1UPPyUX7T9h6b64zLT8q5/4IKf+oHGj97jthO9f7G86ds1sl/+UTb78V0+Z6XGqdDATtv2vlXTMlwLWRaT/tM/3u8TurSiXrmUq7Ns0m52ae3puQ+rHtmvYe5DV/VFClfXLquj52ff3t5eVA5YM63Xus4lKhe4YcdKrw9Fx1pRTXSSs4OVOE8YhzQA/Sf8O07y5cKrS2r1FUOi8V1l3Lh25/Tef1iFLxqvKPJOlY9WxW8epxoP6dmNZUb9w9xdte9CitxWcFp1/aAvaPX/v9+t9//xt3g7uSOedu8U4Ljo6UVVX5lUcq2XZn+0fe91pMy/u1z7O8UVR6xfvbMl2/qWHtLyt6bf9oFNNKuI5Nw9rfb//qLQ9YP//5z+2dnZ1ptwO3QCxzoML8IdeR8IOWzFW0fhFsIIHbg2fzAgBgiGCKyYpnb+yzeYHXxf3Qj57nqeAHwtre3rY///zzabcDAICZxcgUAABDBFMAAAz1zWdqxTI6GPGal3PN4PWmbLsN+SinmU/1tpvl/cPvQfxBEk2YGrf/uokAZqvPZ9lNzGf8Q3dtZNrJ+Xk42t9oOpkk6koVnoz8B9XkU3WMm0+1U/+QrD23gWn/TNuwXJ1+iRCCJEq46Wb9+wOGCVk9P+q1J1ktFNNjPcLLLm052TZGyKMoiXyqExDLHFzL2vNYD2/VyYifm75/RFeXpGJeRfUkcLghbnr/ATeZ5wlIndRCQx5I7c6j2e8JR6d7h6oerSsTK4/4nNV2PtU9naqVT3VpvbM0ljnoPkJvwNNVhrUvljnQth7rsbY79biXX3/KSffpL/2Xy/PcUL/yw3i2Le56Ck/gJwAl9TAVUTW/4unz2u5W51mzfu0b1j/tsvOHeSmbldPDDRVdz9I1qb/N+xSbbvkg/eO3fwxrX5DtM9XOlFM/LOu51rW9GtVu7c39Ub9f/4/ef+2PruhR5+QwqsxB+zPd/gvy/fn9vky3T9L1pzi5npAWZP3Dyg/9/cQyelZY8jx7ut97w+q/tlySGheB+gZvhmeatzfHpFuQfKVS9zmrS2OcepNPdbx8qn4j3qD5OoflC5WkeDYr5V35PLc3OzMJpvXHMgdaPu5+d/lqvFM+SP9MM19pIK00b8dlJ33b+M+AHt+w/vf7fa09KXT2/5UVJz1Zo2cGK54taP7wev8F+f4mkU932Pb55cv1W79Rvt3T5zppeI+J0dUlRVzPfvarf1g+Y9wMnWDaPnNuDEiTEShfacvID4wnn6qZfsmbR2hfh0++UPeZuqf8BOqv7d73HLzKxxM8WNyAfKWeE9Xy8fW+eRP88sEO0E6x2E5O0Els0ZM527N/jNN/pvl0B2xf4Hy5A9Zvmm+301+ey1gRVQ/bz34eXr9vPmPcCOFms+l5o18y68D5SltOz+saOWUK+VRfn6DtG9Q/fsc3w/ql9rTX9YTTEzHlfKXdg2c7GDnp6Nbf8FTvsP4fxrZrOq9LqeU1qVTqnnhPKr+bJpRPd9D+G/PPlzt0/RPIt3u6d6hqatlJ+RYdMZ+vfPIZ40YI9/5pzLCcpEHzlUadyDbWTQzkUx2DK/F2qd/x53W0z5Ow3Kx+y4ppczsluTJxWMmcjtZ9CgY17e8nuqqliBTJtpNrtyysKrZ3Ojs3+8Sz3aw+1fzEs6a8tny6AfPlDlz/BPLttk+glteksua9l9N86rf63ADtyWeMGyE0NzcnafDUjWdZwHyld+YHTxf3Qz5Vx7j5VJ0fqhTPPvNc44xlcq5rNpPN1+nke2wdEIzrv6P5SHdWxLKSetLnAadj55ud0PaPnU/zzrwirfycnWte6aIa05jqHYMzzei+PDHC9XyXoN/fpPPpjpovt3f9k8q3Wz6uKr68prXlBc+UrW/9fvmMWyaV7xXj8dzNe/r8RI3CspJW+dq1vKD5Stvz+yf7k5uTIJ+qv9JWQq8yByq4pooaxbTu15x8ppNoX9w9snK1zXT7bbukR/llHXXqb6iYL2qhZ2Q6qH9uQr7SYdaW42qc7Hv74vS5ThopLa1GtXeqoe03zYfrx7//Stovrnt+W5JGXn/w708Tz6c7LF9ukPWb5NvtVrKv4npBWRWV7jk8DqvfL58xboZrD7o3zcVHTsvbp/unI8H/VAG3R98/7bCSenLk3N3NPgH0eZxg+VFe9VRhrEeDOdMPdeUfcdcZcGv0u1s8uqgFvaFrzsAMCPe+YdslPUov6tn2pmLl4NOAlhXT5vqCiukHk/lzDwA3gl3aUnrRewlh0g+1AGYd+UwBADBECjYAAAwRTAEAMNQ3nykAAAiOkSkAAIYIpgAAGLqWHBwAAIyGkSkAAIYIpgAAGOJuXgAADDEyBQDAEDcgAQBgiJEpAACGCKYAABgimAIAYCh0dXU17TYAADDTuAEJAABDoVCImV4AAEwQSQEAMDSxYJrMVXSQiU2qujfOtP2xzIEqlYrzyiUn2DIAwE3neZyglcx1A0JltOBS3i9KS6uK9bkGa8UyOqjklHQts6ykcpUDZWI345rtsPYHUdu9r0QioXSxMeGWAQBuus7INJY50FF2QcX0ihKJhBKJhB7rYfBgd/pcJ0rp4drrauprdsPbbyVzqhxkxg72AIDXJ2RZliwrqYepiKr5B9qtdUeqtd0tz78tK6bMQaXvQd22a9o7rCq+vjnWAb9Tt2tknEt660nmXMt72hDLHOggE/NMt7pH1n71B2m/Z/09I+0gBpVvty2XTCrXWe4dtdulLeXrKRWOnoy8XgDA6+WMTKOLWlBVx2XD2srHqkaWtBodvWh0c1uper4zKk4kEtoqdQN5MldRVt3l+XpKhSfeYWQkVVBh6UTplRWtpItSarsTkPzq92t/LHOg5ePuqD1fjSv7LPiJQ5Dy8ey6LlozA+milOoZJpe2EkoXF5Q9enZjpscBAO1gemdekQAftu2adu8nlLi/q1qf1G22XdJ+nyAQWHy576jLspJajjdU3O9G+/J+UY3ezzeKSj/Yc9p2eq56wPqDtL+2e98TfMvH1cCbFbS8e2bg9LwuLSxeC9a13ftaydeVKhxdG7kDAKYjPOl8pqfPT9QoLCtplVUaoe7a7n2ldaDC0ZGyklTNK7FVchZGF7WgiOKFI6U8pRpajEqqtf5ZP+8EedsuaStRClZ/gPZbsYyeFVLek47GReDtMy3v8epCDcWdKenyXt8TGwDAmxOW5ExvZrNaXpNK1+PLSOzarg6rFa1vRlXarfkXcKnt3ldi17mGuPmsoEpOTsA7PVddDZ2kvdd0RzWwfp/2W1ZMm9spqZhWov1eMqej9WDrNS3vFsscqJCSiukVo74AAExOyLIs2XZJx1UpnvVei4tlcp5/D7sBya18XFXE/Wcmp+eqK671ze7FyOjmuuKNEz0/vV7etmt6ftJw/buk42pk/Oljn/p92687mo9I9XOnsZaV1JNsfIQ1mpZ3JHMVFVJ15VfMTioAAJMVbv9PaSuhV5kDFVxTqY1iWvfHOWiX91VcL+jh2p62Sk4wfLQiPTkqqNKtvHN9sz1STLnnQBtFpR+4rpE+SmvxWUGVSrb7mQFTtb2C1O/b/vyyjrJHclbfUDFf1ML6oPqzTjtb7fMrH4SVzCm7UFR6hWldALhprO3tbfvzzz+ffMXJnI7WL7o3BM2YWW8/AODNmfgNSG12aUsJw+uv0zTr7QcAvDk86B4AAEMEUwAADJEcHAAAQ4xMAQAwRDAFAMAQwRQAAEOhy8vLabcBAICZFpqbm5t2GwAAmGnczQsAgCGumQIAYCj0uh4nCADADwUjUwAADBFMAQAwxA1IAAAYYmQKAIAhgikAAIa4mxcAAEOMTAEAMMQNSAAAGGJkCgCAIYIpAACGuAEJAABDjEwBADBEMAUAwBB38wIAYIiRKQAAhgimAAAY4m5eAAAMhZrN5rTbAADATAvNzc1Nuw0AAMw0rpkCAGCIYAoAgCFuQAIAwBAjUwAADBFMAQAwxOMEAQAwxMgUAABD3IAEAIAhRqYAABgimAIAYIgbkAAAMMTIFAAAQwRTAAAMcTcvAACGGJkCAGCIG5AAADDEyBQAAEMEUwAADBFMAQAwFGo2m9NuAwAAM42RKQAAhkKhEPEUAAATRFIAAAwRTAEAMMTjBAEAMMTIFAAAQzxOEAAAQ4xMAQAwRDAFAMAQNyABAGCIkSkAAIYIpgAAGOJuXgAADDEyBQDAEMEUAABD3M0LAIAhRqYAABjiBiQAAAwxMgUAwBDBFAAAQwRTAAAMEUwBADBEMAUAwBDBFAAAQwRTAAAMEUwBADBEMAUAwBDBFAAAQwRTAAAMEUwBADBEMAUAwBDBFAAAQwRTAAAMEUwBADBEMAUAwBDBFAAAQwRTAAAMEUwBADBEMAUAwBDBFAAAQwRTAAAMEUwBADBEMAUAwBDBFAAAQwRTAAAMEUwBADBEMAUAwBDBFAAAQwRTAAAMEUwBADBEMAUAwBDBFAAAQwRTAAAMEUwBADBEMAUAwBDBFAAAQwRTAAAMEUwBADBEMAUAwBDBFAAAQwRTAAAMEUwBADBEMAUAwBDBFAAAQ6H//stfTbsNAADMNEamAAAYCv3TDz+YdhsAAJhpjEwBADBEMAUAwBDBFAAAQwRTAAAMhf5H7eW02wAAwEwL2c3mtNsAAMBMC334wfvTbgMAADMtFA5b024DAAAzLfRn9ca02wAAwEwLff2bb6bdBgAAZlroH//s70+7DQAAzLTQT//wD6bdBgAAZhoPbQAAwBDBFAAAQwRTAAAMEUwBADBEMAUAwBDBFAAAQwRTAAAMEUwBADBEMAUAwBDBFAAAQwRTAAAMEUwBADAUevnnfzvtNgAAMNNC7377f6bdBgAAZloocufutNsAAMBM45opAACGCKYAABgimAIAYIhgCgCAodBv/uJ82m0AAGCmhf7s6/C02wAAwEwL/ZP3I9NuAwAAM41rpgAAGCKYAgBgiGAKAIAhgikAAIYIpgAAGPr/YqBlW3TZyukAAAAASUVORK5CYII=;" vertex="1" parent="JfqZfDmFp8OTxattPUuS-16">
            <mxGeometry x="-1284" y="-2476" width="794.31" height="425.23" as="geometry" />
          </mxCell>
        </UserObject>
        <mxCell id="JfqZfDmFp8OTxattPUuS-57" value="" style="group" vertex="1" connectable="0" parent="JfqZfDmFp8OTxattPUuS-16">
          <mxGeometry x="-352" y="-2411" width="771" height="425" as="geometry" />
        </mxCell>
        <mxCell id="JfqZfDmFp8OTxattPUuS-9" value="&lt;br style=&quot;font-size: 43px&quot;&gt;Tools you&#39;ll need&lt;br&gt;" style="fontColor=#0066CC;verticalAlign=bottom;verticalLabelPosition=top;labelPosition=center;align=center;html=1;outlineConnect=0;fillColor=#CCCCCC;strokeColor=#6881B3;gradientColor=none;gradientDirection=north;strokeWidth=2;shape=mxgraph.networks.laptop;fontSize=43;" vertex="1" parent="JfqZfDmFp8OTxattPUuS-57">
          <mxGeometry width="771" height="425" as="geometry" />
        </mxCell>
        <mxCell id="JfqZfDmFp8OTxattPUuS-10" value="&lt;font style=&quot;font-size: 30px;&quot;&gt;&lt;b style=&quot;font-size: 30px;&quot;&gt;&lt;font style=&quot;font-size: 30px;&quot;&gt;Windows 10&lt;/font&gt;&lt;br style=&quot;font-size: 30px;&quot;&gt;&lt;/b&gt;&lt;/font&gt;&lt;ul style=&quot;font-size: 30px; line-height: 1.4;&quot;&gt;&lt;li style=&quot;font-size: 30px;&quot;&gt;&lt;font style=&quot;font-size: 30px;&quot;&gt;Command Prompt - cmd.exe&lt;/font&gt;&lt;/li&gt;&lt;li style=&quot;font-size: 30px;&quot;&gt;Python&lt;br style=&quot;font-size: 30px;&quot;&gt;&lt;/li&gt;&lt;li style=&quot;font-size: 30px;&quot;&gt;&lt;font style=&quot;font-size: 30px;&quot;&gt;&lt;font style=&quot;font-size: 30px;&quot;&gt;Visual Studio Code&lt;/font&gt;&lt;br style=&quot;font-size: 30px;&quot;&gt;&lt;/font&gt;&lt;/li&gt;&lt;/ul&gt;" style="rounded=0;whiteSpace=wrap;html=1;fontSize=30;align=left;spacingLeft=8;verticalAlign=top;strokeColor=none;fontColor=#3333FF;" vertex="1" parent="JfqZfDmFp8OTxattPUuS-57">
          <mxGeometry x="160" y="33" width="449" height="226" as="geometry" />
        </mxCell>
        <mxCell id="JfqZfDmFp8OTxattPUuS-58" value="" style="group" vertex="1" connectable="0" parent="JfqZfDmFp8OTxattPUuS-16">
          <mxGeometry x="497" y="-2473" width="549" height="734" as="geometry" />
        </mxCell>
        <UserObject label="" tags="" id="JfqZfDmFp8OTxattPUuS-46">
          <mxCell style="rounded=1;whiteSpace=wrap;html=1;shadow=1;glass=0;sketch=0;fontSize=18;fontColor=#3333FF;strokeColor=default;strokeWidth=2;fillColor=none;container=1;" vertex="1" parent="JfqZfDmFp8OTxattPUuS-58">
            <mxGeometry width="549" height="734" as="geometry" />
          </mxCell>
        </UserObject>
        <mxCell id="JfqZfDmFp8OTxattPUuS-45" value="https://code.visualstudio.com/&#xa;" style="shape=image;verticalLabelPosition=top;labelBackgroundColor=default;verticalAlign=bottom;aspect=fixed;imageAspect=0;image=data:image/png,iVBORw0KGgoAAAANSUhEUgAAAb4AAAJoCAYAAAAZAoRGAAAgAElEQVR4nOzdeVyU5f74/9fMAIPAoGyioLKJggJuIbnlVu6ax1+LHk3LbNFjnWPZp7LFzLI8WZ6sY5ualmWaX/NoLnUyKzUPmhtobgkigikiygAywMz9+2OYkWFfB3Tez8eD0+G+r/u+rvsenPd9rbcqKqq7ghBCCOEg1I1dACGEEMKeJPAJIYRwKBL4hBBCOBQJfEIIIRyKBD4hhBAORQKfEEIIhyKBTwghhEORwCeEEMKhODVGpgpqirQ6robEYeg0ED+1HqejO1GfPwG511AppsYolhBCCAdg98CnqDUUaj25EtyL7MAYTNcVfLvFYWrTAVNyAuqkw6hSf0eVexVVYb69iyeEEOIWZ9fAp6g0FDbzIiOsP9mB0RhVLqhRo2jdMbk3B5+2mDrEoTp3DM3+zWiSDtmzeEIIIRyA3fr4FJWGAg9fLoUP4lpgDCYnrXmHSUFRAAVAAzpflI69KRoz215FE0II4UDqXuNTqVAUUFHxWtcmjQv5ulZkhvUlx7c9Jo1LcaBTzP81AYqq+HxOKE5q8G5d56IJIYQQpdWpxqeonSnS6iho3gqTkyuKSlMqhQpFreF680AudbwTfcsIjE6uoCigKKhMCirFCIqCYlJQTKBYgqBih8pou1ms++0AiTuXMKXhc6vQlOU/kZi4nnmNWIZqm/whvyYe4Nflk8y/N5F7WF/mbTpw83wWQohaqVONL9+7LZlRQ8lpFYnXH7vxOvULLtkXKa7Ooag15HoHkxE+iDzPNiiob9T0AFWhAZfr2WAqO4pTqenLksYuYef8Pvie2860kS8QX1G6xz7lt5kxcHApt33ogbaG2TSujkxY8BxT+kYQ6OVis+f42h7c91ojFCmwge9h57HMmTmJu7oE4qsrcc3GAgwnNnLb+IUNmbsQ4hZUp8CX0WU0uf4dMbk0Iyu8PwXuPnif/IlmmUmYVM7keodyOaQPBg8/FHVxbVAx1/KcCnLQXTxBi8un4I6hNs2lJf+32jZu5fjf+9CvXTTjekH83vKTPdo7Ai0FHPl1OeyFu2+bX9vLt7M+zNu0iHEhLpCVRtLBs5y47EJIqC+ePoFordHnYRZ/9wBdk5YxcPrqhi/W3vkNdg8jH1vC0kf64KsFQ1YaScfSSUoqwC8yAJ2bL4Fal6pPIoQQpdQp8Bm1HigqJxRFRZHWA3277hhaBOKbsAVTkYnMtnEUeHibg565DROVyYSm4Do+Z/fQ/OJRnDCSbywyD3KhuJ+vpkEPgO2sOjiDfkMC6TI2FvbuLyfNDO6IcIHLe9jwUe2vu1E88zfGhbig37eYex9eTVqFCQMIDdChPW/HsjWAwIc+ZPnMWHSGNH544xlmfXmysYskblEhIcGMHTuGzMxMPvvsi8YuTqMZOLA/cXE9iY/fx86dPzd2cRpUnQJfwN5VXIq5G32bLpg0zphUThg8W3Mh7gGU7GyU69dRjGBt2jSZcMtOxS/pF9yunkNlLASte7lxrsZNnUD8+kTShgQS2PU+4thftrnzmb50cYPLB39kQ81P36imRAQAen7/ubKgd6uYxLxHYtEZktkw+x7m/tTY5WlaJk+eSEhIcJntGRmXWbr0Znuiq9yMGY8BlHtdle0TtmJiohkxYhjaEq0kRUVGfv117y0X5MaMGUW3bl04dOgImzZ9a7PPch/qFPhcsv/EN/Fb1IXXyW4Xi8lJi6LWYHR2gxYuoM2DHD2qwnw0JgO6y6fwSj+Ea/YF1KZC86AWsE5nsKnv1abSt3cjR84NI7BdF6aMhvjNJXcGMqdnRyCNw59tLN42iWW/ziLu8kaix1ia6/ow+4NZjIsNQVfcfGjIOsmWt/7K3M3mgSize15mQ/Q9zLXJvLxzBTLimWd5bHQsoZY+OYOepO+XMmPOuhoFsBOXs4FA2nTpA+wpN828TQcYF1L8S89ZJCbOAvTEvzWAaXzIr8/EkrGxB3e/ZHtc+dfUkQkL5vLogI746sxb9Mk/snJL6VzLu26g3TBmPz/N5j5i0JO0/z8smr6YXZVca+DzI4jTQdr3i2sQ9Mq518YC9Of2s+GdJ1lU6jyBI2bxwuN307OdDq0GyMvkyOZ3yv9M2t3Hwn9Oo1+EDzoNYNRz+cQePv6/F1hzrrrlq1/Z2Xo2btxEcvJZ4Eat5YUXnrslv8yamsmTJ+Lj42PzGdwMSgaDyZMnEhfXk8zMKyQkJDZyyepHSEgwYWGh5OVdp02bwArT1WnopMpYhGvWefyObMbz7H5URQVgMo/YRK0BNw9o4Y1GBV6pv9HyzE80u3oetbHAtkpXPKXBOqrTRO0CH/tZsvsk4EPkkGG2u9pNoms4cC6Rryro/4NAZn+9iCl9A8k+9iNbN29n6+6T6LW+BHrVojiTX+LFyX0INCaza/N2tm7eQ1KBjtDRs1g6N7ZGp4r/9zrisyBwyBJ2fvUSEzqXTXNkx3a2bk7gMmBI3mMu/+Zt7Dpd04IHMmX5R8wZ3RGd4aS17Od1fXnikS7oqjq83SSWrXqdKX1DIH0/PxQff1yvJbTvJBZveol+lRw+LioESOP4+vIDfLnl/fhTFk7uQ6hTGvHfb2fr5u3sOqHHJaQPUxatZ96AEskHvMTSVyfRrx2kHTB/zj8czSb0nrkMDijnWlY/y4jOLmRb0h7JRtd5GHNWLWFcNUvY0JKTz7J48RKysrLo2rVLuTVCIUo6fDgBo7EIHx/vxi5KvQkODsLJScPJk6fw9PRk4MD+5aarn5VbjEVwNROyr4KnD2g0mOtvKnDWQgsfcG9evL0clgnsJap8tYp7QNoXRzh+f0cio0Ywju3WJs3AR2KJ1EDSwaUVj/hkKv0iXODcdh6e8sKNp/92HYmsVWn0JH2/kGefLlG7G/AWO98bRGjPsQSyv/q1vnOrmTZdy9J3ptGv81jmfDGCKUe2suqf81lzzJxkw7svsIGX+M/oGLQZ+3h2TonBLeE1KPbkl3ispw5D8kZmjZlfonbWkTlfr2RCROWHT5k7jTjfApI2zubul0oGr0CmLP+C2T3H8sTzK9j1RvlX76tzgbxMkip8QCmnvL18yimvua/w66diGfe3Z/n4p4WkEcu8p8YSqtUT/85Epn16owyB9y9h9Yt9bEapTpk7jTivsmn7LdjE0tF9GP8MbHirmuW0g+PHTxAX15Pg4CBrTaR0M1dFTVylm1AtTacDB/and+9eODmZ//2Wrm02FZamz/Pn0+jWrQtQ/rWWvp7U1LId4hVdM8DYsWPw9DQ//k2ePNHmfpQ+rnTzs6UZzqIxm6d9fLzRaCoPAZaWBMv1AuU2Ic6Y8Rh+fr4AGAwFpKSkEBQUxNat2+1am2zbtg25uXls2vQtbdoE0rZtm3LT1XEen4Z8dz8ygvuS7dsRJTcXrmVBYaF5ioICoMLo7EZW+AAuRY3hum8oJidXUKlunKe4ydMyv8/6/2vj3EL2nQZ8I7hzrGVjLE92DwHjSeI/qSzUpKPPA/w78uSIEtXkcyc5Xpsmrc+eYdLTpZo0fzrCGT3g5cOdNT3fseXMGNqL+97YzvEsCOw+ljlffM/qp/rUonAVm9I/Ah2Z7Fsxv1ST5EkWbD2CvtKjZ3BXlA4u72fVS6VrbGmsmreDJCCy59TKC2E0kF3N8j4xtEsF5YW0T+fz32QgIpZHAdqNJS4EOLGNuZ/a/i2krV3IPpvPufha0vfzSam0uz5MJA1oEzGpmqW0j8zMKwDodOYvqoED+zN69EjS09OZN+915s17ncTEo9xxR1/GjBllPW7GjMcICAjgm282MW/e63zzzSby8/OJiYkmLq4niYlHmTfvdT777AuuXbvWKNdWHX5+vrRpE2i91tTUVHr37mV98rcEJsv1zJv3Oq6urjZf7GD+wt+8eYv1mgGGDx9qrVknJ58lO1vPZ599Yf3dMjjk11/3Wo/TarXWgDxwYH86dYrkl19229zjxhASEkzXrl1IT0+vsFk8Jiaa+++/F4PBYL1Xv/yym+joKCZPnmhNN2PGY2i1Wj777AvmzXud+Ph9hIaG2utSbMobEBDA+fPmf6vnz6cREBBATEx0mbR1qvEVNPPmcnBf9D7hmFROYDKh0mehNuRBC29Mzs1QVGoUlRNFLh5cbdeLAg9//H7fgtvl0+amUShu6qzrqM4bFv2cwPiIGCKHjoWNG6HXWLq0A07sZ0GlAWw5H20czML7OzJi4SYGP3WSXZvX8fG7Gzley7JEjp3Bg6P7EuHni5+/Dheti7lPqfLoUanjX77AfV8GEvfQP5j3t0F0eWgR6zT3cN9b9TPsJdRPB3kJHN9Yzk5jVUf7oHMDwx8nyh9AdC6ZDD2E+gQyAVhTXhojoAugUzugGg8c5hpiWvnlJY2kDD2E+BL4V8DJB08g7dyP5dS208i3uT7zteA2iGWJB8rP3C+k/O2NRK/XYzAYrL9HRkaQlZVlM1rR8jRs6QMZOLA/np6exMfvsz6dJyQkkpCQaA0Yer35DzY5+WyTq+mVlJ2tZ9u276y/79q1h7Fjx1if/C33o2SNZdu27xg7dozNeVasWGX9/8nJZ8nMzMTHx4eQkOAKrz8yMsImkCQnn+XMmSQ6dYokJiba+jBieTix3GN76tati7XGaTAUcPhwQoVpu3aNwWAw2NzPnTt/pm3bNtZ7ERwcZP3bsdyXnTt/RqfT0alT7drJais4OAiAs2dTrP/t1CmS4OCgMve5ToEvvcMIrnu0wqTSgArUGHHJv4Lvqb2YPH3IDL+TAo+WKGpzNopKTZ5XCOdjH8T35Hc0T/0NJ1NhvTZ1AvD+bk48EEOXLsOYwkZO3BNNIAUc+WFxlYfueuOv9N5UPGm6e0funPYSd44dxqIpj7OqRrU+c7/T7F4+YNCTlnqZpIP7SctyIWLAIOr+PJRG/KfPMCz5dbb/axiRI55lxFtPsrXO5y1WgxpXfYs/n8m49oGETAyECppD68yQXv2k5/az40hm+TsvNq1BATqdDm3xpM6QkGC0Wi1nziSVSXf+fBphYaGEhASj0+kwGAzWL4ySdu78mcjICO64oy+RkRFNfgSlwWCwCUzJyWcxGAx4eHhUej/KU7L5DsxBtSKWc/v5+TJ37gulymR+wE9MPEpYWCh/+csYunaNaZSpEyWbKS2tAcHBQWWaLgE8PDzIzMwsE+hTU8/j798SnU5X6d+OvbVpE0h6errNw1vfvr3LHeRSp8CnKcxHZTKiUjuhKbiOe1YS3hcO0UyfjumaFk1BHpc7DMXgaV7SzLyEmRNGFx2ZHYZQ4O5Pi/TDmNRO5h7B4mhX61GdVsv579EH6NIzgn6ThxHXPRDyEviluv9mj21kwfSNLKAjE/71FnMGx/LY3EmsetjSZ1Zce/iyxDHtQvDTAZctv09lXC8fOLedGSNfKNEEN4llv9ZH4Cv202ccSRtGoJcLftVI7ud/H7CuxJZAcw3PWnDQGwBdAF17warS/WyeWlyAggpzyESfB9qACMZB2Vqf5T6dOFl+bQ/Y+uV+nhwwjMjhLzHli6ofOC7rCyAkkMixQJlaX/H1GU9y4ktgdAEGwDfobmBpqbSxeNosQ5ODwQhaJz0b5lSyGlAT4uPjjdFYVK9fREuXfmTt65k794VbctpESZbm0KysLObNex24MYqzKuX1f5W0ePESa5/r3LkvkJx8ttHmDloeaiob/XizGDiwP15eXuU+eBQVGRk4sL9Nk26d+vj8Unahu/IHmvwcvC4cxP/sz7hfTUFtLMDJoMcz7RD+iRtolpWKqrAQjKbiJk01hdoWXA3syYXIe1BUTvU0qvOGVZsTuIyOTqMnE+kLlw/+h4+rPKojkTajJU+y5h1zX47O0xxWTlzNBnS06WHbr9bv77G2waxvIH6A/s/jtoMtZg6ma5XDIsua8q8vWTozljJ/ogMm0yUQyMrkRInNOu9STXCn9WQDuqBY2xGVA/5h7vMqYc2JZCCQuGmTbPNrN4zFo2OqWKJsKb+cKADfWKbML933GMiUuYMJpYDj+9aVezQAe19gzV49eMXyxIolPFrOCNaS3vvlBAZ86Dm17GjRwIde4q4QMJzebw60m/dxRg/azsNYOMA2beRTs+hnM6pzHYdPAwGxPPJQ0/9ysPTbXLx4iYSERGttp7wvtjZtAq21I71ej1artTYVlcfSt3Xo0BE8PT3L7TdpCDk5OeXmFxMTjaenp7U/pyLlpSt9P0rWksE8QCIvL8+mia8qld3r0hISEnnzzbdITj5rbTJsinJycsotX9u2bSgqMlqbv93c3Mr87bRo0dxu5bSUKS8vz9rPaPn55ptNGI3GMoNc6lTjc829SKs//ovRyRXnAj0qUxElI5bKWIT75ZOojhaRETmKPJ/2mNTO1v2Kk5YC91ZgXcOzHm380byEWURHdGSy67tyO4BKuY83vxiB54n97EvSAy4E9uhrbib92fxFHb9+P0n9Awkdsojtq3ZzJK0AXWgsPUPySdNzI1B8uZ+kv8fSpec0ti/vwpGLBbgERtOvsyt6PTVf31IXQL/HPmT7XzNJOpdUvHRXMKEhgeg0euLXW0arFvehtR/MurddSdYF4LL7IWZ9to74P/oyrv0gFn/3KbsOpFPgFULP2BAM6Xoo8YWf9tJG4vvPIq7nLL7e0pf4I5kUaH2I6BWL3+U09GXDr42PX/o3PVfPIm7sEn7tsp/4o5kUoCOkVyyRvubVZ2ZV0R+56tEX8Fs1lynd+/DEVwd4MD2ZpKSTpGXpCIwMQKfzJVC/g9v+Mh8+epH3eppHiy79tQvxe0+SacD8uXT2QZu1n0VPLy7u01vNJ9+Npes9IYxY9D0h+/eTnFWctn02aRch1N96J1jw743ELRpL3FPr2TnU8ncBusCOREbAL3Gl53M2jpK1lJI1iOPHT9C7dy8mT55o3T5mzCi8vLz49Vdzdd7y5F9yTldMTDS33dad5OSztGrlz5o1lTyoNKDDhxMICAigb9/eNv00ffv2xmAwkJh41Ca9n5+vzbX27dsbMPf3WPrcunXrwpgxo6w1s759e9tM7L569RoBAQE2A4Tatm1LXl5ehWngxmjSkuceOLC/9f5ZBhNVViO0J0stqfQ9tDh8OIERI4YxfPhQaw3fci8SE49am0DDwkLp2rWL9R5b0hiNVQ4IqBchIcH4+PiU2yybkJBI164xZQJ4nQKfymTEyZSHpjAXVbkpFFTGIpplpdDy6EYyw+8ip2WkeYI7xYM4UaEoKpv2TfMwl7pGwo2sOjiVfkMCIf0Iq6oT90jmxDkDgyP6MKK4lmHISuaH9xcz66PiL+q985nxlitL/zaI0O6DCOwOhvT9fPXsbiIWzCoREpbz7Duh5nQ9BxEIGC4msOHlHYS+OAvfsplXatU7Swl96j7uiAwktHMsoZ0Bg57LyXvY8MlCFm21BJLVzP2kJ8sf70PkkGFEGtP4YTPAfub+fTGu785gcEgMd46Ogbw04r+cza7OrzPbpqazmmmTCoonbcdyZzuKJ5+v5tm9HVn4TBVPtefMx8+ZP4lRnWO5M+TGvYxfu465r1Vn8v4eFk0Zwpa/vs4LU/oQ4R9Cl4AQLAPBDXl69Kct/XRprHp4IgUvvsaUERHEDbFkqCdp3zq+mrfQZqJ5/Lx7mKVfwuyxsUT2HUYkoL94kh1vPUP+xE22Nfef5jPj5RzzZPeSfxf6TJL2ruWHKq+jYXh66mxG1lU0RcHye+/evaxNQAZDAZs3b7EJJEuXfsSMGY/xl7+M4S9/MQ/0OHToCAChoaE2x9pziHpCQiJ6vd7azGqRkXGZxYuXlEmfkXEZDw+PCstrCTolB3kcPXrMpsZnGfxjuRfZ2XouXLhA8+Y3ajEl++sGDx7Ixo2byj23JX+LkvsaY1pIyfyrWrnFcs8szbLlHZOcfJaNGzcxduwY699jdraeEydOEB5ekzlUtRcdHYWbmxuHDx8pd39q6nnatm1LdHSUtQtAFRXVvb7rWuVSVBoKdK3ICB9CdkB3FCcXFCOoi1QEhoeg1phbXVWKCYoKIDcTjxWT7VE0IcQtQJYwazrGjBlFp06Rdp/HV131M4G9GlSKERf9n7Q8uQWV0Uh2YHeMKtcbIzoVwGSEnEw0fx7DOaHM2lhCCCFuAm3aBJKdnd0kgx7YMfCBOfg5513B7+RWNAW5ZLfugdGpORTkos67giYtAU3qEdR/Hkd9/ao9iyaEEKKGQkKCGT58KLt3/2oNcpMnT7TpQ26K7Br4AFSmIpyvX8HnzA40RQauhw1CkxSPy+mdaC6eRHX9mrm5UwghRJNm6Z8s2Td8M7z1wW59fEIIIURTUKd5fEIIIcTNRgKfEEIIhyKBTwghhEORwCeEEMKhSOATQgjhUCTwCSGEcCgS+IQQQjgUCXxCCCEcigQ+IYQQDkUCnxBCCIcigU8IIYRDkcAnhBDCoTgZDIbGLoMQQghhN1LjE0II4VAk8AkhhHAoEviEEEI4FAl8QgghHIoEPiGEEA5FAp8QQgiHIoFPCCGEQ5HAJ4QQwqFI4BNCCOFQJPAJIYRwKBL4hBBCOBQJfEIIIRyKBD4hhBAORQKfEEIIhyKBTwghhEORwCeEEKXk33OU048sx9jYBbGXB15lzZoPeLZfYxfEPiTwCSGapuhNnH56L3r/8ncbB+3l9NObyLdvqRrQq1yp5HpLy7/nKKeftvxUfJw53a10n+rOqbELIIQQ5Uo8jM+QceR0fhDdxZWldj5IXpgOj0Mf4doAWbuujyK8Ac5bLv/lXJgURw4AelpVecCD6B+ZzZ9ZGwh/++Uqz50VVI0yfP4yEz6vRrpbhNT4hBBN1Mu4pUBOWL+yTY7+/cjx1ONxrHRAvNk8iH5MHBxaRPjqeDyqcYRx0GPmoLe+iqBXfG5tSlJ9FPSWIjU+IUST5borHo9JncjzB93FG9uNnTuRk/07LS3bbGpNQEqJwOC/nAuTOuHx/e/kDIkjhyTavj0G19LHZMcT+snDaDA3D6ZiG1yMg/aS1E13oxAppYJP9CZOD4G2qzPIKnFen++j8E6s6ApXovtkJToA/+p0sL3KtW46fL6vKuiVCJAnu5JZVa3vgVdZMwK2THiZ1QD04tmPH6er9XLzOLx0Ogt3VXLs0qsMmNEF9+LNZ7dO4XmbWmTpc5ZMY94XfupDpi3aW7x3PG+sGY7fgRLb+j3Fshkt+MlazlL6PcWyEmVAf4T3H32HPaXOLzU+IUTTdXEXHtk6cjo/WGJjcTPnmV1o4EZgWx1F+NtRhL+9iFZe4zh9z6sljtHx5+3Q8u0owt8egyuvcmVSHNrvSxyTVXEx8u85SlK3DNq+XSqPMgNgQkkdY8knitBDejKH1GP/mn8gBpJwu7ScC0/f6OO7MOhB23TRm8zlrbJWWL5Jbz5O1yvbmDBhChMmTOH9AxlVHBHEyAfgU2v6PIJHvMok6/7xvLHG9pwTlh7Bb8Qqls3uBexl96k83Dv0oo/lkAc6EQw22/rEheOuv0pyReUe2YKfLOef8CGH6cLMN8eXOb8EPiFEE7YStzN62+ZO/37keCbh9aO5mTO/Xxwc+qhEjXAluv8lQVBXm4Dj8z9zbc58jkAM6HG+VOKY9SX2l+S/nKwgPa1WjynRn7gS3aZ4PDzNtdEb9LTadOM8mh//iw+h5EXX7urLaOlHTqngGr46HrrN5oolD//lXBjiV6q8NdGLQG/IvZxi3bJn0cvl1/as8jj8+Tvssab/mbME0fkB8+99ZvcnWH+E95/76sYhu97h0wM3gtGe+NPk6loQUrx7UucgclNSbLaF+LqRe2qvNZ/SVj9XsiZoDnZ4B5Q4fzh9+0ngE0I0cZpjv9sEGGPnTuSkHC7+Un+QQi/I6Ta7xAjHo5weElrqLCWDHHDxYbxSdPw56WipmmE5WvqRk/07bhdLbS+ujRa2LLkxA+fS6eqdbXA1Xwtk3r4co7Um28umabhm9rJwVwruPR5nzZqStbbKZJBWSWCsKGDZBLtd6WRYg2UvAr3zOL1lG6f1lm3j6RyUx+n4vVRm0purWLPG/DOzh9uNHbve4acUN8LjekkfnxCiibu4C4/suOLRnZAXpsPnf7ZNeJX3o5XPPHLTPELy9NPjyvbZNUWXMvDAr8xm5yt68ALjoLvIBBhylMwhtmlSnz6Kx6FFtP6xGgOCikd59pn9ATPXrGIkKSX6/xrKVxxLGc7IzuOhXwDhnObTXXshbjIzO483N33qT/N+RQHW0r+Xso0JE8w1yz6zP2BmhxtJVh9LYWS/XlLjE0I0deamy5ywfhiLmzndEm/sc86CzI5V1NoqO/cnUYR/X7Zp1OpSRjlNmlhHltrUJBvaxTS0lK5lQqG3DrLScPmxV3EfZImf75OAJNq+HVW9oFfCnkXTmTBhm02zZW0kXy7Vf1esdJ/d6mMp4B3ApLhwKK4h7ok/Ta53AJP8/Spt5jSfq1Rzammf/85ZXbgEPiHETSDxMD6enbjWrxMc2mDTd+V6MgmCxt3o4wLwX86V0gM+qMH+kqzNoiUHqZinCuSk/LcOTYrVY7uKzMs0Lz1gJnoTqUF6Wu2qr9pqL55986kyQaou9iz6mbM6y0CTYv2e4qEebpzddaNv0ByYujCyBzeaNHelk6HrwsgebmRcrLiZc8/FDCjRH2g5v62v+PaATGcQQtwUXsYtZVzxF3ypWkviGMLZxGmb5r0k2r5dee3G0G02p7vNLpG+4sEgruujaHvPUVKfPmrd5nFoEeE1rEHVB82PvQhlL0nWsuhptboufXrl8O7CzDWrmFn8a9mpCTX1Fc9PgDfWDGfNmuHF2/I4vHRKqUEz5ubOYO/T7N5ValtQCscqK8PnL7Ol8ypGrlnFSAD9EbYcyGNkB9tke+JPowoP76zU5XKEEEKIm4k0dQohhHAoEviEEEI4FAl8QgghHIoEPiGEEA5FAp8QQgiHIoFPCCGEQ5HAJ4QQwqFI4BNCCOFQJPAJIQH55EEAACAASURBVIRwKBL4hBBCOBQJfEIIIRyKBD4hhBAORQKfEEIIhyKBTwghhEORwCeEEMKhSOATQgjhUJy0Wm1jl0EIIYSwG6nxCSGEcCgS+IQQQjgUCXxCCCEcigQ+IYQQDkUCnxBCCIcigU8IIYRDkcAnhBDCoUjgE0II4VAk8AkhhHAoEviEEEI4FAl8QgghHIoEPiGEEA5FAp8QQgiHIoFPCCGEQ5HAJ4QQwqFI4BNCCOFQJPAJIYRwKBL4hBBCOBQJfEIIIRyKBD4hhBAORQKfEEIIhyKBTwghhEORwCeEEMKhSOATQgjhUCTwCSGEcCgS+IQQQjgUCXxCCCEcigQ+IYQQDkUCnxBCCIcigU8IIYRDkcAnhBDCoUjgE0II4VAk8AkhhHAoEviEEEI4FAl8QgghHIoEPiGEEA5FAp8QQohbgqIoZX4vuc3yu5O9CyaEEELUN0uAKx38ytsmNT4hhBBNXunaW+l9NSE1PiGEEE2aJbCpVKoaB7nySI1PCCFEk1XfQQ8k8AkhhLgJ1CzoVZ5WmjqFEEI0KXWp2SmKgkoFluBX3qkk8AkhhGgSah7wyg9uVZ1GAp8QQoibSMU1ueqSwCeEEKLRVa+2p9Qy4NkeJIFPCCFEo6puE2f1g17J1VrK7pXAJ4QQolFVNVWhurVBc9qK9qmsv0ngE0II0WjqNjevZLCr6jw39kvgE0IIYXdVB7zK+vNK76v8XKXPI4FPCCGE3VVnJRaVqrypCjULcuWRwCeEEMLuahrAPD2boVarqbpJs2oS+IQQQtiVeXWVymp8Zber1SrUahUlB6nUlqzVKYQQwu4qC3o1bd6sKQl8Qggh7EqlqqjWVt6AlvoNeiCBTwghhJ1VXIMrGxDrubIHSB+fEEKIJqN0lKufqGdq5ouqeRAuFFB4LV0CnxBCiKagonl7tQ9+RkWF0swXY0AfnAK64NZMhTHjhAQ+IYQQtwIVNmt0osLo6ktBm8GoWnZG7dwMjYcbzp4tpY9PCCGE/VR/hGb13sSgoEJxcsPkHoDi7G7+HRUmlxYYQ4ahatkZ1E5gMlJUVIRGpZYanxBCiMZX20EsirMHBYH9MAX2Rnv1BJz6FhQTBe3HYmoRBmoN5F/FyXgNjVsQuagk8AkhhGhste/HU4wFmPIyUdTO5Ht1gk7e5kZPj5agdkb95wFc0n7B06slnm0CyHGSGp8QQogmx7aZs7LaoNpkwPXyYZTCbPKjHgRda3MYValRUnejSd+D0ZBNjocf2kIFlVYlfXxCCCHso/z+vbpNWTAPaVFzXa0zr2qt1ph/VCrUTs1QObvjpFLAVEROfiH5BUap8QkhhGhMtqMxbVUdFE2aZhS2iEAJ7o/KZESddRpTMz9wbY7iG0mha3PUabtQoaGgoAhjoQQ+IYQQjayypsyqBr2YTCaMJgXnojwKzx1Fe/kIJldv8tsMQOXRCnXzIAqdXaEoB42TFhe1DG4RQgjRqMqu1lKTEZ4qUwHqa2cgOQ/XvAtoivRo8i5SWGhACRqI4tkWo64tKpWCs4sajVoGtwghhLiJaVQKWqMe49UcnNWWiGmk2bWTFJ4txNj6dhTv9qjdW+Di4oLBYJDAJ4QQwj6q89b1G6pf7VOrQK2yTa9Wq3HOTkJddJ2iwlwU/85gcqLw2kUJfEIIIW5NarUadf5FjGl7UeWkYVDlQ/Z5CXxCCCHso7zaXtUVwLq/ocG18DJcvoyCeQypzOMTQghhF+W9gLbil9I2HAl8Qggh7KL8Gl8DvGm2ChL4RLlGjx7J//63i8TEA8yb91JjF+eWFxcXy44d20hMPMCyZR80dnGEaBCNUbsrj/TxlcPf358+fXrRpUs0AQGt8fb2tu7LycklNTWVkydP8euv/+PMmaRGLKkQQtzcVKrqvZnBaDRiMpnqJU8JfMX8/f2ZOHE8Q4feSatWrVCrK64Md+/eFTBX0fV6Pb//fpwvv1zHzp0/2au4wkGFhYXyxhuvERHRgczMKyxZ8m+++eY/9Z7Pa6+9wogRwzCZFDZv/pZ5816v9zyEqImioqJ6qzE6fOBzd3fjySf/xpgxo/Dw8LBuVxSF/Px8MjOvkJeXZ93evLknzZs3R6vVolKp8PT0pEeP7hw5kiiBTzS44cOH0r59KCqVCl9fH4YNG1LvgS8uLpZeveJwdnYGoF+/PnTv3o2DBw/Vaz7C8dSlP68++wIdOvANHDiAp5/+O+3atbVOrExOPsvOnT+zefOWSpsxo6I6c9ddg7njjr4EBgbYsdTCken1eoxGI87OziiKwtWrV6t1XIcO4RiNxmo1zefm5mEwFFh/v37d/AAoRF3VbAJ7w3HYwDdx4nimT3+M5s09URSF1NTzLFv2KRs2bKzW8UePHuPo0WMsXrzE+qUiRENbv34DLVu2pE+fXqSknOPjj5dXmv7+++9h6tQp+Pj4snLlZ7z/ftUDZ44ePcayZZ9y773jMJkU1qxZS0pKSn1dghCNziED38SJ4/nb3x5Hp9NRWFjIt99uZeHCReTm5lV9cDlOnTpdzyUUony5uXm89dY7vPVW9dL7+fnh5+dX43w2bNhY7YdAIaqr/NpeZa8lahgOF/juu+8ea9AzGAr44os1LF68pLGLJYQQwk4cKvCFhYVy//33WIPeZ5+tZsmSfzd2sYQQwkFZFhGzL4eawP7II1Np3z4MRVE4cOCgBD0hhGhUjTOh3WEC3+DBA+nVKw61Ws3Fi5dYsWJlYxdJCCEcXmOM8nSYps4hQ+7Ey8sLk8nEzp0/Ex+/v7GLRFhYKAMG3EF0dBSBgQHWSfNXrlzhjz+S2LJlG0ePHqu3/Pr27UP//v3o0CEcDw93wLwSze+/H6/3vABGjBhGv359CAsLRaPRAHDhwp8cOnSYn376pVFXvbFH2aKiOjNy5HDatw+1rv6Tn2/g1KlT7NjxE7t376lzHk1d3759GDx4AB06dMDVVQuY/76PHEnk6683cPHixTrn4e/vz8iRw4iJibb+OzKZTJw7l8q+ffv59tuttR64JhpedVduqb/8VKiioro3/qSKBhYV1Zm3336TgIAA0tMv8Mwzz5OQkNho5Rk//l7uv/9eQkNDKl0hRlEULlz4k7Vr19ephjp16oNMmHAf/v4tK1z5wGQycfLkKd5993327NnL6NEjeeGF53B3d2PDho3MnTu/Wnm5u7sxY8bjjBo1HC8vrwrzMxgKiI/fxzvvvGu3AGivso0bN5YHHvgrYWGhFeahKArnzqWyYsUqNmzYSFxcLAsWvErLli2Jj9/HtGnTKzz/smUfEBfXk0uXLjFnzss2D3EbN35NWFhojcp75kwSY8fea7Nt5szpTJ06BYAVK1ZVOA2ior+TcePGMnXqFOsc2fLk5+ezY8dO5s9fUKvAFBMTzRNPTKdHj+7Wyfblyc7O5ttvt7Jkyb/Jzc2r9P6JhlV+7U4pFfgsvys2x7i5Odd65RZnZ2eCg4PpcVsPXJxdHKPG17Pnbfj4+ABw8uSpRgt6YWGhPPfcbHr2jLUGvLy8PC5c+JPz59PIzs7Gzc2NoKB2tGrVCnd3NwICWvOPf8xk8OCBLFy4qEZlDwsL5cUXn6NHj+7WiaNXrlzh/Pl0zp8/D0C7dm1p164tOp2OyMgI3n77n6xa9Tnnz6fV+PpiY3swZ86z1i98k8nEpUuXSE4+S0bGZTw9PQkLC6V161ZotS7ccUdf2rcPY/78Nxq89mOPsrm7u/Hqq3MZPHggGo0GRVHIzs4mLe0CKSkpFBYWEhgYSHBwO7y8vAgKaseLLz5HTEw027Ztb9Drt6dXXnmJMWNG4uzsjNFoLP77Pm+9zxERHfDz88PV1ZURI4bRunUrXn11QY0eMqZPf5TJkydaV1uy5HPmTBLZ2dk2n6enpycTJtxPdHQ0L730SkNdtqi1iqYz1N80hxYtWhASGsLFixe5+KeDvIE9MjICrVZLYWFho825i43twYsvPk9oaAiKonD+fBpff72BtWvXVfi0O378vUyePIk2bQKJiYli/vy5vPbaG+zff6DK/MLCQvnnPxfQoUM4iqJw6tRpVq78nM2bt5Sbfty4sUyb9hBt2gTywAN/5euv/1+Nrq9v3z689NLzBAS0xmg08ttvB/noo0/KLWtMTDRPPvk3YmN7EBDQmhdffJb/+78XGuyBxB5lc3d341//WkRcXE9UKhXp6el8+eVaVq1aXW76Pn168fe/zyQioiOjRo2goMBQL9da25pbfXnttXmMGjUcgP/9L5733vug3Hs3fPhQZs6cTrt2benWrSvTpz/K7NnPVSuPJ5/8G5MnT0KrdcFgKODHH3fy9tvvlttsGhYWyuOPP8LAgQOIiurEc8/NprEGVIjG4+rqipOTE+dSznHixAnHGNwSFNQOMC/3VN/9WNVhruk9Q2hoCCaTiT17fuXBBx9hxYqVlTbxfPXV19x77wR++OFHTCYToaEhPPvsbIKCgirNz93djddee4Xw8PaYTCZ++OFHJk+eWmHQA/OE5YceepR9+37Dw8ODu+8eg0ZTvT+PsLBQZs16goCA1uTm5rF8+UqmTXu8wgCdkJDItGmP8+23WzGZTAQEBPDII1OrlVdN2atsCxbMJy6uJwAHDx5ixoy/Vxj0APbs2ctDDz3C1q3bcXZ2YtSoEbi6utbuIpuIli1bMnjwAIqKili16nMeeWRGhQ8M27Z9xxtvvMXFixdRqVT07n0799zzlyrzmDp1CpMmTUCrdeHSpQxeeWU+//d/cyrsKzxzJolnnnmexYvfJScnh9tu60FwcLs6Xaeob/I+vnoXFdWZ5s09AfNAjuRk+y+9NH36o4SHt0dRFPbt28/s2c9Vu1M/NzePl156hR07dqIoCuHh7Zk4cXylxzz77Gw6dYpEURS2bfuOp576v2r1oVy8eJE33vgnp0//gY+Pd7W/iKdOnUL79mEUFhayZs1a3ntvabWOW7BgIUeOJKJSqejRo1u1vvhqyh5lmzHjMfr06Y1KpWLfvt+YMePJaq+JOX/+Avbt24+Hhweenp7Vvq6mKDa2B1qtls8//5LFi9+rMv3u3Xv46quvMRgK0Ol03HFHv0rTx8REc999/x/NmjVDr9fz0UfL+PbbrdUq2xdffMVXX32N0WjC39+/WscIe6moBl77gOjk5ESr1q0ICgoiKDgY/1b+Nt9nt3zgc3d3w8nJ3KJrMBjsvubgiBHD6NUrDpVKxZkzSbz5Zs2XRsvNzePf//6Qc+dSUavV9O/fj5iY6HLT9u3bhzvu6IdarSYpKZlPPllRo7zOnEli+fKVZGdnVyv98OFD6d//DtRqNUeP/s6yZdXPLzc3j61bt5GXl1etL76askfZgoKCGD58qLUGsnLl5zX6fHNz83jvvQ+4cOHPah/TVGm12hrf5//+90cuXLgAQMeO4URFda4w7cSJ4wkICKCwsJC1a9ezbt36GpVvyZJ/s3fv/5rEIsmipPr/PAIDA7n99tu5vVcv4uLiiIqKxt3d3br/lg98LVu2xN3d3AF+5Yr9V5gfMuRO60oxW7Zsq/UIxjNnktix40eKiopo2dKPwYMHlJtu4MA78PJqUaf8tm7dzvHjJ6qVdsCAO/D01JGXZw4UNQ3qmzdvISUlFTA3S1bVjFsT9ijbXXcNonXr1phMJn766edaDdJJSEgkPn7fTf+FXJv7nJKSwokTJwHw9PSkXbu25aaLiYmma9cuqFQq/vgjqUbBtaRt275Dr9fX6lhRd/Z6A3vPuDguX77Mnj17+Omnnzhw4IDN537LB77GFBXVmcjIjqhUKi5cuMB///tjnc7366//48qVKzg5OdG9e7cy+93d3ejevRtqtbrO+R05kkhhYWGlaYKCgoiK6oxKpSIlJbXSPsSK5ObmceLECRRFwdvbi86dI2tb5EYp2+2390SrdSEr6yo7d/5S6/IeOnSE69ev1/r4piA9/UKt7vO5c6kUFhbi4uJSYeC7446++Pn5UlRUxN69e2s9L+/nn3/h0qWMWh0r6q6ih7v6jofOzk7os3PIuJTBpYsXuZqVRUHBjVdtSeBrQOHh7WnRogUAJ06crHMza3z8ftLTzc1CrVu3KhP8+ve/g1at/Oslv7NnUygoqDzwde/eFV9f8zSRU6dO1/rL6NKlDIqKitBqtYSGhtTqHI1Rtu7duxEcbK4Fpqam1mlKRnp6Ojk5ObU+vilITT1fq/ucm5uLyWRCpVJZuyVK69AhHGdnZ7Kzszl06Eity5ibm0dmZmatjxcNw96NHRL4GlBYWKh1GkVKyrl6Oael6c3DQ1fmBbihoSH1nl9lLNdXUFBgnRdYGykp5ygoKMTJyQkfH++bpmyBgQF4eOgASEpKrlN5bwVZWVm1Oi4j4zJFReb3WVbUFGapCV67ls3+/b/VroBCFLvl5/Hp9XoMhnzc3d3w9fW1a946nQcajYb8fEO9BaKrV68Wv4HbqUzg8/PzxdnZmdzcPLsEPsv1FRUZiYyMYMGCV2t1Hnd3d5ycnFCpVJWuZNPUyhYU1A4XF2cKCwvJyLhcH8V2aM7OztZaeklxcbHodOZ++kuXLsnyY6LObvnAl52tt/ZVNWvmSlRUZ7vN5WvVqhUARUVFGAz1M0E5Pz+/wmYhLy+ves+vMpbAq9W6MGhQ+YNtGos9yubp6YlGo6GwsJC8PPkybijNmzdHqzUPRc/KutrIpRH1r+FXbintlg98Bw8e4sqVLPz9/XF39yAgoLXdAp9lArjBkM+1a9caPD83t2Z2zc/CYDCQmnoek8lU53P9+WfdFy0uqSHLptW6oFarKSoySo2vAWm1WutDnjxgiNowKQoqtZpmzZrh6am79QMfmPtpIiMj8PBwJyYmmu+//6Gxi3RLuXbtGm+++VaTXOy3KZdNCFGZ+qvt6fV6Mi9n0qZdW3z8fB1jcMvx4ycwGAxoNBqioyueIFvf0tLSAXB396Bly5b1ck5XV1fra1dKP/1amoHqM7/KNMT11Rd7lE2vz8FoNOLi4mxdFk/UP0s/PVCmX1vcChp+SKc+O5tTp06RlpZOXt51xwh8v/12kMxM8+T19u3DGDFimF3ytXwxOjlp8POrn4E1LVq0sPYrlW56swRCtVplXbW+IRkMBZhMpnq9vvpij7JZ+lvVavVNv85mU3b9+nWKiooAc7OnEDWlKApXMjM5+Ntv/Lp7t2MEvoSERA4fPoKiKOh0OoYPH2qXfNPS0ikoKMDFxcU636uuOnRoD5jfMXbuXKrNvoyMy9aJwHV9Mvbz88XJSVNpmj///JPCwkKcnZ2tA3maCnuUzTLVQaPR4O9ft1plyQEcwlZ8/H70evMcR29v7zqv7nOzr4l667H/2zIcIvABbN68lStXslCpVNx2W3fuv/+eBs8zMfEoWVnmPCMiInB3d6vT+fr27WNttktNPV9mkM6pU6fJy7uORqMhIqJDnfIKDg7CxcWl0jTHjv3OtWvXUKvVREZ2rFN+9c0eZUtOPsu1a+bm5fbtw+r0+XboEG4dnCTKsjzkeXt707VrTK3PExcXW29zRUXTZalweHi44+HhUebHYQLf7t17+P77HzCZTHh4ePDII1Pp27dPg+Z59Ogx/vjDvFZmcHA7xo4dU6fzlVyH83//21dm/549v1pXdmnfvn2try8oKIhu3bpWua5efPx+6wtrQ0ND7NaEXB32KFvJzzcgoDWjR4+s9bliY3tU+hZxR3fq1GkKCwtxd3ejd+/ba32e3r1vx9tbAl9jsddanQkJCUTHRDF+4l+ZMvWhMj8OE/gA3n33Pet72Pz9/XnqqScrfMtBfdmyZRvZ2dk0a9aMv/zl7lo308TERNOnT69K1+HMzc3j8OEjmEwmvLxaMGzYkFrldd9942jTJrBaaXft2mN9rYy9mpCryx5lO3jwEAaDATc3N+68c1CtzjFx4ngiIyPquWRmeXl59TKVo7H98stuMjIuF7fY9KjVQ11YWCiDBw+qcFk00TgaYnH206dOs/artaz+7HO++Hx1mR+HCny5uXl89NEn1uWlwsPb88Yb8xk4sOEmX2/dup29e+Ot79J79NGav3DV3d2NJ56YTkBAAAZDAdu2fVfhOpzffruVCxcuoFarGTSoP/fdV7Mm3cGDBzJq1AgURanWF+Z///sjZ8+eRaVS0avX7Tz55N9qlJ/F3XePqveHEHuU7auv1vHHH2cA6Nq1a43zCAsLZcKE+3FxcbEO4KhPluXANBrNTd23lZCQyM8/78JkMuHn58uUKRNr1LTs7u7Gc8/Npm3bNnZZ3EFUX0PUAhVFITc3l+xr17h29WqZH4cKfAD79x/grbcWW5f0ateuLQsWzOP555+pdR/NPfeMqzR4fvDBx5w+/QdqtZqRI4fz9tsLq52Xv78/ixa9Sc+esQAcOHCQpUs/qjB9QkIimzZtsdZ0HntsGqNGjahWXgMHDuD555+hRYsWxMfv4/r1/CqPSUlJYd26/4der0erdWHChPuYOnVKtfIDc032k0+W8swzT9f7lAB7lC03N4+1a9eTnZ1d4zxiYqJ56603aNeuLYmJR7lypXZrXVYmLS2dnBw9arWajh3D6/389rR27df88ccZVCoVPXvGMn/+K9X6d+Tu7sb8+a/Qs2csGRkZnDx5qlr5ubu78fjjj7BgwatVvvxZNE2KopT743CBD8z9fXPmvExCwlEURcHDw4O//nU8P/ywjXfe+WeVzSju7m7cffcolix5hz17dvL8889U+jqdM2eSWLz4PdLTL6DRaLjrrsF8/fUaxo+/t9J8pkyZxMqVn1jf7n3o0GH++c+3q7y+pUs/4rvvvsdkMtGypR8vvvg8c+Y8W+Gbp8PCQnnttVd44435tGzZkn379rN9+3+rzMdi3br11jdpe3h4MHPmdP71r0WV1uBiY3vwr38tYvnyD7n99jg0GjVGo7HaeTalsn3zzX9Yu3a9TR6LFr1JWFhouenNzex/5/33/0V4eHtOn/6DlSs/pyHmMx08eIiTJ08D0Llz5zI1Un9//ybVN1sZy7+jixcvolarufPOQaxcuYzBgwdWeMz48ffy9ddruPPOQeTm5vLxxyuq/fqnZ5+dzfTpjzJ69EhmzXqShx9+sL4uRTQyh23sTkhI5NFHp/Pkk39j1KgReHp64uHhwV13DeauuwZjMBjIycm1eYVJ8+ae6HQ66yRyi4KCgiqbqXbv3sOLL87lmWeeJiKiA23btmHOnGf5+9+f4M8//yQl5Rx5eXl4enrSpk0grVu3ws3N/DRrNBrZsWMnL788r9oL9L7wwlwKCgoYPXoU7u5uTJhwH3ffPYrz59NISkqmsLCQwMBAWrb0o3XrVmg0GoxGI3v2/Morr7xOz5631eh+Llnyb3Jycnj44Qfx9PRk8OCBDBzYn4yMDNLSLpCWloazszNBQUEEBLTG01NnbeK4cuUKq1Z9wdat22uUZ1Mq25Il/6awsJDJkyfi4eHB0KF3MWBAf9LT00lKSiYvLw8/P19at25Fq1at0WpdUBSFhISjLFy4iGbNGm4qww8//EjXrjF4enry8MMPMnz4UPLy8tBoNLRu3YoLF/5ssHtf33bv3sMrr7zOs8+aa+ERER1ZvPgtsrKyOHv2nM1nGRjYGp3O/FleuXKFpUs/Yt269QwZMrhaeQUEtLb+O9dqtRW+K1DUlYJKZd9XEzls4ANzM9Ubb7zFihWfMXHieIYOvZNWrVqhVqvRarVotdoKhz4rikJWVhaHDh1h8+Yt7Nixs8r89u8/wEMPTWPSpL8ybtxYWrduhYeHO+3bh9G+fViZ9CaTiaSkZD7//Es2bNhY4+ubN+91EhOP8cADfyU0NAQ3Nzc6dAinQwfbJi9FUUhJOceKFatqlY/FihWr+O23gzzxxHR69OiOs7Mz/v7++Pv707171zJ5pqdfYOvW7SxbtqLBV9y3R9k++OBjEhISmTHjMSIjI9BqXQgJCSYkJLjM+S9fzuTzz79kxYqVgHmYfUP55pv/4OLizOOPP4qvr4/NwCVFUap872JTs3v3Hk6f/oN//GMmAwbcgYeHB97e3nh7e5f5LPPz89m//wAffvgJCQmJNconKekssbG3oVarMRgMZebNivrScItRV5hjVFR3O78CsGkLCwtlwIA76NAhnDZt2uDqemOliCtXrpCefoHExGMcOnSYM2eS6pRXXFwsAwb0p337UOsQa5PJRFpaOomJR/npp1/qnIdFVFRnRo4cTqdOkXh4uAOQk5PL778fZ8uWbfW+cLflPnbr1pXWrc0TyC3XlpSUzI8//mS3xcIbo2xhYaEMHz6ULl2irZ9tfr6BU6dOsWPHT3V6aW1tubu7MWrUCKKjo1Cr1RQWFhIfv/+mqe2Vx3JNPXvG0q5dW+tyfmlp6SQkJLJly3YuXrRd4WjZsg+Ii+vJuXOpzJjx90pf2GwZcRsfv79Wb5cXZZU3itN2m1Jc+1Ns9rm5OdfbQBgJfEIIh7Ju3RdERkZw+vQfjBt3f2MXx+E0hcDnkINbhBCOKSqqM82bm6d1yKukmgpzH589SeATQjiM6OgovLy8MJlM1ilNojFZanW2vzc0CXxCCIfRt29vmjVrRl7edY4d+72xi+NwyjZzlq7q2afqJ4FPCOEQzIONzAtcp6ae54cfdjRyiURjkcAnhLjlhYWFMm3aQzRv7klhYSG//LKrwafQiLJUKlWZASq2lUD7NHU69Dw+IcTNY9SoEahUqhpPK4iJiebpp/9BeHh7FEXhwIGDfPrpqgYqpahK6eZO28nr9pnTJ4FPCHFTiI3twdixY3j44QfZtGkLa9euq7TW5u/vz8SJ47n77lHWuZSnT//Be+99ILW9JsSeK7ZYSOATQtwUTCYTKpWKsLBQZs16ghkzHrNZEs7Czc2N0NAQAgIC0GrNL1NWFIXExGMsXLioxiu4iPrTEK8gqg2ZwC6EuGlMmTKJsWPHEBISjEajqTK9yWTivWr6swAAIABJREFU/Pk01q1bz6pVq+1QQlGZ8gOfUqafz3YCu3mrm5uTrNwihHBclmXnbr+9J35+fvj5+aLROJGfn09mZiZXrlwhMfFYoy6NJ8qqqMZX+cot5q0S+IQQQtyUyga/qmp8smSZEEKIW4qd1ytDAp8QQgg7aQqDW1QqlQQ+IYQQ9lF+U6V9g6Gnp6dMZxBCCNGY7DRp3cmJ0NBQevfpLYFPNLy4uFgWLHiVli1bAlBYWMiKFat4//0PGrlk5fP392f69Efp1SsOX18fXFzMc8EKCgo4ceIUb7zxTxkp2ABmzpzO1KlTcHZ2BuDSpUvMmfMy8fH7G7lkomHZp8bXpk1bunbvzslTpyTwCVHS5MmTePjhKdaVPkpycXGhVauWuLu7AeYh9f/3f08TG9sDjUZDYuJR5s6dz5kzSfYuthCiEs1btCAkNJTc3FwSjyRI4Ksvo0eP5IUXnrN+KVZFURQMBgPXrl3j6NHf2bx5Czt27GzgUorKzJw5nQcffACtVlut9I8++jC9esVZ+y1iYqL5xz+e4IknZjVkMYW4xTR8U6ePjw+enjpOHD9BTk6OBL7GolKpcHV1xdXVFX9/fwYO7M/Jk6d499332bNnb2MXz+EMHjyQe+8dZxP0TCYTqampHD9+ksLCQoKC2lnf3g3g4+Nt01mvUqlo27aNXcstxM2ksUZ1enp6YlJMXLmSCchanU2GWq0mMjKCf/5zAcuXr2TFClk93p7Gjh2Dl5eX9fecnBw++WRFpZ9DZuYVFEWxBj9FUUhNPd/gZRVC1IxarQZFoaioCJDA12AURSE/Px+TqfwnHI1GjVarLTO819PTk2nTHiInJ5d169bbo6gOLyqqMx06tLf5LPbuja/y4ePjj5fTokULmz6+f/3rvYYurhC3mIavBRYYDCiKgktxi44EvgaSl3ed119/s9J3h8XG9mDixAn07dvHuoo8gE6nY/LkiRw4cFAGSthBSEgwzZu3sP5+/fp19u8/UOVxZ84k8dhjf2vIoglxSynZOlJiKw0d/K5evYrJaMLPz5dLFy/KBPbGtH//Af7xj9ksXvwuer3eZl9gYABjxoxspJI5Fj8/X5ycbqz0X1BQSGZmZiOWSIhbV3lrdTa0jIwMMjMz6dypM15eLSTwNQVffPEVa9eup7Cw0LrNycmJXr1ub8RSOQ43NzdzH0AxgyGfa9euNWKJhLg1NdbgFoPBQOr586BWM2ToUAl8TcXGjZtJS0u32ebt7UX37t0aqURCCNHw7BELXVxcaNumDT7e3jg5OUvgaypSUlJITj5rs83DQ0dgYEAjlUgIIepXeWt12m6q/yjo5ORE56gogkKC2b17F5v+8x8Z3NKUZGVlNXYRhBCiEZUc6FL3QS8qlYqIiAjCwkJI+uMPTp44icFgkMB3KwkLC2X8+Pu4/faetGrlb50uoSgKeXnXOX/+PFu3fsfatevIzc2rdT7+/v6MH38v/fr1oU2bNri5NbPmc/36dVJT6yef0mJjezBu3Fi6d++Gj4+3dbK5yWQiNzeXM2eS+M9/NrN+/TeVnmfevJcYN25shftbtmzJsmUfltleeu3I0qv15ObmVTqSt6r07u5u3H//fYwYMZS2bdvQrJn5vppMJrKz9fz++3HWrVtf5xV+7PV3UtnnVZ/XI24e9u7jCw0NpUPHDpw/n86J4qAHMp2hSdFo/n/27jwsynpv/Ph7ZkBWR0CRRVBQkXAFDQ1zX3M3j9UpS0t78nRsOz+tTpl12nxOmc85mfU8dtJWW7TMLS01N9zNfUFDBUIEBAHHYROY+f0xCzMwwLDNIH5e18WVc6/fe+n+3N/1tr4cxcVFlVp72uLl5cnzz89l3Lh7cHd3rzRfoVDg5eVJZGQXIiO7MGPGNJYv/5wvvviq1ml84YW5TJo0HrVaXWmeQqHA09Owny5dIpg69V4++mgZWVlZtd6PpYCAAF599WXi4vqZBzC2pFQqadmyJdHRvejVqyczZz7KRx8tY+PGTfXaryONHz+Wv/51NiEh7SoVBymVSnx8WtG//1306xfLr7/u4NVXX691UHLUfWI5hmlV18vyeA4f/o1//vO9Wu1D3JpML1j2qV+QbN++PT179SQz8yrnzhmGKjORwNeEdOnS2eq3VptPUlJKtev07NmDl156nm7dulbxravK/Pz8eOaZObRu7ce//rXErnUCAgJ4663X6Nevr137MQ3f9fe/P89nn31h1z5sGTp0CPPmPUf79qF2LW/a78svv0CrVmpWrvy2zvt2lCeffIIZMx6xa5xXlUrFyJHDUatb8txz8+wOfo66T4YOHcJLLz1PUFCgXcurVCr69evLO++8zd69++xaR4iaBAYG0qdPH65f13AuIYG8CtVIEviaiKlT7yUkpJ35t16v5/TpM6SkVB34OnXqyGuvzadLlwir6SUlJfzxRyqJiRcoKSlBrVYTFRWJv7+/+aHn5taCadP+jEajYfnyz6pNm5eXp82gp9frycu7TlJSMmlpaYChT1yXLhH4+vqiUCho1UrNgw8+gKtr7W+1AQPuZv78FwgICLCaXlRUxKVLSSQnp1BWVoa/fxsiIyPx8WllTl/Lli158snZ5OTksnnzL1brHz163Con0ratP3feaRh9BUCj0bB//0Fu3rxptd716xoyMq7W+jiq07lzR+6770/moKfVarlw4aJ56LPQ0BAiIiKsgqJCoaBPn948/vhM3n9/aY37cNR9UtX10ul0XLmSzsWLl9BoNKhUKsLCOhAW1gFPT08UCgVdukTg4iKPI1F/CoWCrt26UXzzJqdOnSInJ6fSMnKnNQFeXp5MnDiBli1bmqdpNDfYuXN3tev8/e/ziIgozyXq9XrOn/+df//7A5sDXc+e/TjTp08zF1O6ublx331TOHz4CCdPnqpyXy++OI++fWOtgl5ubh6fffYlK1bYfhjOnPkoM2ZMw8/Pj7Zt/as++Cp06tSRv/3taauHqE6n4/DhIyxZ8mGl9Hp5efLss08zZcokc11Sq1ZqZsx4mN27461yRuvWbWDdug3m30899SS9e8eYA19RURGrV//Q6N+BU6mUjBs3hpYtW1JSUsK2bdtZvPh9MjMzrZYLCAjgH/+YT//+ceb+hq6urowYMYy1azdU+3LkqPukQ4cOPPfcU1bXq6b9BAQEMHfuswwbNhQ3txZ06tSxmrMlmq+GH7lFc+MGR48eRXP9us2iVenO4GQBAQG8994/6dWrh3maTqdjz569lXIqlv7619nceWcfqyGADh48xKOPPl7l1x2WLfuE99//0KreMCgoiEmTxle5nzFjRjNs2FCrDt6ZmZm8/PKrVQY9gBUrPmP+/H+QkvJHlctU58knn7B6WOt0OjZu3MTjj//F5sM3P7+AhQvf4YsvVlJcXJ5T69y5Mw8++ECd0tDYTF/mKC6+yWeffckLL7xcKeiB4XzPm/d3TpywPu6goECGDx9S7T4cdZ9Mm/bnSsG1pv1kZmbywgsvs3z5pw3aCEo0XbaCUEM3eNHr9fx26BB5ubnodDqby0jgcxIvL09mznyUzz77D3ff3d8cWPR6PWfOJPCf/6yoct1OnToyePAgq6Khixcv8c9/vlfjA2TVqu/Zt++A+WZTKpX07RtLhw4dbC4/duw9qNXlOdEbN27w8ccr2LNnb43HuGfPXpYv/wyNRlPjspaGDx9KbGwfqxzm4cNHWLjwnRrXXb78U86eTTD/dnNrwcCBd9dq/46k1+vZuXMXS5Z8WO1y+fkFbNq0mYKC8uvr5uZGVNQdVa7jqPukZ88eDBp0t9XLUWLiBbv2A/C///sxW7ZsrfIhJZo3hUKBndXODUYCXyPx9PRgwYKXOHAg3ubf3r07+dvfnrZqxafX6zly5CgLFvyj2sGpJ04cZ9Wxvbj4Jj/9tNnuAa23b99p9Tbfpk0boqN7VlquX79Yuna9wyp9+/YdqNVXI378cR379x+s1VvdqFEjrD4RpNFoWLNmrV0P0fz8AnbvjrfK9YWEtKNfv1i79+9IOTm5rF27oeYFgQ0bfuLKlXSraR06tK9yeUfdJ4MGDaBt27bm34WFhaxZs7ZWA6x//vlX8kmn25ijRzKTwNdIFAoFHh4eeHl52vwz1SeZ5OTk8O9/L+Wxx56o8YHRrVtXq7f49PR0tm7dbnfadu3azbVr5RW+Hh7uVsVUJrGxd1oFoBs3brB9+06792Ny5MgxioqK7FrWy8uTLl0irHJ7Fy5cZNOmn+3e35kzZ61ymS1btqRjx6ZZf3ThwgW7cs9gCOoVg4O7u3uVrUEddZ9ER/e0aiyUnPwHa9eut3s/YMiJJiScq9U6orlw/PidEvicLCXlDxYt+hdjx06qts7MpHv3bpW+8n3u3PlqGzhUlJ9fwNWr5a0TVSoVAQFtKy3XoUN7qwfa1atZ7NpVdYObqly6dMmu/ogAd9/dH3//8sYwZWVlnDp1plb727//oFXga9GiRZMc+q2srIxz536v1TrXrl2zyj17eXnSvXu3Sss56j7p0KEDQUFB5t96vZ5z587Vqc4uJeUPq4HaRfNjb1eaxiaBz8natw9l9OiRdOrUya7lg4OD8PLyNv8uKSmpcwMSS76+PpWmBQZaN0tPTb3c6I0QQkLa4e7uZv5dVFTM+fO1Cw4VqVQqWrb0rnlBBysrK7PqVGuPa9dyzF+Rro6j7pPw8A54e3uZf9+8eZPkZPuDqxCGVp2OJd0ZGomt4au6d+/GmDGjGDVqJAEBbY2Vugp69uzOm2++xltv/XeNH0D18vKy6hPn6urK7NmPM3v24w1+DJbdK8AxY4l6eXlZNZLw8vJk4cI3WLjwjUbft6OVlJRW+iJHQ3HUfdKyZUvc3MpHgSktLSMrK7tB9yGaD2d9lqgiyfE50OnTZ1i06F88/PBj7N27z6oVW8eO4cye/V81jt7Rrl2wzWGgGlrv3jFWb/IlJSVkZzf+x1nbtGntkONr7hx1nxj2Ux5gCwoKyM6WwCeaNgl8TmDql3Xo0GGrN6DY2D48++zTTkxZOVdXl0rl8U3lbU00HS4uLhVG89FJtwTR5ElRp5Pk5xfwz3++x/vvLzY3SVcqlYwePYKDBw9VOWK9qY7H9DZfXHyTvXv3kZ+fX6/0XLhwsdr5SqXS5sDGDe3GDS1lZWU1Dh9WW0ePHm+I5N0ynHWfuLi44OHhUa99CNHYJPA50cWLl/jmm+949tmnzA8LPz8/HnzwAQ4cOGizIYlWq0Wns8x56Tlx4iQrVnzeoGk7ePAwN25ozf2z6tNARKlUolDYV7hQVFSETqczBz69HrZs2caWLdvqtO/blaPuk5SUP7h5s8QcYN3c3CvVDdurqbT4E82fFHU62cqV33Ls2AmrYsTo6F7MmPGIzeWzs7OtRu9wdXUlMNC+kfBrq2IuKyQkpIolqxcYGGjXlwcA0tKuWDVpd3d3sxq8W9jHUfdJcXGxVSvTFi1cCQuzPQpQTQICAqR+97Yk/fhuS6tWfW/VYtLNrQUTJ46jZ88elZbdv/8geXl55t9KpZKOHcMaJV0Vm7+HhLSzmaaadO/e1e5i0pSUP6z6/LVo0aLOD9LbmaPuk/PnE7l+/br5t6urK3fcEVnr7ZgGLhDCESTwNQG//rqDX37ZZtUoIDg4mOnTp9lcvuLILhERnRk+fGiDp6tih+K2bf1rHBS5ok6dOtKvX1+rLgrVOXr0GOnpGebfCoWC3r1jZOT+OnDEfZKSkkJ6uvUwat26dWXAgNqNjzp58kTCwqoefk00D02lOFsCXxPx3XerrYajUigUxMX14957J1Va9siRo1bFWL6+vvz5z/fZXZxor92791j1yXJxcWH06JG1yvXNnDmj0ggiNTl69JhV8VloaAgzZ86o1TaE4+6TAwcOWY2N6ufnywMPTLV7/U6dOjJlymRpFCMcRgJfE3Hx4iV+/HEdxcXF5mlqtZoHHpha6UG1YcNPnD+faP6tUCiIjb2Tl156sVb7nDJlMp9/vrzKAZxPnjzF8ePW9Y/BwcE888ycSh8bteWZZ+YwevQou3N7JuvX/2TVsdvQ2nUkTz31ZK22M3v246xY8XGt1mlOHHWfbN263SrXZ3hpu4u//e2ZGrdt63uB4nbj+FygBL4m5NtvV3H8+EmraZGRXfjrX2dbTcvPL+DHH9dZjUepUqmYOHEcK1d+xt13x1W7n6lT72XVqq957bX5hIRUP4blmjVrycwsH69RoVDQt++dLF36ryr3ExAQwLvvLuTRRx/Bza0FN27cqNWniS5evMSmTT9b5SLc3Nx4/PHHWLr039XmOE2fe9q0aR1z5vwFPz/fKpdt7hx1n6SkpLB58y8VrlcLHnnkId59d2GVL0l33x3HZ599Qr9+fVEoFFy9erVWY3U+/fRf2bt3B6dOHWHv3h08+eQTdq8rnMN2X2DHN26R7gxNSH5+AT/88CN33BFJq1aGr1+7uLhwzz2j2b//kNUo/j/+uI7Q0BCmT38YN7cWAMbhz3rw0UdLyMrK4ty5380PPU9PTzp0aE9wcBCenvYXdR08eJgNG36qtJ877ojko4+WcPlyGomJFygoKEClUhEW1oGOHcPNjVmKi2+yceMmhg8fav6itz0++mgZ7doFM378WHOOUaVSMXjwQAYM6E9a2hXzfsGQOw4La09gYJA5ncJx98nnn39JTEwvcxADQ0OXMWNGM3ToYC5dSiI5OYWysjI8PT2JiOhMSEg787XNzMxk+/adTJ06xa79TZ16Lw8+eL+564RarWbatAdJTk6p9gPOoilSoFDoHfppIgl8Tczmzb9w9939mTCh/IHv79+GRx55qNLna5Ys+RAvL0/+9Kd7cXMrH9hZqVQSEBBgV3FkaWkZJSXVD3q8ZMmHqFRKpk17sNJ+2rcPpX37UJvrlZWV8fPPW/j11x11alSxcOE7uLu7M3z4UKvPOKlUqmr3a8meAZ2bO0fcJ/n5Bbzyyuu89dZrVsEPDJ9O6to1iq5do2yue/26ho8/XkHbtv4259sSGBhYqaWwp6eHNIJqVhQ0Vm5QijqboE8//bxSQ5c+fWKYNevRSsv+938vYuHCd0lNvVyrIcWKioqIj9/L88+/xNGjx2pc/l//+oBFi/6Hq1ez7NpPTk4OS5Z8xCuvvGZ3mirKzy9g7twXWbLkI3JycmpewYJWq2Xjxk3MmfNcnfffnDjiPsnMzOS55+axZs06u76/qNfrSUg4x4svvlyrjxuDoZ9ixWLRoqIiMjIyqlhDNAW2W3U2Xm5PqVTh5eWFl5eX1cuz5PiaIFMd18yZj5qLp9zc3Lj33kns3Lm7UjP1NWvWsmbNWqZOvZfRo0cSGRmJWt3S6kIXFxej1eaTkvIHhw//xurVa8jMzKxVur777ns2btzEAw/cz9ixowkJCcHT0wOFQoFer6ewsJD09Ax2797DypXf1nr7VVmx4jO++24Vf/rTFEaPHkF4eJjVVxz0ej3FxcVcv36dpKRk4uP38cMPaxr9E0q3GkfcJ/n5BfzjH2/y5ZcrmT59Gnfd1Y/Wrf3MOU2dTodGc4NLl5LYsGEj33//Y52O5dtvV+Pv78+f/3wfarUajUbDV199U+ftCWdqnJydp5cXQUFB+LfxR6FUcC07mytXrqDValF0795bRh4WQgjR6GyVNlSeZsoB6q3me3q61qofYK+YGKKiorih0aBQgLqlN4mJFzhy5Kjk+IQQQjiPKZZVjon1ywn27NmT0ydPcvbsWUpLy+jZswddIiNISEiQwCeEEMIxTNUi9ql70HNxccGthSsFBQWUlJQYqkNKblKmAxeXFhL4hBBCOFNVwbDuOb7S0lKuXEmje4/uFN8sRq+HyMg7KCoq5Pr1PKnjE0II4RhVdWC3nmz5W1/nOr5WrVoRF9ePsLBwUCi5lJTEb4cPkXMtR3J8QgghnKfqks/65ck0Gg179+6jRQtXSsv0/HbokPmLJRL4hBBCOI1CUV3wqzu9Xs+NG1qKim5SUlqCNj/f/AUc6cAuhBDCiRp5kGpF5X1I4BNCCOEQTvken43cpBR1CiGEcKKqyjkbbkQXlUqFj48Pnp6eqFQqCXxCCCEaX9X99xpvMGrjnmnt50d0dDQ+Pj7o9ToJfEIIIRqf/Z3XTYGw/sFQpVKhVCppFxqCTg9HjhxBc/26BD4hhBDOVDnANURLTxdXV9r6++PVshXXruVy5sxZ/khJoaSkRBq3CCGEcAyFQmFHA5eG+UxRzx49GDd+LLqyEq7n5dG3byy9oqMBadwihBDCQRp6aLKquLq60rNXD44dO87ZM2cpKyuje4/uhHfsyDkZpFoIIYRz6Ru8E7tKpaJFCzcKCgopLi6mrKyMosJCVEoFLi4uEviEEEI4Ru2+zlB3xcXF5Obm0a1bFLqyUsp0OiK6dKG4+Cb5+fkS+IQQQjiX7VhY9yJQvV7P/n376NmrJ9ExvVEqleTl5XLixElKSkok8AkhhGh+rly5QlFREX6tW6NUKsi5do3s7GuANG4RQgjhVI3TgV2n05GdnU12dnaledKdQQghhEPUrn6v8eoCJfAJIYRoghpvQGsJfA4wcc58/jrJ2akQQtRV3PS5vDC9n7OT0Uw1fivPihq1ji9u+lxGhbtXnpF9gtc/3NiYu64VW+kszEvm+OaVbPm9lhsbNI0XBgeSsWsxX+xuuDSK29ik2bwW3cZ6WmE+qae38uOmM+Q6J1VCNJCKdXwKFAp9o3Z7aPzGLU0syFXJIp2+Yf0YOX4IcRP+TNbibzlWm+3crPBfWwZN44VYiF+8kv11TK64zRQms+Vd0/0SQMyYEQyLGc+DrkV8tO6ikxMnRH1UDHANM2RZdaSo04bc5IOs+vo8ud7t6NG3lisfWMm7by7miwPVLOPrjYeqPikUt7dMjm1eyZrftfh3jqWHs5MjxC1GAl9VckopBTlDoslKKikFlQpvZydEiHpx/FfZndyPbzx/fa0dl7+5SJsJ/Qj1hsJLP/Pul0cguA9TJg3hjjbuuCqBgmwSDq5l1e7M8tX9ujFq/BCiO/jgoQRu5pN6ooHqPe5qhbfuOsnmOr7x/PW1SLS/VMzN9WP6CyPwPv82H62zOKbXl7G+0kYNy4Z7ALRh1GvzGUURSZW2aSG4D1PGDaRzoJfhGHWlFOakcHzrt1b1jxPnzCfk8iccVkxmaI82hmVLisg4tpZlm2soCvPrxqh7BhAd1gYPV8OkQk0mF+K/Z81veRX28SHxJZMZ1asd3i0M6dFePsGWdT9zKqdCuqu7fndN44VBEL8pk4jhfQj3MdyKhXkXif/yW/ZbbquSToyafk/5ddcVkXXqZz5ae6YWx2Pv9TQd97dc8JtAXHsvKEhm06KVHCaA2MkTGNQlAG8Pw7IlBcnEL1pJPAA+9Bg1jqHRYfh6VHOu6iiulTfkp3HO9Hv6XEa1PF+5amHSbF6L1JYXldp77ruMYPqYXoT7GOu/C7M59fMy1pysJlHVXfdBj/LyUC/Offkhay5ZruTD2NlziL65k4Wf7sWe8xY3fS4D2cOOgmhGRrXBVZnNsde/o3T2HGI5wpJlP1s/AzpO5plHwshO1xIRAPvf/IQt5pmGa+5zaSVLvk82Tx01ez7Rhdt494uD5mmdR05j7J1h+LYAdEXkXjzAqq/3kmFxLHVLu+F5Edh3MlMGR+Lvabwm2efZ/+P3xF+p5pzfQmwPWdbMGrfYm4SQ4d3RHl3Jkh2F+IQVg18/pk8bQeC1I2xe/jPHrgQQe/9URg6dyv0ZH7Lqd4BOTHxwPN0VF9nx5Ur2J0OPUZMZEzeeewvTWLEjr6YdV8GH8P5DGDMgBO3J79nUAA+ocgf54t2DlR9EVTGeh5DC88R/F0/875n4hvVj4MgBxE2djfu3y1hv8QDx6Pwgg3LPsXX5Mo4VhRE3YhxD+07gofR/8/XxqnZiOI8x7pkc/nkl+48mkxvci6FDBhA3bhbTXawDg0fIA4xRXGP/D58Q/3sx4b0HMGpEHyY84IL2fzeSZJHu6q8fgD/9x/qQuuc7luxLxi36HsaO7MPQ+0Zwbtm2Kl9eYh6cQFxAFru/XMmOZAjvHU1Uq7odj71cQkbQ48ZxvvhgJ4XqMIoJY9R//Yk4Xy2n9n3Lvj0XyfALI6ZfZ0zNpDpPeoAJ3Vy4sHMlX+5Lhu4juHdMPyZMLuLyip11fznzCyNu0GgGhmg59v3GOm6npnPfi4cm9CMway9ffLmTJMKIib4Dn2rTVcN1332M5NjxhPfrBpfOlK/XcQidA/NJXrcXqMV5axnNoJaZbF6+jOQWYbiRR0ZCGtGDQ4jzw+r/3Zi7wvC9lsyG74toOacXIUOBHcaZd3Um0AM8ArrjS7Jx+yMIb1tExtbyoId/HFPUl4n/5kOL580AJo06w7ItefVMO/j2n8b04YFk//YzyzafICO4D/dPGcGw+6aS/v73XKjLZb4FOGDozkoavyCvTS9ee22+1Z91034fPK7v4IsdyeSSSVJyHjH3xBF+8zxrVvzMsSsAmRxetZLjGT6E3WVoUuw7Zigx6kz2f/09+5PzgDxObfmMrYnFhHYdgG+d0zmH6SO74ZOfQkKKtiHOQJ3F3BNHuO4im5d+T/zvhpxSbvJB1v9nLQn5bbhjgHXzau/Sy6wznbOcZPav2kOy1ougqG5V7sN3zFBiWl1j/6efsemo8X/6KyfY8fVK9qe6EN5nvNW59Ha/zlZzevJIOrqRZVsuUty2M3E9LdJdw/UDwMON3MMrWbXPsN+M4z/z4+lMXNuGEVvNeQn186Iw8wI7jNc96ehONu04U6fjsZev+3W2f7GTpBzISE4md9AQ7gws4tTaZazZc9Hwxp+TzLHN2wwvM373MLynDxn7y48v9/Q2Vmy9SHFoJAP9apkAjzBGmf4fenoaA/3T2PHZMtbXttWxeXs1nftQfLyLyPjdcMzkJHNs+8/sqCa3V/N1P8H+lDx/kVxpAAAgAElEQVS8g3sQY7FeeEw7fLUZnDpOrc6bh18ZCd+s5dgVyE1ONlyD3QlcLg4gbKBliO5FVJAXGRd3kpRzgPQcF9qElt+HMR39KUtNQ+sXWH7fDQ2hdek1Ui1f+lrkcbjC8+Z4hguB4XcaFqhX2nsxJi6MooS1rNh8wnAsV46w6usTZKg70P+uGq7nLazGz/M1gsYPfNkneP31t63+TEVIBkVkJZ+w+N2NqCAvclO2VXjDyWN/Zh4e6iB8gdj2ARSmJbCjQo7sWHIWhV6tuKM+6fzPt8SntSJ2wsNM71/tO24jMp2HAzZalV5ka0oeHv7hVg0btFcTKpyzE2iLQOVadS1QbPsASjIusKVSzjaPHecuU2j5MAC0V05VTs/xJLIKvfBpb5nu6q8fALprXK6QM8/NLaRQqcJGJxizUynZuITEMX1MLwLreTz2KsxKsjruoZ0DIO0Ma6oKPHeGEFh8mYSKJQ/Hk8gq9MantjdoYTJbXn+b1z9Yye6kIjz82xFUn8q9Gs/9aS5fdSEkbhpjowPs2KB91z3paBq53oFERZvm9yIuzIfc5AOcgtqdt9xsG0XiBzl1OR//0CGEmyYNiiGsRRpnNxsDVobl/zvdiApSkXU2gazi1oacIBAX2hoyk82ZQgByLld63twoLAIX491an7T3jCLIO4/L2ytUS+QcICvXHZ9AZz2HHOG2q+MDKEJ7zvK3Ny4q8O01h9d62Vi8MI87AHcX8AgfwWuvjbCxUDb+9UnSlYvEr72I1vM5JvYeQvi+tYYiPIcynIfSkmSbc3P1lRs2FBacsblsddxdoLSw0PZMHVAhCFW7DxXYe/32AxQXcqPWKYakjd+x4eY4hvYZz+yYoWScjWfd2iNk1OF47FWkOW/1u6WHC6U3qtgPgIfKnEsbZWN2Vl1v0JxkdnyxFv9n/0z3AUOI/72ORaY1nvtk1n+3kaLxQ7hzwuNED8/kXPwG1hzKrGJ5O6/7pZ1cyJhD95794PhBiI4iyDOThB3G+7wW561Qk27z2I8dSGbgI+2I7QhJl2BUVDuKUzYa610h6Vgmud0DiOoIp7x7EKTKYN+Bg7hEDSEutB+gJdzfnWundlofQmENd2t90u6pQoUPPZ6eb7OVbqEmEjhoY05zcFvW8ZVSmmP9Gz1kHa+YM7Q2UQeFSdYVzw3tWH4hE0O8CASSyEJbGOnAVp5aSsvAReEDVK6vDHd1geJii0r1uikqrWamhysuN4utHpAurmFAxWDcEg+3Uoo0YO/1q588Tm1ZyaktPoT3H8GEIfcwvaUL7355sBbHU7vrWaqvcA10NaxQRoW+dw3pIltPptF5UDdGdtlprjM9pylilNoFX2iYTu05Z9jyxRm2+Bnri0c/zHRlVXWk9l73PPb/kUlsdBQDOQgxHXC7vKe8Pq4hztulnSRnzyGiXzfICyW8bT7p+y1KlS4lkK2NpE0PH8JdW6PK+M2wr+RMBvYOp0fHUtp4ZnLht1rutz5p1wGUN3K5vTTOINXVaYKN9Y+QlF2Kf+A91dbFnLpqKK6IqWaZ+orx8oD868ZWc6Wgd8cnOMx6oehw/D0aY+9nSM0pxbfDCDpXmteJ2HY+aLMS650TTczOw6NdFEMr1Tn5MDQ8ANecDCzbxfi2u7NSenzHhBHINS7vAHuvX8PII2nf9yw5k41HUGfiqM3x1O96nrpa1X6MzmaS6+FPeHQV8+spd8cxkrU+dB4wxHyec0tLoaUP1rv0YWxgm8obqI2cZPav+pDTOe4Edqlq2C77r3vu5gRSCSBi6N1EBBaTfGxv+cwGOW95xF/KxDu4B3FDOxGYm8x+q7rJM5y6ko9/4ABi23mTnWx8ed5xmWuerYnq3RrfnIwaWhbbUJ+0H0om+2YbgsY05yJNA4UzKvUqaIKBD+L3niGrdS9mTr+HmGDDtMAufRj70KNMMXYoT9rxG0nKTox8cjJxYYabxTcskoGTH+ehkaYtjWDmy/N54ZFajrHnF0bc5NmM7KQi6dge49vzEU5dzse3yzju7x+GLxAYfQ8zh7fDrbpRWmzJ1FLo4UNodx8IDiO8iodn/K4zZHlFMuXJyQzsEmA8xn5MeXIyUS2S2ffzCdsr1kLSD7+ReLMdcTOmMba34bgI7sXY6Y8SF5jHsR3WzcILW4QwaeY9xIT5YBhBZBozY1qTdXKHuXm4PdevPkbd/ygT+5endUqIDyXXMzlXq+Op3/VM+uE3kkqN+zHVgQV3YuDk8QwEuLSTw0kqIkbNZooprX5hRA2YzOyHTMXz3bj/2fm8/OT48voou51g89lMXEO7MbKLcdK+i2Qo2hE703je/cKIu38aUX7VZYOrMoL7Hxtv/n8rMHoyIa1KuZ5xvso17L/ue0lIKyWwdyyBN42NWkzsOm81y92cQGqLDgzt4mNo1FJh/qmkLApbRRLmmUmSeWjB30jP8aFzFx+yLu+pfa65Xmnfy+6z2bSOedSi7jqAzn3v4aHHJpvrpXtMncNrL89mYsfaJq5p0OsrDkXmhCadNImiTht+38g360u5d2Q3Jv5XHyYClBShzbrIblPNec5Bvljpwv333sXQR7oxyqqPWx322aYXr1lUTpQUZHPul69Yc6i8iOvYNxsIemwC0cOnETUSKMwj8cABLt81pHadiA8c4HSPycT+aQ6v6fJJ/OXfJB2ysdyljXz0WTpTJg1h4APdGGbss6bNuMimlWs53CBdLQ7y9adaQ3/IcdOInYD5PP62/udKY5Vqf9/AhVb3MOaRPkxUAoV5JP22kQ1bLCrl7bl+9XADL6KHTyNmpDGt2efZutrU/cH+46nf9TzIF8tLmfKngXSf8Dixk0z7OW+sS8pj/xdf4XL/ZOKGTKOH8WWspCCb5OOn6n8SgNzNh0nsOt6Q6/t9J7k521i104cH7+5jOO+6UgozTrA5oQNTutS8PWs3QN2LUTN6GeqrSorIOruNVVuq6SZUi+u+/2Qa/Sd1ouS0sVGLWUOdt72cunwXoSGZxkYtFRy4QMagMEKsGrDkcSozj5g2kH2qLt2h6pf2C+u+Y0PJZEb1GM/svuMN6xbmc+33+GbTlaFyPz7n5P4U3bv3dk7IFbccQ0fuxqy7E6KhhDHlqWmE52xk8df1LxkRDaOqgacr5gINP/VW8zw9XRusmLRJFnUKIUS9RN9FeOs8kg5I0GtKbAWuxvwKQ1Uk8Akhmg1fPx9Dve/dHXBLPcOOSzWvI5q/Fi1a4OHhYQ68TbOOTwgh6mDgA3OIaQsl2efZurYew8KJRuGU3J1SSWRkFzp37kzKH3+QmHhB6viEEEI4hjPq+FxcXBg0eBCRkXeQdTUTjea6FHUKIYRwpsbNe+nRo0BBdnYWp0+fxsXVVYo6hRBCNGN6Q/ArKiri4sVLpKWlSY5PCCFE86VQKMxFpHq9nhs3tBL4hBBCOEbNdXR643INt0+9Xo9eZ12cKoFPCCGEEykq/bshG38qFAoUSutIKoFPCCGEQ9hu1dnIjVts5PikcYsQQgiHqDxWJzT2Z4l0Oh0517IpuVlsniaBTwghhEM4MsenVquJiOiEu6cXubm5nD5zlrKyMkACnxBCCCdqyPo8lUpFq1atcHd34847Y1GqlJSWlREYEIiHmzvnz5/HxcVFAp8QQgjHsF3U2XDb9vXzZdDAQSiVCsp0ek6eOEF+fj6dOncmMrILfq39KCsrk8YtQgghnKehPjWkBwoLCkGpJLxjR1QqJQEBAYSEhODt5YVf69aEh4eTmXFVcnxCCCEco1EHqdbrKSktJS0tjYC2/igUStr4+4Nej1KpJF+bT0nJTVIvp0rgE0II4UwNEwxVKhXBwcGEhIRw7do1du3ciUajMc/v2jWK3r1j6NSxowQ+IYQQjmGrjq+hMoEqFxXBwUH4t2nD9et5FBcXU1RUZN5vWVkZ7u7uBAW1lTo+IYQQjmGrqLOh6vhuFt9k/779bPnlF9w9PKw+POvl5YWvny9paWls2fKrBD4hhBDO1HD1fiqViu7du9PW35+hQ4fSunUb3NzciI7uSe+YGNr4+9O+fYh8iFYIIYRjNOaHaFUqFSEhoQwYOIDdu3bTp09vgtq1o4WLiuycHM6cOYOrSiGBTwghhOM09hfYXV1d8fL25oZGg6enJ97e3ri4uJCfn09+fj4KBbi7u0vjFiGEEM7UcHmvkpIS8nJzAbhx4wZardawB4vAWlRULIFPCCFE81RVDlMatwghhHAiRYN+eNYeEviEEEI4VWMO6GKLBD4hhBC3FanjE0I41fTpD9O37524ubVwdlJqVFx8k0OHfuOLL75ydlJuSba/zuD4jgUS+IQQTuHu7s5//vMR0dG9+PDDD4mPj6e4uLjmFZ3Ezc2NgQMH8vzzf2PkyGH813/91TwklrBPow5SXQvSj08I4RQvv/wikydPYPTo0Zw6dcrZybFbjx49+OWXX1i7dgMLF77j7OTcUqr6Arv15Lr347NXsw98yd1mOjsJQggbkj6eyTtvvsonn3yC3rstuvZ3gYu7s5NVtdIilH8cQKG9yuOPP87LL7/MoEEjnJ2qW46tok5HB75mX9SpbdXZ2UkQQtjQRu3B2rVrAdDGzKJM3c7JKaqZqnU3Wsb/N2vXrmXRokXOTs4tp6qiToUCq2DX2KRVpxDCabKzswFuiaAH5ek0pVs0jPJ46JgOfRL4hBBC3FYk8AkhhLitSOATQgjhRJbFm1LHJ4QQ4rYidXxCCCFEg5PAJ4QQwkmc041cAp8QQggnUWAd/KSOTwghRLOnqOLfjUcCnxBCiNuKBD4hhBAO0VBjbdaXBD4hhBBO5PgGLhL4hBBCOJHjc4HN/usMooIRseTe54dPQQ7z/naYxU11322DWDojklkd3XBXQsbpBII++MNRKa2bDu1ZGgfLv/2DYw21TWdeLyFuMS4uLtwzZiwREZ1xUanM0/V6Pdp8LQcOHOD4seMS+Orik9dHMyuwwkSdjqKCYo4lprN8cyLLU5yStGbCg/ee6M6cUCXoSkm6UkJRYxVOmAILxWz6dCfjDljODOPXf0UyzBNITUbx1nmrVd97ZTRzQ6Ho0iU83tHy01NRjFXDtEDw/XcTD9JCNDMqlYr27UO5997JJJw9w82bxYYZxk8/BAYEMmbMWFKSUyTw1YtOR1GJ8d9KJe7eHsTFdCSuVzse2niU4T9pnJq8W1dHxoYqgVK2//Arw7c14q625ZEw0Y84NzfCIz3gQGH5vCgfwj2N/26tZi5Y5LjaE+Nr+FfCpUTAj3StDtSQnq1txAQLIWxxcVERGhKMu5sbX321ktycHKv5dw8YyOh7RtO6dWup46uPvMREPJ7Zavh76hd6f/4H23N1oHRj2PhoVvZ0dgpvdcUkNWbQAyCRfVcN/4oKbW81J7yvN+EAOsDTi2F3WcyM8iPcG6CQhF0AOTz++lYUs7fS9Svr/+GEENXR01CNPRUKBXq9juLiYopv3rT6KyktMXwIVyGNWxrUsX0JDP+fRLYXAEoPpozu6OwkCTtsumrM5RlzdSZzQr2AYpJyAYw5QpPuHoagqNHy01VHpVSI5qmKD7M3GinqbGhXk3k7oT3D+njgHtyauVwyF4+NHRfNe8P8ifI2vm/odORlZPLKZyf5MIXy+iadhsVP7meecb23XhzJ/I5K63qmu3qT/pg/gZospj1/lGHGeseEfftZqY5mXlcPfJRAQSGbNh9m3JZCqtW2PUtnhDGtgwc+roZJRQWF7NuXyOOr00kyLhYztCcfjvQnxtcFd+Nh5F3LYfm3h5l3snxz4bGRfHJvCMNaG26xIq2G5ftKazx9c//fcN6LNN2WXsxaNppZlLJ9tbHI0850fmI+H0fZ1LYbczu7kXf+PL7/k1xpn9tPasno40Ggpwf9o2BxAkAE/dsCxYVsStYxp7WHMUdoOP9zQw1loHnpOXxdaZ+/0PVzKK8jLGX7D2dJuLMrs0IN561Iq2H55/t5qo7nLHxwFCtHB5dfB52OvNw8lv94mnmHC7Gsnzy27Rd6rzauOLEfheN8cLe6x4L4aVFPxqpN9Zxq5jzWjVd6qgk0FfUW5PP1d3uYdsBGYoS4xUiOrxFsTy4kD8DTjSjjtLEzBvDDxACivJUU5eaTcKWQPJT4BAex9Pk43muLob6pGFB6EjPCtLWODGtnvEwWOZJhPb0JxPrBCxDUM5a3IpWkZ+STUQJ4ejB2YrRh+1VpG8avL0Yxp7MHPqpSkq7kk5Crw93Tg2EjerLvLyHmRecMCSLOF9Iz8km4kk9SAfi09mPuI72ZZVooqhs/zQgzPMB1hu2lo2bOUB98ajh36Ve1JFwppggAHRlX8km4oiVJW7t0mrh3jGRuZ7fqd3ogh7MFAB5E9TFOG+FDlBtwNY+nTmrJAIvzH8SwIBdAR8KFyoG0MiW9R3dnjn8JSRmF5OnA3VvNnDqes/BRsRx9qD1xrV1wLygk4Uo+GSVKw3WY2Y8f+gMksz9DZ1g+NMy87vxINe5gfY9FBRClBgry2X4AZs3pzdK71AS6G8/xlULy3N0I9LbjUIWog4bu126ro7wCBSgM8yTH1xh0FX5H9WRpfy/c0ZGw7zhdP88yTG8bxq8vRjLMW820B0KY90Ei29PCiOvoQtfIINiWDiNaE+UGRcU63I31TIsPwNi2HoCOhPPWD14fpYZ5bxxm8VWgbRRHX29PjKuaYYOB1dg0f0YEw7wBbQ7z3jGuizFY9/cisFcoS9te5qmrkHAymWnx5/naVLzXtieX3gwiXK1myl2w/ADMHx9MlCuQm8VT/3OUD68CqJn/fCxvda7+Xevrrw7yNd04uyyEKAr56fU9PG5K5/P2p9MkvK0L+7edZJpFbrCyZPZnRDCso5LwdhFAIg9FeuEDJKT+AQcCOPuAP4Gm83/Jj3A1oNOyb321h2OkxKcgnXELTrIJoH9v0mf4E1inc9aRleP98AHyzp+n9/8kG4/Ln09ej2ZWoBtThkURvi+BVxI0zO3og0+QHw+RzNeEMSxYCcU6itws7jFjsW3RlWssBj5pa3hRSDq0j46fGksKOgTxkCdCNLCKZZz1LfNU4Ovnx9PPPENxcbF5qlKhICgomJDQUGbOnCU5vkbhqTS8VevKDDm/PmpjfdA13jIFPYCryTx+2vBgCWzfloeAVy4ZWgQGtvUjHIwP4HzWHCukvJ4pjJjWQLGG7T9Z7zop4aI5IHA1mYRswz/dq3xotWdYoOE2OHagPJgAbPr8MvsKAKWa/oMN0xbHa+g6Lpajrw0id8lICl8PMhwbKty9K2zviOkBDqDh7WMaw/mok9ql0ywts4agZ2A67+5tWvIQfvypnRtQSMKhQspzT8bzf5ex0Ut2Ph/alXYd+w8bgx7APlMOsw7nbKjhRQidhuXmoAeQxeN78wzLtvNhDsD6PBJ0gNqTYW2Bu/zo6gkJxzJJovweMxTb6jh2/hIASVpjTrFPP47+JYJZHYCUdL5OsOtghaiFijmz+mf9dGU6NJob5OVdN//l5Oahzc+nuLiYGzduSOBrDHM7exsCX26h4WFn6kdZUGxVLAmQlGosFnVREQSwS0MCQFs1c0wP4Gtalh/QkoSx5aHxAcbVPF6psL2iYssWhYUUVsx9VqI0FniXkptbcV4yScYeGe6eGHOoPZl/lx8xPkrSr2nYfijPUAxo1/bqoxbptJCUllxj0APKz7vam3EdgohqDRQUss/4sF+eYXhBiQptz5yOhuubkZFl37bRUVhQ3fxanDPTvVRUSnrFeVsKDNOUKmPx6B8cvQrgRe/BpuLxQhIOXCbhGsZ7zFhsa5F7ffvz83x9pRRc3YiJ6cgnL48m9+UoHqquuFwIO+iraMXScI1b9Gi1WjZsWM8P36+2+tu7dw8ZGels3bpFAl+D69mTORGGEuSE83+w3XKepxsPVVg8PNTD8JAqLDGM9nE1nWNXMdTBjDM8gDPSMtmekEmCBkM9U5Shfi8htSE7Sbvg61txWpihSA8debkwbHJ7Q1Fjbibj/raTrq8fZNynWmw/q5V4VMxlmnLCjZxOS0W6Ghr1mFxNNwQDPIi6X00UUJSRZ26YlHTI8OJBax+mtXUBSjl7vlLoqadanDN3F8OLkqVRnoZpxSXGl5FCvk41HH94aEceaucBGi0/JOTwQ1qx4R4b5W+o37uqKc+9Xv2Daa//imLhGd4+kEdGCfh0aM+HD4dV3KMQtWKr7s066OnrHQTLykq5lp1NVlaW1d/169cpKioiNzdXAl/D8WDYqGguPRFEuBKKMi4z73Nj7uuQxvDQVLfmlRn+5au0DeOT7oYm8hlp2cYgmcPy1ELAha53tybK/IBNZ3t6KXh6MSfCA8hn32Y7H+rVSmb7FUO2MOauWOZavNWPnRFCf0+gRMu+AxDjbWxGWaIjwbyMr7Go0yTTmPtSEhfbk7Hm6f580kddj8BnfzrrJoftVw0tKKM6GFpxGDqmG5lePDzVxHgDxVr2N1gfw1qcs23XjA2g1Mz6f2EW596fT+42NIQpuprHcuPU7XsN955PUAjD2pY3hvr6fD55uNB1iA/hQMKlS8bcaxBzxxmLr1Mu88qnBxl7xHCf+bTyaqgDFqIKjhm3Uxq31INPRASFSyIMP1yV5ub9RVczmffhmfI6nYSTfHjaj/e6uxHVvzeFUfkkFSoJCjR2OdDk8N7qy+btmpvXt/aAghw2GR+wiy9oeSvSh/DWwDVteQOTenp74xWmzQkhytuP914fzpyMYoo8PIjyVQI6Eg5fYN5VIKWAtyLVuLcN4uhCNeklLoS3dq2wtUIej8/hT/f54dM2iJ+W+JFwrRTf1l74lJRSRN1zfXans44+vKTlvSgf3F2VQD5Hd1nOTWd7elfGql1wdwNSKxcz111tztklXjkUzE8DvfCJjOTS4vYkaHT4tvYi0A0oyWfl+vPlRbAJmSRoAghXexBOKdtPGhtDmUasae1BeV0mgBtjR0Ty3rAIEjQ6wHCfAiSlNc0Oiz6eLcgruNno64j6s1XUqVBY5/oq/m4MkuOrD6USdzfjX5mOvGt5fP3DYbouOG7RQMFg8QcHmbYtiwStDndfL6KCPfApKyXhdDLTFlk31ihvXm9d3Iaxng+MxZ8NdRwJZ+i6KIGvU4rJw4XwYC+ifJXk5Wr4+tuD5a1QfzjOKycNzfF9WnsR5V3KmtWZleu5th1m2pYckgoANzeiAj1wv5bOvF80xm4KjZzOujI1BgHQFLC94jVMLa+oS7paz31VVItztv2rPfT/Np1juaXg7UFUsBeBrqVkpKTz1KI9PH7ScmljSQFUyKVe5qypWFij5QdzwxUNx64Uk+dm2G5UsAfuRcUcO5DA8I8b+JgbwKODOpL070lEd6hU/l2l6A6+JP17Eo8OkgEmmgJHd14HUHTv3tsJu3Wc0/0XOjsJQggb9MtG42ussM0bt7RO2/hsdhwzBnYkr+AmQ9/exvGU6lsHRXfwZcf8Efh4tuDz+Es8umx/rffp89NTAOTm5tKjR58alhaWbOX4Kk8z1fPpjfMNUz09Xar9kK2rqwvdu3XlmWf/xhdffkm+1nrM3J49exLbty+//PyzFHUKIW5dpsA1Y2BHdswfUW3wa4igJxqeYXzN+ue/SkpKOH3mLEePHuWxxx6jRYsW1vsx7uuBBx6QwCeEuLXZE/wk6DVltoKevob5tigoKSll6dKlqCy+xWeL1PEJIW55jy7bz+fxl/DxbMGO+SOs6vwk6DUdtosqG7Ylp16vp7S0tNo/CXxCiGbBVvCToNe02F+k2bjdGqSoUwjRbFQs9gQk6DUhtuvzHN++UgKfEKJZsQx+gAS9Jk9Bww9WXT0JfEKIZscy0EnQa+psBTlbwbDhSOATQjRLEvCaHtt1fI0b5GyRxi1CCCFuKxL4hBBCOER1I69YLNXo6ZDAJ4QQwiEaYoSWhiCBT9gplFVvDOHKu6a/vuWDZ9dqG9WtV9P8qv1l9gCLtNUyfQN7cc68fE1piGRXnY5dCGGb47s3SOMWYYdQVr3RAbbuJDi+4rxIdr3hzjevnuD/nJE0C5qLF7ljWarhx/19uTIvkrnvna95xfgT3FHpuIQQDc1U1Gmd85PGLaJJ8iSAG2y/lYLDquskqt35i7PTIYSwIh3YxS2igEz8GTYQ/s8y+N3flyt3egLw6rtDePVqOsHvnbeaDpD4204Gr7JYb2Avzk3wRQ1AKXs27OH+KoLqX2YP4NVOxtvUtH07/GW2P5zeY8yF2siV3t+Xc77pxhxidbnWUFa90YkBxi/Bai7mkmlXCoQQFUkdn7iFpHL/q1kETBjClXmR5ZNXHSL4hXQSi3J544Wd5qC0mOsEv7DT8Lchl4A7LevEPHlwJPzbPP8GPSfYrjP7y+wBvNoyy7ytN274c252aJWpVHfqZK7je7XdDb5ZVeWidjIEvYDTO81p+KmlLxH13awQwsw6Fuod8mFaCXzCTucZ/MJOgv9oxZV3h7Dr/qqXnLvKIlcWn8NJq0+Il7Jnq0XOKv4EP1315M5K24vkwU43+cYih/d/y7LIbOdXZfGl5uLF8oC7FZ6rbyOUgX701KRb5VbnvpdOYn22KcRtzFZ3Bts9HGTIMtGUrDpE8KpQVr0xgFXpVRVRRrLr3SCLnFEB35j/fZPUCusk3ijlTps78+TBd4fwoOWkouq/sG0Wf4Kf+g0xBNS65vyC3OBGTh1XFkLUngKFQo9eL0OWiSYnle1pHXgwyMasgb04N8GNn17YyWDAUFxoa8FyES0h86yNGUW5vNFQrUXd3epURKlu6VnzQkKIW4oUdYqaDezFKquiyFCGtYPMdONPy6AS5Ib66nXmmn7fH2RuGGLgyYOW9YT39+VBta0Wo+f5TePLc9XU6dWU5nFtC/htFUABmUWWxamR7LrTjoC26jqJbYOsinUXzwuSOj4hbnGS4xM1i8+BN4ZwxaI8MvG3nQyOBzjPbxliMMYAACAASURBVFeHGIokr6YT/N4hvpk3hCvvGnN5V3PZU+RmsbECvjHWE5p/v2A7Vzf3vZ0wbwhX3u1kvd8qii4NjVtMyxbwzQuHjAE4lfu3+nFugukYCvjmtwLG+dreTrnzDN7gbrEeJP6WTmLbVjWtKIRowhTdu/duGu1LG8np/gudnQQhhA36ZaPx9TW8feSNW+rk1NjP56enAMjNzaVHjz5OTs2txXZ3hootOU2/9VbreHq62jnWZ82kqFMIIYRDNFTgqi8JfEIIIRzCVo7PGX3aJfAJIYRwGoXCsi+fY6KgBD4hhBBOpLDI9TmmKFQCnxBCiCalsasCJfAJIYRwCNuNW/SV/t3Y9X4S+IQQQjiR41t6SuATQgjhEDV/lkjq+IQQQogGJ4FPCCHEbUUCnxBCiNuKBD4hhNMolcZHkK7MuQmxlzGd5nSLBiYd2IUQzZhOrycmJgYAt5RdTk6NfUzpjImJQafTOTk1zYVlsHNM45Zm/3WGFn9aZPhHsz5KIW493l4elJWVUlBQYJzSNAYwrp7pSwGeqFQqtNp8J6fHfqYudMVr/u60NNT8dQbLfnyN93WGZv09Pr1ez9H0EmcnQwhhU8X/N2+lt9OCmhdporrp9U77SoJCoaihS4MCR9wHzTbw6fV6qxO87omuTkyNEMLRInxvhRyk43R95wxQnoNqKp8IcoZmG/gM2efywDe0i48T0yKEcLTr1687OwlNkl6vNxZ7NpXA55hcnqVm2bjFkNsDvV4qn4UQwpJerzM+Hx1ftOyMfdrSLAOfgb7JnGQhhGgqDM/FpvVsdHSpazMOfEIIIW4t0o9PCCFEM1O5UY1ePkQrhBCiebLdnUE+SySEEKKZstXuorq2GI3VTEMCnxBCCKdRKKpu3NJYjV4k8AkhhHCIptJpXgKfEEIIp3J0zzMJfEIIIRyiqfStlsAnhBDCaZwRCyXwCSGEuK1I4BNCCOE0zmjwIoFPCOEQh95Rs+hw/Ze5paWv5Ykn15Ll7HTc5iTwCSFsS1vNw2o1avPfw6xOc3aiGlbWuid4Yl3DhKGsdU8QKkGtWk2lO0Mz/h6fEKLO0lbzcFQyz2g0fGWemEmmMfBlfv8wc1nMV1MDnJTApsd/0sekTnJ2KpquptKiEyTwCSFsOPTVLHr9qqGv1dQAAto5KUHilmd7nE6bS9LYX2mQok4hRCUdOk3kREqmjTmHWKRWEzFzPetnRhiKQN85ZJhVqWh0EYdsbeGdmpepz/L1ceT9UD44avhvaKjx7/0j1gsd/aB8XqhhefP0CstabSf0AypsCTAWkZqXeYK16RX29f6R8mVM268qDc1EY5eISuATQlQSMHUxkzZElAc1s748r9GQuGIiE1ckotFo0LxoyBdm7odnNBrDNI2GxBUnGFFh/RNLH2bXsArLVBPMDr2jZkmnRPPyml9hxIzV2ArJDeXdSaHsG5hKamoqqalreeG9yeWBJX0tT0yCtamm+Uf5c5Dt7Rx5P5TJrDUul0rqoVCW9X2azRbLZK17gt7Jsy2WGcumvhUC5LllfMvbhvnP9qlVGpoahUJh87NEFX83dqmoBD4hhA0B3Pe5hsROS6xzddWtMfU+q6LRgLhJTHx7l3VQm7CY52Mt11nM8nvfZJetlpxpq1nCNut6xNjn2dZ1HbsbsZHNmKVHebq36Vcf/rx0DO/GG0NReiqbx4fS3ry0P/62gk76Wpad+4Cjz/YpnxY0mY/XvWCx0BG+/XlspWXeXnqKfZY5uI096D/J32LbdqahiZLPEgkhmrSAqV+h0WjYxgj7ihkPLyovloyaxfoKs3t1qNgYJoBBE6ooVr2SzPq3R1gUcxr+Rry9nuQrdT+mmvQI9bf67R/ao/xH76dZe8fT9K5YJFlReiqb7wjFv+L0oFDGWCxzauPT9A4NtSq27P3UZk6lWrQNndefPpbbsDcNTVBVdXyObuwpgU8IUaO+LxqKJZd8X1UhYyarZ6hRbx9cXiyp2cYCO7adcnG9jYBoNH+bxfbK/yxzjY7W59lUUlPfhjeqrrez2/gPOGousiz/+3hSpZDZeGlwIPuKOhufBD4hhF0COvRi/cUU2zPTdrOO5SS+aFHYmZbCiQqLVc7ZZZJydiJhwTa2GRzGxLMpjVqfV3f+TP7fVI4uPcWyqvoBnkut1Kcv69Cm8jq+oFB6bEzlj8ZMwy1Cvs4ghHC6Q+9ULNbMZPXSN1kwrDywVQqCPyZTPuUQi2wUda6fOdeqE/yhdyKY1fUZ7rPVTaLdICYxi4gK9YuHvm/cxi3VOrrWqnjxj+TNtpfr/Wc+4GnmWwak9LXM/5nyok760H/eu0yu0Ok9a93a6nNw9qahibK/P1/jlX9KPz4hRCV9h4FarbaatuDX8iLGgKnPsEA9AvXbGIojX7yPxSseJsK8zgK2abaBeleFbSyGl9WofzROmL/N3Cq0sgDu+zwRZkRgmZQFv2p4vr4HWFdBsKlvKE+bfs9bS6rNYkl/Jv/vUXiyN6FPGSeN/4Cjr45l/hvlS/V5NpW174fSO9S8RcYsPcrHDZKGW0Xj99urtMfu3Xs3ne70DUSv16PX6ygrK+P84PcA0LzX38mpEkI40vXr152dhCYl9M0zAETumodKpUKhUDp8CDHr3J4eU66u4nTL36Z/e3q6Nlh6pahTCCFEE9O4AVkCnxBCiEbXFPrvmUjgE0II0ejsL6ZUyJBlQgghbicyZJkQQohmzfHtK6U7gxCiWVKpVM5OgrCL47szSOATQjRLZWVlzk6CqMD+b/I1LinqFEII4TTOCIQS+IQQQtxWJPAJIYRwGkePHgNSxyeEEMJBKhdrOqe+T3J8QgghHMJ27k6+wC6EEKIZsw5+lT9K64i2LhL4hBBCOIThyznVRbbGH64MJPAJIYS4zUjgE0IIcVuRwCeEEMIhbDVuqVj0KXV8QgghbitSxyeEuOWN/fQc4z475+xkOMWzTz3Nc08/4+xkNBm2GrY4of+6dGAXQjSuPckaZyfBaU4cP+7sJNwCHP91BsnxNTGZ3z+MWq22+HuY1Wk2FkxbzcNWy6lRqxdxyOEpdoZMVs9Qs+hw5TmH3lHz8PeZ9m0mbTUPV3V+Ha7qYxKieZNBqm9jh1ikVhMxc32F6euZFVXhYX54EeqoWVRcUtRSu/v4SvMV97VzdkKEEI4kga+JOPTOCN4EYCLLEzRoNIa/bfMN89fPnGvMmWSyeqlhSe5dTqKm8rJCCCGqJoGvEkPOS61Ws+iwofjJqsjx8KLyosUZqynPh1kuW3XR46F3rJd5+PtMSFvNkrcN8yeuWGyVA+n74jYWALCeWV9VX5DZ98Xn6dsAZ6D5OMQi9cOsPmxZLGx5TYzz02wXkVpPK78vzNcNMBdRfm/ch/GesC6yttin5f2jrkWxrBDNlmXrFkOxZ2M3eJHAV403h0cw60fTL0ORo3r4m+UL/DiLueYHVwrJP1bYAG8ywhwcDQ/IEW/b2NGVZGOx5UQmxQVUmNmXwaac3NkUMglg0ISJ5v1HyMOzBuuZtRQWazRoNIksv/dNRrxT+QWi77AFrN+wu/xFJm01S95ewDNTAzAEvRHwqyl3vY1e5hy4wZsbjPv4/D4C0lYzd2Yvtply478ONi93aDsW0xewfuYXt0m9rBD2fILIML+x+/JJ4KvO/G1oNBoSV0w0T1rwq+kBavi9/mKKcU5fnrcodtQkLGciwI/r2J0GHP7CHEQXWDxAJwGZKSeM2+hFBzvqmwKmfmVVrLl+ZoQxh1qvo22mJrJ84X0YXicCuO+pBcYXiApiB7PAdK2AzP3rWD9/sCEHfXgXb967nOmxpoX7Mn0FrNtfvpUFT5n2YXKCFFNgjO1rzolb5cpjB7PAcrlm4npRGRsTcqucvzEhl+tFZQ5MkeNotVr2xMdXOX9PfDxardaBKWpanPG1dVsk8FVjwTDDIyqgQy/TFAbHAgTQoWvl5a2KMSs0PjEHtwoP0PumBlhs3/6HYN8XK9frvTm8qbRQdK5eHSrmmu1hGcwy2b0Blj9suP6ZKSfMuWvT9Y2Yud7ipaeCdvfxVcIk1kWpK7+QWLXGNdXrNi8PfpPIQ98msvJ4dqV5K49n89C3hvnN0fy/v8QrL73Mz5s3V5r38+bNvPLSy7zy0stOSFnT4IyPztoiga+BZH7/sLkYc8GvFjk+o5SLxjDYtQOVHsvBYcZl11vlIgwOsctU/zdhUKV1+75ouS9b6zdHhhePEykVjzWTlLP12GrcJNiwm8y03axjEoOMue+ADr3MuX+rvxerqVFtdx9fGXP1DDcGv7TVPByVzDOa8hz/gront8maFtMGgCd/vGQV/FYez+bJHy8B8FB0G6ekrbGNGTcWgH++vdAq+P28eTP/fHshAPeMHeOUtIlyEvgaiCmw/f/27ii0jTNfG/ij+KTZ0+MO6RencuNuZRrMrtOE2AsW7FLiJvGF7VIZQ3ToJsaB6KqQeBdS4SSOKEE4NKi5SRYKHyi7Cco2rA3GSlnnwk7rJJyAfBGbfo2zR7hrlyatWpcmg6ENxdF3MTOad+SRbCfSzFh6fhCQNSPpldzq8f//vjPju5BEsAnCvJ3Cu0f9iutvESqABAYGU0DNLnRorVPD3FEKAwf11Z7K/F8KAwdzH6/3dNXO2uPdE8r6rIDU4FEEIFbUq1SzCx0YxqXYMCD+kdHUjJDh97aMiYiwrwe16u8WD2YR76yFJ7PfeElWfAcaqvBR52sAkAk68fZHna/hQIkGX2tbG471KRWdFnTi7WN9J9DaVr7BZ9bqtKP9yeArMG2+zbAIBgCaujPzguG9eqtrGADghv+isHqzXtteJ8wLisebhdEimbVVtVZsGWgKQh7bKXxWEuqudiB5MXuubTXc2PU2EO7fqS5q0XgRnI5iaq+4IjdPW3lLrbBvHYbfVv8YaupGFELL9DpKsuIDjOEnKuXQ04jhJyr30Fud4oYhT1lWIN7eUYT6teoshNHpWpwzzPO54b+YBCCuFBUrNGVxTPOZ7JWfIYzK4mEK6qrOoazD1zujz/ilvwY1BSHLwTw7eBGUY0sfczH3dve+GOR9Jk9V40dM9ptscMN/UV7Vvv6Lwl29eZ5njdMCrhwqvWxawLHSM3K5XEsqPLP7in0aM9f27b9zxjKbAlKu8vsEi4uL+FfzhwAA+cM/2DwqovKkzfNZHXqPHj2y9PXMaPN8Tgi9X4e/AAD8Zvw9VFRUwOVaZ/lik1xtTeP9afVwhrRh2/PPry/YeFnxEVFBXZ6cx99NVnSK9+1vqCrJ6u/ayAiu/dNkRadwX2t7myOCsJwx+IiooL56+Bg3/52/bftG7QsWjcZa337zDSbv3Mm7T0Njg0WjcR6ztqYdi1sYfERUUAcaNuMNT/5g87z4K4tGY63W9nY0NDbm3af65ZctGs3aYD7HV1wMPiIqqFc3PodXNz5n9zBsUV1djerqaruHQcvg4QxERGQJnrKMiIjIBgw+IiIqKww+IiKyEU9ZRkREZcVV9AvPZmPwERGRraxe88LgIyKissLgIyIiG3GOj4iIqKgYfEREVFbK5pRlMzPf2j0EIrLQwsKC3UOgLHacl9NM2QSf+6WNdg+BiCxU+V/r7R6Cw3xn9wAco2yCr/KF0jwbPBGZW3zy2O4hUBYnVHsA5/iIiKjMMPiIiKisMPiIiMhG4vnKrGmFMviIiMghrDlpJ4OPiIjKCoOPiIgs4bL6Mgw5MPiIiMgS5oczpHPcLh4GHxER2ciV43bxMPiIiKisMPiIiKisMPiIiMgS5otbeD0+IiIqK9av9GTwEVFRtf/1Ht762z27h2GLPx0+gj8f6bF7GJSFwZclcUaCJEmQDg4gZXa/1IWB+/r9qcEuYf8EIpKyX2Ti2cZhfN61Rf+s8n0WKQwcVLZ3Da72HSqPNXvexJmneb7Vyv36RX3VwS5IZxLKDxORNfPfxq1ZGTf/Lds9DFtMTU5i8s4du4dBWRh8WTxbfcqNoVnMZe5NYe6udjuO2Qf6/nMzcQCA7+1dcFszRAdTgr+lfwW7TlxCYKjoA3K2+wPokiJI2D0OojLD4Mvi/n0HlOibwpxW2d2/gWHhSzp8XfuqSmBc/ZLf6XED8CIoy5BlGcEmq0bsHIkzLQgDAEIYVT8H888igcjesOXjIyInSsPqE7ow+LLVeLATABDH8G2lkZS6PYw4AF+nWg3enVNaTPfnMAUACKG5CYBJqzPT9juT0NuX6s8GExGhPRjBjRzDy24j6s+jtw4zLbj7A+jKas9qj9fagYYx5WqtZp5HfD39vSr3aX8E+BCdDsKb5yNWAtIHX2eenQrE8HkZ3pswfkO7VW1jDqrveSXtRLXtmMj1+xU/P+33MxGBVB9AHGG0iPsb/jtYTdtW//1nv77SIh1Qtxtb9UROYPX1aRl8S3jR3Kfcis8ozU6tnbnzcA9CgN4GfTCLOAB01sKz3NP2t6DuUNzwsyGgDBVQGAFxXwDaF9uSNmJ/i/rl7IZnm/potSLVAlsPca1l60PH791IDXYZx5RLjR+xsZD6eucwcB9IDZ5TqrvOKJK9XmBiXP25A57bXbmDdCKivIe+HvRsW/6ln8lEBC13o0iqlWfysPZbSiAitQBjWlU6ip2HjhoCIXwVOCvLkC/6V9bCHgrgHM4qzzcdhS/z+01h4EQAO4XXagaApqCyn1Yd9yp/KiSuQ6+Wx0KIH7q0glZoCgMH6zD8dlJ9jSSid1uMc5D9w8BpGbIcg79mJW+IqHQx+Exk5vnuziGVqWRCaG7yoLYTAMIYnwBSc0q9t7L5Pa39Nwo1QjA1p0RCIhZQA1T7kk4iml0NZebEfIhO61+MAIChAC5NAN49IWHcemADWojPYXYIAHbCUyNs7xvNtCVzftE3datjiiMQi+DSobgyltNZ+w8F0CKG6VAAdWKVuDesfBa9+WrCAhLmat1NXmWsE+MId0bRnWnBetF9AZkKHwBCh1cYeJrOKM7uUx9R40dPn/77BcTbXnjztMG9vUK13NSMkNhyz+X+DQwPhdCjvT7c8B8OCS15AH09DDxyIKXUY6vTATLzfEOzmNPamZ218MCNXW+rM4BzKb0S9KzgK7KvWf1Cy64o9YUzeoAqX1wiLWQNX2CZMFK/WLfU6uPWArsvpATt3TmktPeijiUT8P0tK1hB6ob/dFR5/v4wwgB8F86afJnqwZy8oD3/OBJIYeCgMgcYGsvfCn1Wmd9HUxDyGJRWotDiS81NKYEstBTrDsUzFX5hueG/mETH1TrzFnc2Q1tUmzNdxoNZvWWq/dsb1lvyFnv08yI+mf4x5/ZPpn/Eo58XLRyRdRYWFnDr5s2c22/dvImFhQULR+R02YnHk1TbJzPPN4XxmDq/p4aS26POAF49inOZSvBZXkyrwowBmgk6ba+ZlbQkd6GjUxn33IQScqE93UqVOjSMG7eV1qxvq9Lyc++Lqe021VAAdatYZWgaFJ0d2KWGofZZATAsEArvVb6ctbZt/FDdKpfmK21dsaJSiKtvVU1Btf3YgeF6Jfzcnp3GKlf7V7Qq1A3/ReU1RtGSO/zuD6CrfhY9st4WDZnvabSlFr5OvaW7bPVeZH/8OIn9V5K4PDm/ZNvlyXnsv6JsL0V9x47j5PETuDYysmTbtZERnDx+AiePn7BhZM6mz/HxJNU20qqyOML9WVVdU7Pxy2gl83t5ae1TIPwX7cs/hRtXjUGXaWOqc2wADO3Pjt+7gcw8XxzDfxlGHD7UbtGq1DiGr04J+6pq/Ihp81IAkLO1psxVxQH4+kJq5SfMI2mfi9p2BYDEdbVeeebPaCnvnhDiWfNyqcGjCEBvYaYGI/r2zB8z6lj7Wyw6Di+BiBB0mSrbzINZxMXPSps3XU7NLnQggKNFP35xZQ40VgEA3h360hB+lyfn8e7QlwCA/Q1Vtoyt2NreagcAfNB/2hB+10ZG8EH/aQBAa3ubLWNzAvPLElmPwZeD8QtKrOrUoBqKGyrBp6e3T/X2W93SY9zEObZ6oZ0FGNqfWkDGh+KZ6itTpQr3AVkrHuvVeUZ1/i9bavCoOqYQenqD6FHbtXpYe9GttjazK7rQYT/cWsAK/0bV5/BdSK6+OmkKQh7bqX8WkoS6qx1ICs/j9kDY3gKMaQs7vAhORzG1V1whW6zVjh7U3m0xjlGrLGv86OkTVnU2dSMKoQV7HSur+OCG/+Iodh6qW8GJA4rvQEMVPup8DQAyQSfe/qjzNRwo0eBrbWvDsT6lotOCTrx9rO8EWtvKN/jMGLMwbckKz/8o/kusTco8X9xk1aZaVZm0J5/6tfbFkISwwrIzitG3h42LRNS5IsAYir4LScT2CWNoakYIyhwctnmUEDC7z1QIo7LJ/NtEJDM234VuZXtXFL7+AOJDAdRt80Du9S59HwBCY0U8prEpCFkOPt32Gj9ist9kg9KWzC9rn6Yg5IvGPby9MmLqbf9FGf6s7eJ+cq/+85J9hW3ufTFkXnXJayrHkJq9W8PjLKIFmxh8QGmHnkYLNjH4AIYeoJykOn/V54IV83yu7dt/54zas4DS6TTS6SdYXFzEv5o/BADIH/7B5lERlR+xvWl16D169Miy1zIjtjedEHq/Dn8BAPjN+HuoqKiAy7Uux9USimtp8GVXedrPacP+zz+/vmDjZcVHREUjBl2pV3rZxKCzO/ScwilzfAw+Iiqoy5Pz+LvJik7xvv0NVSUZhNdGRnDtnyYrOoX7WtvbGISC5bOw8FUpg4+ICuqrh4+XvRrDG7UvWDQaa337zTfLXo2hobHBotGsDcvP+xUeg4+ICupAw2a84ckfbJ4Xf2XRaKzV2t6OhsbGvPtUv/yyRaNZK6xvfzL4iKigXt34HF7d+Jzdw7BFdXU1qqur7R6GY5lXd2YrOdM5bhcGj+MjIiJLrLylWdzVpgw+IiKyhB2HT5hh8BERkcMUd96PwUdERA7DVicREZUs61d1MviIiMgS5otbrJ/3Y/AREZElzBe3sOIjIqIStbKKz4ViL/5k8BERkY2Wu1pD4TH4iIjIEi6Xy6Tdaf0cX9mcsmxm5lu7h0BEFvrpp5/sHgKZcMKlicom+NwvbbR7CERkIVlmQ8tpzEOPJ6kumsoXSvNs8ERkbvHJY7uHQA7FP4mIiMgS5oczGO9TikKesoyIiEqW9Qe1M/iIiMgxrLiAA4OPiIjKCoOPiIjKCoOPiIgs4YRj+AAGHxERWYRXYCciorJiVvHZUQQy+IiIyDYulzUrOUUMPiIispHL8qqPwUdERGWFwUdERdX+13t462/37B6GLf50+Aj+fKTH7mE4xvJXYLem9Cubk1QTkT1uzcp2D8E2U5OTdg+BTLDiWyKFgYMSJElC12Bq6eb7A+iSJEhSFwbuWz+6p5U4o7wn7V9kwmyvZd77GpI4s9L3kEBkjf0uiUqLK8ft4mHFV/ISiEgtCK9k14lLCAwVezxEVK6ccgA7g2+1avyIyX67R7FiiTNa6IUwKgfhzb0nIntXFI9ERGsaW52rtaTVmUAk0z7UW4WGdqJZezTrPr0Vqe+TGuxact/ScUiQziTUO/WxKPclMN4PAD5Ep/OFnhaQPvg6C/EhWU//rCRIBwcwl73DRERo9Zq1NoXPjq1PopLG4Cug8N46Q6swvDeCRO7dDby9SUQ7ASCOQEwJrUuH4gCA0FgM/pqsB9T4ERsLKbf7z2HgPpAaPKdUd51RJHu9wMS4+nMHPLeNwWCY/ZqIoKUfQF8Perat8k07QGqwC3VXO5CUZciyDPnwLAL9wg4TEUh7gVFt+9hOBE6In0EcgfpxNIvb61f+uyOiQrGmFcrgK6S+UfWLUw0kTGFuxZWDG/7DepBFzqgh1jeKYFOOhzR1C2EZUYPSh+hpP9zifkMBtKghqv1cJ1aJe8MAQhjtzVcTOlUKN67GETosvOemIEb79D0S18PwXejWK96mbkQxjBuZ301WRdzUjWhnGOOmC4BoOY9+XsQn0z/m3P7J9I949POihSOyzsLCAm7dvJlz+62bN7GwsGDhiNYCMeysWdzC4Cug0B71q7OpGUqExTH7YBVPkPnCjiPcH8fyYeSG/3QUPgDoDyMMwHfh7NLqED5Ep5VqJnnBp9zVP44EUhg4qMwBhsbyt0Kdaw6zQz7Ubsm1PYW5u0D8UJ3Q6qxDYCjf78YNzxqsfJ3ijx8nsf9KEpcn55dsuzw5j/1XlO2lqO/YcZw8fgLXRkaWbLs2MoKTx0/g5PETNoyMRAw+R1tNxaiIzyyZ3QI6O7BLDUO3Z6d+//0bGFZbs+G9Sii0qC3C+KG6pS1RR/KgtjM7xJSwUyghFhpT25jCv5yVtOHxtFoHGqsAAO8OfWkIv8uT83h36EsAwP6GKlvGVmxtb7UDAD7oP20Iv2sjI/ig/zQAoLW9zZaxOQGvzlBOajxQ4iaO4dtKlKRuDyOevZ8214YQQmrlZ5yLypbCwIkA4gB8fSG18mvRF9VoledQAJfU+xLX1ZWbnbXwPPMbs8n9AXRlFqAowRb+i/A5ZR2W4d0TWma+VZtXVaQGjyKAKLpzBiPlc6ChCh91vgYAmaATb3/U+RoOlGjwtba14VifUtFpQSfePtZ3Aq1t5Rt8TsHgy8PYHnuWg7o9qO00PmfdoezY0w8n8F3oRrBLbWEKoZUtNXhU/YIPoac3iB51XksPAS+61dZmdkUXOuyHu8aPWFYVpM2N+S4kIV/Mmit0KG+vjNFtAdRpv6vrzYY5PjQFkbwwhRbhd2msZn2Ibh3PbKs7tBOja+S9O5UYfqJSDj2NGH4ihl4u1leBDD5LCHNxAIAQRqfFn/W5NiCEnn1uoMavB9lek+X1E5FMeGoLN7xCWGqLV9z7Yvq8nvbqY/nafGtAjR8x2bjS1dsrBHivF95eGbF9enS598WMrc5MsHkRlGPw7wsK29fqfKezZIdfOYSeJjv8GHrO4tq+/XfOOJS+gNLpOg1MbAAAC9dJREFUNNLpJ1hcXMS/mj8EAMgf/sHmURGVJ22ez+rQe/TokaWvZ0ab53NC6P06/AUA4Dfj76GiogIu1zrL59xyn7klLVyaKPu28sPzz68v2Hh55hYiKqjLk/P4u8mKTvG+/Q1VJVn9XRsZwbV/mqzoFO5rbW9zRBA6iwtWHcMHMPiIqMC+evgYN/+d/4oMb9S+YNForPXtN99g8s6dvPs0NDZYNJq1Im35hWgZfERUUAcaNuMNT/5g87z4K4tGY63W9nY0NDbm3af65ZctGo3zuFwuk3antdUewOAjogJ7deNzeHXjc3YPwxbV1dWorq62exhrih1XbGDwEVFJqqiosHsIlMUs5LT1Kks3FS8QGXxEVJIWF0vzfKDlo3gtUB7HR0RElsh1OILV3U4GHxEROVDx0pDBR0RF1f7Xe3jrb/fsHoYt/nT4CP58pMfuYTiGHQtZzHCOj4iK6tZs/mP6StnU5KTdQ3A8O7KQFR8REVnCbI7PjisVMfiIiMhGuZKveInI4KM1LzXYBenMAAYOSpCkLgzcT2HgoITIREq9T/kXmch+TAKJM9p25Xp9qcGuAlyGiohWzvpeJ4OPSkP/MHBahixcrii896h6nwx5Ooqp7Ms79bdgfI92HcIwWiQJR3FW2X8shPihS3kuXktEq2W+uIXX4yN6On09huvzAUBoTLhmX40fPX1xDN8Wqri+0cx1Cb17QshcCxFQr14/hbns6yASkUV4OAPRM/Ns9eXeuKUWvs5aeKwbTsl69PMiPpn+Mef2T6Z/xKOfS/OsKgsLC7h182bO7bdu3sTCwoKFI1qLXEVf8MLgo7IxNxO3ewhl4Y8fJ7H/SjJzAVrR5cl57L+ibC9FfceO4+TxE5kL0IqujYzg5PETOHn8hMkjy4PL5VrBxWSLf5kiBh+tPfcH0CVlzdeZCP9lAJnG5kQELf1CK5OK5kCjcoHZd4e+NITf5cl5vDv0JQDlQrSlqO2tdgDAB/2nDeF3bWQEH/SfBqBciLacOeEgdh7ATiUr9DZwVJKg1Hk+RKdj8No8pnKgXVn93aEvM0Gn/QwAH3W+VpJXXweQubL6B/2nM0Gn/QwAx/pOlPXV181DLw2Xy9oD2Rl8tPbU+BGT/Zkf3ftiMD03iMe4n2jJY2r8iF0U7/AiKMeefaxlSgw/USmHnkYMP1G5hx6Q60K0uUKPV2cgojXmQEMVPup8LfNzOYSeprWtDcf69Lk8hp6zsOIjoqIRg65cQk8jBh1D72nwQrREq+CG/2L5nhjZbpcn5/F3kxWd4n37G6pKMgivjYzg2j9NVnQK97W2tzEIDXK1NIvX6mTwEVFBffXwMW7+O/8fHm/UvmDRaKz17TffYPLOnbz7NDQ2WDQa53HCik6AwUdEBXagYTPe8OQPNs+Lv7JoNNZqbW9HQ2Nj3n2qX37ZotGsFdaHIYOPiArq1Y3P4dWNz9k9DFtUV1ejurra7mGsMcVraebCVZ1EROQg2inLeK5OIiIqSSs9rq9wGHxEROQgxW97MviIiKisMPiIiMgSy1+ZwRoMPiIiso0dh/Yx+IiIqKww+IiIyDZ2tD/L5gD2mZlv7R4CEVloYWHB7iFQllzX47Na2QSf+6WNdg+BiCz0f178L7uH4DDf2T2AHNfjs/7MLWUTfJUvlOa5AYkoF/4/T+Y4x0dERJZwytUZGHxERGQJHsdHRERlhRUfERGRDRh8RERkCbNWpx1VIIOPiIhsY8e0H4OPiIgsYV7dWZ98DD4iIrIRW51ERFSCnLKiE2DwERGRBZxyDB/A4CMiIltxjo/IIPGPBKT3hX/nZ5Ba7kHTd1e2XwGlPrsD6R8PLHxFAJAxcD6ByHSRnn5+Bl3v30WiSE9P5ccpVR+DjxxK+VJvSW1C8pQXsvovuUNG3ft3MDCv75n4RwJdn8n2DZWIngEXtxABAFKfzSCATUge2Qq3cL/7zUYkdwOB61ZXV0RUKsrmskS0lsi48fkvCLUYQ0/j3i7Bd/4hEqjE3Pl7CMwD+OIepE/XI3qkEX51v7nP7qDu01+UH15/BfJ/b9GfZPoupCvahUrVx1UBwANE3k+hdvcGBD5dWPo408dXIro7e4cHiLz/NcKZnysxemobvFAq1HMv/RaxNyUASpu07nNJD/npu5BGNyB5ZDNunL+H2ZZXgCvac4ljNWEYV/b7ljGgfV5ZYzIbc2j3JsNTp8TPc8ljidYOBh850AJm59ejdnOOzVX/iZ2QMTcvwX/EC09WkOB7APM/4Bx+C/mUpMxVnf8akektCNZDDQdg9JRX+eKevgvp4xnsylSXvyDwnRvyqW3mr5/9+PkZdJ1fAF7XdlACZGr3byGL4XZ+BskjW+HdUYn46PdIvSnBrYY85mXcmAf8VUAq9Ri+Ha9kQj985SFGT3kRhBKaLYaxZo/rMaJHvGowKkHX9Vml8tnMf4/ZHdqYlG3nPpPVz00ZM97xQq7XHxtGJXrU93j00w0YPdWofmYPOPdHaxZbnVSaqjbhrBaEVVvR8zowlVLmAROfL8C3+xW9Wql/BVEowaNYj+gekypPteTxVVtxdvd6fYfphwiLrw/A/aYbITXcUL8RofnHmAMALGAWmxB9/RfMfg8o1S7QsV1/bOgdvbLy7tkEX+axZuPaKlSDEvwtlYh//r2y0KdqK4KZMUnYtWM94t8tGMbcXS889o+b4DO8wmPMaZ9R/RZWe7RqZsfy2XF4Hys+cqBK1FZ9rQSBWUtv/idMYQOac7X78pIxlwLiX9yD9KlxSyjX65k8fucOKeceqdRjwL0xqyIT35Nye3wa8OIhpna8gqD7MaTPHyC4+ScMQ8LZVb+3HOPavCETlG6oFeMXwvbX841ZULUVsSMz6DqfQABA6B2vUj0TrYLL5VoSfi6X9eHH4CMHUqqRwOcPEKxfWnml/p+M+OtuxJ7yuT1uINTytF/cyuOHUzJQr4fM3He/ZG673RuAz39CCsgKEq19q7+/ZjxGxx4JqNqI0JWHSOwA4u6NT/HezMcFAKjaAA/0uUX5v4X263d5xvz9Y8QBpdUJKOF3aiuUtmgCEYYfrVLuc3Vam3xsdZIjud/cimjq6yXHxikLLDZg1GzByQp5d1QifOXpj0/zvLQe8U+/1h8/P4NzYhVVvxGh+R9wVDjEQlmlKmGXWsm5t0vwpVI4l9Lu24Lm1x/j3OgCQjue7r15d1Qi/umMcKiHjIGPfwB2bIZbqwjdUmbbjc/1sFYqwx9waVp47KiwSGb6rnC8YCVqn6raJnIGVnzkUPrCFen9r/W7qzYhecq4sMO7ZxNwfumqzpzqtyG5+w7q3heir2rpoRO5uN9sRBLC46s2YXT3esS/0/bYguApIPK+0E7Nfv6qzejADxjesTlzn+clIP5FJXqetoqq3wb5nbuQ1HYkAPh264t+/C2VkK4kMqtDQ68L85JVWxE7AnSdT0BSt0ff2QTflcfK9s0bMJXZpj4vqz1aJbNWpx3n8HRt3/4755w5tEDS6TTS6SdYXFzEv5o/BADIH/7B5lEREdlHeu9/AAC/GX8PFRUVcLnWWX4mlVwhZ7w/rc75pQ3bnn9+fcHGy1YnERFZgqcsIyIisgGDj4iILOGUa/Ix+IiIyEY8STUREVFRMfiIiMhW5mteircQhsFHREQ2cll+yjIGHxERlRUGHxERlRUGHxEROVDx+p8MPiIishEPZyAiohLllFOWlc3VGTr+7127h0BERA5QNsH36f8+tHsIRERlzeyUZXacxazkg2/PT2N48iQN5VIXzjhPHBGRlZQWowvr1rlw3+7BZHG5rA+/Eg4+5Rf91e1PsLi4iHT6ieEaT0RE5cEFlwtwudahoqICFRX/gWKeFaVwXCjW93UJB5/yV866dcr6nXTa+rMDEBE5gRZ869ZZf/HZ5RUv4HIpyeDTfrHr1rkArFMvd88FrERUvlwul1oMuDK3nSed43ZhlWTwaZS/cJS/JljtEVE5U3LOqYGnsab6K9ngM/5yXTnO/k1EVF7sDD6l+2Z/FVKywadx9l83RETlwzz0rGlviv4/IzybL+uFLL0AAAAASUVORK5CYII=;fontSize=30;labelPosition=center;align=left;" vertex="1" parent="JfqZfDmFp8OTxattPUuS-58">
          <mxGeometry x="76" y="114" width="410.53" height="567" as="geometry" />
        </mxCell>
        <mxCell id="JfqZfDmFp8OTxattPUuS-59" value="" style="group" vertex="1" connectable="0" parent="JfqZfDmFp8OTxattPUuS-16">
          <mxGeometry x="-1478" y="-1922" width="1050" height="503" as="geometry" />
        </mxCell>
        <UserObject label="" tags="" id="JfqZfDmFp8OTxattPUuS-30">
          <mxCell style="rounded=1;whiteSpace=wrap;html=1;shadow=1;glass=0;sketch=0;fontSize=30;fontColor=#3333FF;strokeColor=default;strokeWidth=2;fillColor=none;" vertex="1" parent="JfqZfDmFp8OTxattPUuS-59">
            <mxGeometry width="1050" height="503" as="geometry" />
          </mxCell>
        </UserObject>
        <UserObject label="https://www.python.org &gt; Downloads &gt; Windows&#xa;" tags="" id="JfqZfDmFp8OTxattPUuS-23">
          <mxCell style="shape=image;verticalLabelPosition=top;labelBackgroundColor=default;verticalAlign=bottom;aspect=fixed;imageAspect=0;image=data:image/png,iVBORw0KGgoAAAANSUhEUgAAAYkAAAEyCAYAAAAP0CwLAAAgAElEQVR4nOydd4AdVfn+P2du25It6SG9d9ILkFBCpIcmSFEpioII8hXUn4CKoEhRpCiIYKVIU0pAeughJCQhzTTSe9n03bt728z5/THlztyye+9mW3bPk9x973Pe02fueefUEb1PvkIiAQFKKqmkkkoq6Zaiz8lXShQUFBQUFDJAAzC7EmBbC8UVV1xxxRUH8CMEwiLC+qu44oorrrjiIPAjU6ckFFdcccUVV9zkos/0b0kUFBQUFBQyQGvuDCgoZELfHl0oCAWaOxsKCm0emhDWCJQlFVe8WTiSQk3nxNH9eeDHlzPz4V+QCB9sOflTXPE2ylvccJM0dGQiRqC4jGBxCZrQ0DQfQhOYHR+JISUYBlLX0Q0daejUHNgNgBYoaNb8K9QP44b04rkHf4Hfp1FTU0NBQQFDT7mMuKaup4JCc8IvhEiZqGh6aeg6waJiyo/qR8f+R+MvKEIIDSklUhpIKUFKpCEtN4nEQBqWu/XRE3Gq927n4NYviVTuQ2i+Zi2XkrnLwqAfnyaoqqoCMB8EhKAl3J9KKtmWpV9iMimaR/qCAfofeyalXXujx2MkYhGMeDRpEDAlhuF8l5bBgOR3iQRpUFjemeLOvQjv3U7FynmWe/OVT8ncZEI3nGsLWA8G0Nz3p5JKtnXpFwgQEhCm2YAm4z6/n6NnfJdEJEysupJoXEc3zMYi4BP4BGD3IpDWV5ODu1dh+ZEgpY5eU0WwuIxex8xg6/y3kHq8WcqneO5cINKMhBCC5rw/FVdccfCbq2IBR9JkvPvoKSSiYQxDJ57QGdOnPeP7daTiUA2zlm0nHInh0+zGA6Q0cA8vOQYjlSORhkEiUk3XUSeyfeFbCM3f5OVTPHcu0/SmW3Pen0cyFzKBJsCQAoEEITAQpjchHP/Jby0r/4q3HO4Xwr5xaFIp9Thl3fpgJBJE4zonDuvKLeeOxK+Zq3In9O/EHf9ZSEI3TIOWYgxkVo7riVSi+YIEi8tIRKqbpZxtViIpDwkOReIYIlCnfyEy9CQw5yRaRHmOMDmsVydOnDyWqZPH8tn8xazbspPS0jKmjh/ODXf9FTTBMcP68M2vns71dz7W7PlVsuVKDen8pptU6okYwhdAApqACyb1dgwEwHGDuzC8RznReAKvMYCMvYcsBsRIRCnu0h8M2SzlbFNSSop8BqdOGsLfbr+WRf/9K0HiOYdPRbOX5wiWK7ce4NEXPyAaS/Doc2/w1twV7KnYzVemjCfkM0DCxWedSFlxQYvIr5ItV2Y4u6lppLlmBXP1EhKflr6vzyeEp2dgG4i6ehMeN8MgWNIeQ0o0K43mKG9bkIN6dua1P/8KgUEkEiEajWJIrOXLdYQXyesMWD0JaK77s7XIhK6jaRqGEBjA3CWrGTGgF0vXbqVdSRnrtu501sa3hPwq2fKkeQqsNTSDe2VJU3EJiYTB619swY3/bdnPiq37CfpESuNvZDYGHo7Hj6EbIPXmKV8b4iG/BlKnqqqKRCLhafDrCp/pY6OllO9I55qAzxavYvTwQcw4aSJvfPAphi5bTP4Ub5ncD7h22VmiKbhMNv4hv8YbizZTFYlx7KAu7NgfZuaCjYSjcfz2EybexsPhJAvk+LM5Lj2C9F2FTVjeNsB1V8PuRs7xZUFLKd+RyEOBgMUF5aUlLF7+JYN6deKSGdO59rb7OemYcS0qv4q3PJ665KdJ4W7UNQGzlm3jnSVbkFIS0AR+LcVAkLR0Ds9gHEgxKjJL46XQ8EgdMmqqsAqZ8e//zkKX5q996er17KuMsG3HDtZu2MKBcIx3Pp7XzDlUaOloth3XaMJp4O1uTcivIaUg56WuGfwkOUk3zDX39vh2c5S3LUhIb+jNfQ451HuG1U1qx/XhyzfmrkD6Qwhg7a4qx33Hwd1Izc8bny1Xvwsla5V+8zcpkZZzU0mkQPr8oPmw5xnsRl1I7zyEMCRSSJAGJHRr9zV1GgzHCBkGUoKQTV/OtiXTYd5eOYSXmQLb7s1dLiWVbLvSby5Dt58kmk76C9ux7JVHk0+Kpt0wJW5LJj28tFsfOgwYZx7dkcE4ZOxRIM3pCNH05cxHIg00aWAIgRAaBlrDxC+lVc+Nm/9YQgcrPRvOGUx1hAfX9bPjEILmuj/NejPwSfOBRAgNXfgaP12pI6S5N0gKDSl8zX5fKtm2pd/+OTeGNPQ4Mh5DYpg7vV2wm/7c47Osh3OoSO29B9tAIM014VIIhB4lKMJWHO6caOiiAF0raJR6yCSFTNC7Szkj+vdgcO9uTJk8keLCIKFgkISuE0vobNi0lbc//pwPFqygWtfyjn9g9w5cdNrxLFixlrc/X513Pof16UJh0I+UEp/Px9YdFew8FPX4Kw75GNr3KGKxOBOOHkJ1dTU2qqurmTHtWNZv243PZ+bf5/OxcsMOwjE9Y7qpyFSu4gCMGNSPksIgAb+PeEJnz8FqVm7YRtTIr55SZZFP58QJwzn1+EkM6tebgqAfIQRx3WDDpq28P2cB81dsYMOugyC0w74PCn0GRw/uQ98u5Rw/eRz9+vR00ozG4lRVR3n/03nMmruEtdsPIMXhlU9JJfOVot9pV3sf1RtA+nx+ynsOoPOgMfgD9mYdu+HOcqqr2z0jNz96PIrUE86cQzZ/7ngwDPavX8jxQ2I8+VBfCMdIxc79kqdf3cPjryVIyFCjDfIV+XUuOvU4Lj33VI7qVA6ArutEIpG0PPl8PgoKCognDB5+6kWeeO1TDM1XezpS51szpvDN80+jc/tSCgoK+NGdf+C1uavzyy+Sd//6K7q2bwdAcXExf/zr0zz44myPvylH9+XJ391MOBwmEomg67qnDAUFBfh8PocXFxdzyQ/vZP7qrZ54Jg7pwd/uuolwOAxAUXEx4879HnqgGGkYDDiqjDOnjuW806bRpUNpWl0BHApH+NsLr/HEa7MxNH9e5S30G/zsmks4e9pkhCBjWezr4fP5mLdkJXf/+VnW7DyU933gR3LMyH5cOuMkpowfiWatJsmUprsOt1Uc4Kf3PsbSDbtbxmC1km1C+pFgPqVbHQxpDvCYEmv4Jze9lDqdeg2m19iT0PUEejRCIlqT3ogjrXmCJHeO/cY2HkYKl+B8JxmPezUTLgOBOz3TWzwhTQMRjpOKbgHJjy/vyIypEc79yR7itMu7/LXpA0guO+tYrr/8AgSSSCRCVVWV0wCEQgVUhmuQSErbFYFM+gG48Vtf48TJY/nOz/9IXPiypu/H4PorLiRaE6aqqso0rNacTH75h737DlBsvRxOSklV2DzaxB3ePI0Xr4F2IaOb9cedvkzxG4/FCRUU0aG0kNuu+wbHjRtBLBajpqbGed8EeBtWzaqn00+YzNW/fJgDNXpO12d0/y787e6foMejhMNmfRcUFBAKhTCkuc/G7/eh67pzPUYM6MXLf7qDJ2e+z73/eAXw1f37MHQmD+3JXf/vGrqUtyMSiRCpqaGwsBCAqpoYsXiCwlCQ8tJi5+GhpqYGgLJCP88/9HOu/fl9fLh0c4Pen0qv9Nn0nh3XpvlIcmH9zUUvpUGfsSfSofcQ4jXhZCNOSiOOTB77bXPbACCTx37bLq54ZGo8GYwDLm7HI8CZk8gIaQAGVCUY2kPw1C/LuPTXcavZOfz66d+1jL/ddRPlxQXU1FTj8/koKipie8V+Xnj+DT75YgWbtu9GCh8gCPkFJ0w8mpu+fSGlhUF0XaeyspKRA3vz6O3f5+o7/mwOn2VIX0rYd+AgxSH36mZhFT2f/EtIrS6rDt3hV2/ewY/u/APRWJwxIwZz7snHYBgGAJqm8ejTL7N1115n7XUwEGDdlp0gvOmnJlUVruKBW69h0tGDiLoMakJqzPtiBZ8tXILfpzF96mQmjhpKVVUVQggqKysZ0Ksbf/7l9/nGzQ9giECt12fioKN44nc3s3//fsDsLWj+AH96+mUWrNzEmo3biMai9OjaiWkTR3LVxWcT0CSJRIKDBw9y0WnH0b6smFseegaElha/zbuWFXLbtZcwdfwIqqqqqKmpoV27dsyas5D/vDWbL1auJRI3kPjQ0OnasZyTJ43ghssvwNDj6LqOEIJ9+/bx6J0/5tIb72Tx+t21XL/8fr9Kr/TZ9P7kI53tsX68vFsf2tsGwt2Iy5RG3OFknnjG61b33EPmeHCMRm2QpoGQEjDM71HJpFFBpo+oZNbyonrXh807tAvynz/8gki12TD4fD7WbNrOXX9+hlVb95mGQQK+QidX1Tq8NW8l731+B/f9+AomHz0YXdeJRqNMOnowl5wykWdnLcySvveJPH2/QY75zxqP1//eqhivzF4BAlZv2cMlZ01znrYLCwv5+8uz0P3tvFYgh/QCfj8j+3enOhymuLiYeUtW8sQrs1iwciMxXXPCP/PeEsYP6s7jv7mJaI05HxKNRhk+sA+XnTmFJ96cl7W8g7q35+/3/j/HQASDQRavWs/PHnya3ZX28J8GWiGb9oT555vzeO6dz7jnh1cwZdwwYrEY0WiUr0wexb4rw/zuidcy1mefTu149bFfUxOuoqqqCp/Px+JVG7j78RfYtKfK8u933jivSx/b91fz9NvzeW/ech746bfp26Or02Pat28f993yfU656udI97BaPtdXccVz5OavzdqR6Xzy5IaeoNfYk0jUhM3fe61zBNJ64K+r8be/U0s86WHcfrwQXirtozoMwJL296oIV50TtPjh1U/n9qX4XLP2oVCI7/3yj6zcdggp/LWGj0sfP77vSSpr4k55Kisr+cl3L6ZQ07Okn6Gsjlu++c8SRxb/Ab/PU+9SSnwi1/RSLo80z9qK6oKrbr2fa+78G3OWbyFm+Dzhhebji3W7+NbN91FQWOipp2suPYegMDKmFxCSx359IwcPHADMHsSKdVu45lePs7symjW/Ed3HTb9/igX/W+vMtUSjUb5x1gmM7NM5Y/n6dO+M1BNOIx8Khbjpnr+waU+4zuux40ANP7z372j+gKduO5UV07tLeZ7XU3HF8+fpp+rVAwVlHc2bGNIa9roNRrpbMgzkdlZTelpu2MxsqyXO8JJ0f3QcY5FIMHFUgF7l0cOum4Sue/JoSEkklj4nkg1xqfHbv7xAQUGBUy5D1/n6mVOzhkmt23SDmRvqE0d9000N5/P5ePXDBZx29S9ZuHYniNpv1WUbK3jvs8X4fElDVRgKMGZw74z+vzZ9IqWFASftUKiAWx54AkP4Mvp3w0Bw471/sfb4mGlVVVVx383fQ8NI8x+PJ9LugWg093tr54EaHvvXTOcesD+9j+qUcxwKCvWFljynI7PMRV/eeyh6LJJXI242/mTpPeQTT7Jnkq1hEsJ84gz59aRBkO7vqQbDQDMSjOsXy6n8teoRaeXRnKfr3Or3w4UrqaqJOeFramq4/KtnoBmZ85exoa5n/tPiqiN8Xf5rC+8OFwqFeOCJl0lILefwf372v2kNabf2xWnhgprBtd88l5qaGqfH8vqH89i+vybn+onIAA8/+bInva4dSpg4tHda+ExGW7N6IbneX7M+X+YYwOTHOPz7U+mVvg695jSpdmMivbwuvV+DgvbdMPTk01IuT/1pDXutxoCs8aQZmRQIoRE9tB+kZHAvzdyx7ek9ZDAa6FAT59Rj/XWWP2d9KvIIH5cany5c5hx1DlBSFGJg947Zw2dJL9/8p8dTR/hsyDV9C4aUJGKxvOp/4449VIZrPPEUFQQ8/pEwcVgfiguCjp+CggL+8/bs3PLn0r846zNPtqurq7nkzBOce9ITPhV53j9bd+whHk94ohCIhrs/lV7ps+j9AlwrZWx4WW360vIOaD6/05AnG+wkr7NhTzMgKfGQEgaXH2of2tCCIaoqthLQBF89qxPURDENg8QcdrKlbTik+T1hcPSQAD4jhq4F610/Ajz5s5+u3Sef5lL/sz5dwBknTHQmhQGOHtSTNbtWecILkZ6eBE96Oec/NR4prQeMLOFdT81OWS33usqXKazQrB3nud6fWoB9B6voUFLgxGH32twhZkw7xulFAISrI6zatAPhDDXlVj8Rw8+mHXvoUl4EmPtdJo4aik/GMbSQy3v2c6lqi9+TvqYRjcfTr0c+9aP0Sl8PvdmTkKbFcD4pvDZ9eedudlLeRtzm7n/SDOU07NjWys3Tw+W6ZDYVQmjEKvfhJ0H/DpUM6p46B5Hai/BOYnctiSGM6lrLn0v9pRvA/MIjYU9lBMO1t6S6upoTJo/LEr729HLNv5EaTx3hyZR2juXLFjav+1NoxBLe8X+zFXX5NRKMHNzPed+FlJKKA5VEdZH/9RUab3/0qWfIqSDop2eX9unhs9VlPuU73PpReqWvh94vEJgzutavycMt1KJvV1LKgQzGIe0p327YXX49PQg3J6XHgbdnIjOES4UQGiIQ4sDq+QT8gt/dUIYWiWEaB0my95Dy3dWjCPg0BnSFL/dS7/pJtdGWo9c9h/rfsHm7Jwpd1xnQpyc+aWBY6/NBZkxPOOnlkX+ZMeeIWsNngnuPRm3pZw2d1/2ZmguRkr5f6pSXFGEkzMUDPp+Pzdt2gPAh6nF9N27d7dlRDtCvRxc2793kzkT2stURv63PfjUO7/er9Epfl958M51F0qXM4p7UFxUXpzy1uhvxzA07KW4ON8zMaf4Qmj+I5g8i/EEXDyH8IcvN9QmEPB9fsJBo5QEqln9KIODnnqsFY/pjzkeQOlltu6W4Y/Yw+nSVh1U/qU9/3qfAusPbPBKNk0h4V0qFAn6ETKSHSzOk9ct/ak/C8/SaKXyd/rOnX3s95Z7/jPG49ELqFAQDySf/ggIWLVlWr/qRSMLRhKeHJ6WkIKB5w2cpWz7XP1M85Bte6ZW+Hnq/+6m2PjIQCEBMktrwZzIGmQ2GAWhofj+JeITIwQqqd29xsuppUK1+kDQVTiEsigDiCQP0KH6/j4KAwW+vhvOm+CEaJ30OIuW7e1msFXdxIO6MHdernjI/AJJ3vWsa0ZSJy1DQD0hv/jJ3XPJPj/SncjuybOEyQpBb/TVUPWWKxpW++54B8/6ynk3qdX0zvY0v6Pd54sucqRzrBXf9pMRndhHrd18qqWSO0g/JBtb6rXilqEOvaWR6Yk7tUWTuPRhogQLCe3ewd81iwFwamFf6Lr1hFcjnS3DqmBi3fKeEHoUxiMQs3ylGIM1YpLgZEPIZh1U/Zv26nootQ2cbu1zLZ9rIZDwAPs1q9lzh7UTd6Rku45pz/mWyJ+GOLy0eV/iMZc3x/kotn1NP+dyfGcpu33/Zroc7rXpd39Rej5Tohis+kf0ekLL+119Ku+d9mL9fpVf6OvR+EMmlsWSRtegN3UBKrZbeAyC93XFTb+ALFrNt0XsYiRia38eAzlWMG2DQoVBQ2zi1BxKwNjD5hMGxY8oYNrwd7UM61ERAlzjGIaNhSFnV5PZn/TqTT3z51w9kXtniXnGTU/0L82V+CVfjltANJMKbv0yrhCz3+uTf2+Bmicf+kqmskFP9SSeNlHrK6/4U1u2XPX0pfM4GRzCXrY4aMZx/fbiyXvUT9PvS8h2JJzz1lO0ecPKV4/VPj4M860fplT5/vXUKXEYbkpOMxWIgfRl6D+kGw821YIgtC98BQ6dvxyoe/L8OHD2iJ+jpO1azQurpjXtNDBIRqMnFCLgNh9staSBiCf9h1Q8kG6vkd5vnEY+hE/D7SLg2a0djcSRaDuk5rNHznTntpqunOtPX/FRW1RCw5poTiQTdu3VOPk7leX0LAulHkVTWxNLSrX+9NPR1VVLJ/KT5jmuJ1e0wn27y4ZHqKqSvAKQ5R2APPTnc/fRjcc0foGL1F2DojOldzXMP9SJQGYVDOR5VkGU1UuaeQCbDkEtYA6RGZSwAiHrXjylTn67zj697106u8CbCNTHQ/J74INvTfL75Tx9GMdPJHj5T2ubzdA7lJVs95Vffzv3nisOdvqEF2F9ZTeey5IGKZe0K8ZFAJ5B3er2O6oTu6plIKVmxdjNCBB3/meuF/MpnlydDL+lwfr+KK14X19zjxu6bL1deWVVp/gBcxgGXsci0wsPQE9Ts30WhCPPkfT0IHLCHheqCxLsayT3HkLJiybVCyXMUR9aVTKlhze/rd/kPq34Mz4uVZN7hbd6ra0dPPWqaxpoNW5yzhpK2o2HSMy9lelz5+jekkVt6pIevT33LtPpOSR/Bu5/MJRQKOX7alxYT8tUjPSk5fvJ4Z2OelJJ9h8JUx73+M37IIf6U+skWX171o7jieXK/845pqJc8WLGbUEkfbAPhuXk9buYTu+YPULF2MT5/gGvP1inWvSt2siLnlUmu7/X1b7lXRnxs2hu0d5PUr55EpsJYFjuPeIb26ep5a1koFOKDuYvS4gEBKWn6tPzTs590U7JdazwZC2tVQt3pZaqofPOdXnYr0x5/X3y5latcR5xoQjBxxAA++t/WvOonoBl071yOMyfm87Fw6WqkP5RSLxlLlmO9NGT9KKlk/tKz49r6mhevPLgfPREHI91ApHNACGr2VYAR56JzO0OkLiMhcT/Z57a/IYN7Pt8xQDNYtFqg+9odVv1IyPzkl0d4n9Q5/4xpnidWIQRL1+9M848QSNe6/UgkwjHjjq5X/rPmO4t/TdPSwhQUFjZaehl5piftFP/L1+/kYFWNp47O/8qx5j2aR3oj+h1FSVFyt3VRURFPvPxuZv+p+WqC66G44g3BNSHM8VqBM3rs5XXoE2jU7N8FmsjQe3Bz6ybXDaQewW9U07mEOiDJZ2gofwOSZXOdNCAEr3wcNM8POoz6ERm7EiKv8FNG9ae0MHkgnaZpLF61nu37wmnhEX4i8eQYeSKRYNKooQTR88u/MJc2e3Nde/ia6uq0kvboflSO9ZeplnKrH0/5M0SSGj6Bxt//8xahUMhTR306FuZ1fS85fYrzalFN01i8ch0bdoczhs98Bxxe+eoTXumVPl+9Zj/V2LMHaTIHfdWO9Qh/0GMcsvUmzDFqYTXataCuJ/7DMQJZ5zQsf4ZO3JDMWlmWU/nr1Ls+hq5T3i6Uc3i/jHPTFecRiUQ8T6wPPvGy8z4Dt39DCGZ9PM/z/gm/MLj+0tPyyn9AMyh07UyW0txvUVv47bv3pO0+Lg5qOdVfpt3dOdevi5NS5/ZTUWq4mbOXUh3zLoW9+TsXAHpO9TOyd3umjBvuTFoXFRVxz19fRGpaWvjMZcu/fGnx1KN+lF7p89WbPQkEhyMT1QfNQ/jSeg/S42bPSziPdxkhyckg5PQ9ixHIakDsoSbJx0sKqDbKDqtebOmuh0gkwlO//QnnTx1OSBi1hgsJg7t/cDHFoeRafE3T+GThcr7cFc4a7u25ywkEkg18IpFgxvFjufikUWjIWvOrYTC2b0ee/+0P6VDifTeD8+SRJTz+QioOVHnKet70Y3KsJ2/jbqaXf32nDcnYT0Up/hL4+clv/0pRUZFTR0P6dufWK2eYbzavJZ2+nUt48JarqaoyyxoIBPjPu3PZtDeSc77qcx+l/qbqUz9KKpmvTJ7dZD1x1Yf7goUc3L4B7BsZ148Ut8FIWi4nsMc+pK5MyndYKduqpgxGw6NLOQm22Md9L5aZR1g3QP2kQhgJbvjGDF5+8CdceepY+nQsQIvXgBFHM2IUiDinTxjEC/fdxKhBvUkkzHkbKSVxqXHbIy8g0LKmt/VAlH+/M9cxFGC+YvO6r5/FQzddwrHDulNIHPQowogj9AhHlQY5b8ownrnreu7/6VUU+NJzX1d5deHn6Vff8zS8J04YwdShXcHQ6wyfb3q51nc2///bcoAHn3qVsjKzxxiNRjl54nDuvu6rdCsNWs9SSf8BoXPGxEE8dts1xCLVjoFYuHIjDzzzdu35y5Cpwy1ffcMrrng+3NpxLTGftyxZD753/VKKu/RAJhJYZgKQ2Ed5O27SeieBcPckTPfMK46yrUzK5HaYq5oAAhpvzy9mzf7OVhYPv37cE426YSA0aw+jHuPy877ClV89lUg0zsFwDZoQdCxvB9aTuL2gSdM0DOHnmjv+TEwE6kz/oefepbRdAdMnjSQcDgMQDocZ0rc7d//wMgwp2X8oTEI3KAwFKC0uxDAMampqiMfjFBUVEY1GnRVVUkqkYdRZ3pmzl3PSpFGMHNCTWCxGdXU1v/q/y9m+5xD/fW82WyoOsmjNNqrjeMMLbz1JKfOvf0laHJ54MoR/6ZMVGIbBj648n+rqaqLRKGOH9OG5397I+u17+Gz+Iqqqqhg9cjhHD+lHYdBPJBIBoLi4mA8XrOCOx18CLZA9f6TnCyHyK5+rJ+HEcRi/V8UVz5X7HZPhHIORQeag1/wBtn3xPkeNnoaGRI9Fk6YhZQjKEz5ro57J7TCNQG1pART5+N/GID/8W1eSb/9ugPpxQSD4zm1/ZNyw/lx76Qw0TbOMgU5JgWk8ItZkqJTmu56Li4v5ZOEKfvfkf9lfnUiPP0P6Ugh+9ddXWbxiLT/4xtloQjrpVFsTzIUBDQIaUhrouo7P56OoqJj5y1bz73c+47gxQzhj6lgMwzSg5lFBtZdfCo0f3f8vbr3qXE49djSxWIyamhraFwf47kVnUFJSwjW3P8Ki9bs94QN+H0VFRU49FRUVWY1oPvUvaV9WSpH17uqioiIKQ8E6w78yeyXLvtzET759PiMG9iEcDhMOh+laVsglM07G5/NZdRcnFjMoKiriYDjCXX95kbfnr8Y8uCB7/AG/P0PZ8vt9ISQd2pc5166oqIigdcBjQ/x+lV7ps+n93if6DKhD7dZLQ7J1/tsUdzyK0l5D0HxB15yEgSElmj8E1s7gOo1ApkZdkxASgGaWQxoZvkucuQ8prDjsNFO+W9ZgTzjAUy8Feez97iS05A86n/JngjPEZhnHwqJCdu2r4o3565i14H7GD+nJmcePY8SgvrQvSe4CNqS5MWvZ8g08/doHrNsdRjjvjcgxfeHj1bmreWfu/5gxdTRnTvgGH0YAACAASURBVDuGjqXFFAT95vBKPEFNNM6hcIRP5n3M6s0VLFu7hRppNrId24U4b/oxVFebQysJ3cgpfV0E+PXf3+AfL7/HtPFDOOnY8ZQWFaATQ2o1ROOueCyxYVsFv3v8GWKxOEKA5vORkD7yuj+Fj4effInioIYhIRgM8MXK9bXHYanWVdTwvbufZPBRpVx85okMH9Cb8naFzrJehEZ1PM6qVRt5c/Yi5q/cQhwfaL7k7ylL/Gu37spcNkTO95eBj7v+9DRIHWmVbfXGnfnVj9IrfT30YsBZP6jtFq83jHgMPV5jDVF4Ew0UlBAyDrLi390hHM1gLFKMht0rKBDc+miCFz/NM8sSfEJHOD8ob3gpNHStGN1XXL/C1oK+XUr4++3XOE+ABYWFnHb1r9AD3rSEHsMn42Dopv3Ch/QFMbRAw2VGGmhGDGENrUmhIYUPmSWNsyf25cZvXUh1dbW5ouof/+HV+RvrkzBCjyGsiWRDBMzGtQVDGAmEETNnfqRECg1DC2StKwWF1opad1zbqI/eFwzhC4ayh48LkhPGlhGoc2hIUBn1Yfjd3fW68icx0DB8BXXmnwYsfzK+DKZa4DJYlsnyh0gQyhD+8NL36IUPqRWSoT+QMbwvxVMkbhra/NMX4C/wpNtQ9dtYenwBpC+A3kLzp/RK31R6vwSwVxxBcnTG9uGsWGpovcS79NTitc0zVEt++y3Jnb44ZlPl7mm44nO5Cwy2hIOcd1tPpBZswvIlL0DapKUkOTfTyOkfjr5rp/bOPgApzdNNpaVsCflTeqVX+sbX+wUghfd5V4oUS9MoeoGzzDWPyeZCn6RQxql9otpraMqEtS7dXtLaJOUzISDDyha8PYlmqf+69WOOHuHsKJZScrA6jkC0mPwpvdIrfePr/Y4CL2wuGlPv7HVINuj5L221jUkEjITlJkAEnLC6bqYnU9Nv7PLVgqZKv7569BgdSpMT+LpusH7rLiTBFpE/pVd6pW8avR8hsJbFmpoMsjH0QkjSjsiozQjUtgrKiEDBYCg7zXQ78AZULweRPO/I3kHYVOVzy7T1/1i9miZKvz76ozq0o0NpsTPhvudgFVFDQ/hEi8if0iu90jeN3ly8Yf5pcpl9J7TVw0jbDZ2yM1oaYEQh1B963wcdLoQOX4M+D0DBIJD2G8JolvI55UxBc+UjH/md8092No2FQiFe/2AuUvM3e76UVFLJppV+BNgjUk0rBd4jNyTpPQq3W5Y5CCMKpdPBV5ZshX3lZq+iZpWZjE9DajjzAE1ZTonMsJNY0Hz1XrecMqgTU8cOcXoRPr+fdxd82Sz1p6SSSjavdOYkmhq6r5CqiE67uoxALjumZTw9AWmdZ+ETbNoKkuZb3542cd1CESDBNV+dxtknjHWO8iguLuaRZ99gTzjHl0MpKCi0KjjvuLZhrYhqdK5rxXy86ABnjjZAz3MprPu7EHDgTSg/CwJdzETiu+DgmyD8UOTj358Ug9CatHwehzQI69P0+UnlmhGja3kxxx3dn0vOPIGAJqmqqgJMA/HGp0uZOWd1s9Wf4oor3rzcbzpIzEZLIu2Fso3NheA3/wpw/ASDkni15SfHXoTHmPghugE2/gDKTjVLdvAdiGyAgkKWfBnkndVHWW1yE5bP4kgy9CTsq9D0+enXpYxO7QJ0Li1k4phhDOnXi/J2hei6bh3oZ85BxHXJ7554jfcWbXQZuqbPr+KKK968PNmTEIAUliURVqMqEDSefndNO75+m85TtwUpT9RAIsPKpdp6FDZECKIbYdefLAc/lBSxbEOIrz/YC0MLNkv5QFiH5hU5h+tZGW6y9FP1J4/tz9fPPploNOrkKRwOO/msicZ56tUPeWX2UqKYb+az93Y0R/0pvdIrffPq/RL7qdaETCFSNK5+1e4yTrhe8NtvGZx+TBRiBtRkMgiWoXCf2uqGCJifkEaN9PPQC+34x8c9MXwhj/emLt/GXfv5yX3/5IypY5h89GCKigrN+m+i9FP1n6/azGXnmS8xsl/feTAcYdHKjbz72VKWrNtOVAZABJslf0qv9ErfsvRi0Dk3Zmhxmwe9S/dzzvj9XDAdepRFAAN0HWpc+ync8AkImWPlUkrWVhTx3HsF/GdeB2oob/L814UCokwa3o+PF6+BYMMfJpgLNCPGSaP6Uh2JEY7prN28nYiuIX2hZsmPgoJCy4YY2IKMhA2h19Cz7BBDux1iWJeDnDTOR3kwRkHAQAiJrgvCiQCbdko+WKqx6VAHFm1sR41oD1qzLdhSUFBQaHUQg869SboGpUhOb7csXlYcpCDoQ9M0EgmDcCRBdTTeYvKnuOKKK94aubXjGsCanWih/GA4xs79NezYW83ugzVUR+MtKn+KK6644q2Rmz0JBQUFBQWFDNAAs3fRkqQhQcrcZXPnV0kllVSylUox6NwfSZA4Y1CNKa1jvKWzSslK2unayDT3ZHiba153oSXdhXnCqlmypLsQmP5t2VTlVVJJJZU8wmXjLQWSEolhpmNJ59wiaZjfLe4YDfvdy6mmLGPmTaOQbgRsrplOQkO63U0lCM30bnMFBQUFhTT47R12QoD9HF5vbhkEaUis808R0hoWImkYpGFuiDO56S6QGFIibAMCjruULhNhpSOEQAqBBhgIhKaBsHYQCoEQJkcIJBqaJjCEQBOamW9NWvk3pSZw3tDUYPWhuOKKK36Ec2u4qQEgTaOAbQhcBsDkhosbFrcNRooBkRJsI0Kyx+HA7BIgLIkQSSMhBKC5uGb2GoSwpMuf4y4cA6N6FgoKCgpJmGc30VgjWpZlcp7Zzb8SgZDC3PIthGm5TBNjWbBkJEJa3BUvLn9mD8Cdrt2TsNIX1juZhctdCBdPStvwtIyRQCWVVFLJ5pd+CYDZcGMp6sWFMBt0QTJ6oYGUpruUpmGQwhxSEgIhNdNQyGTvAWfICQQSJAgMrIVYTor2k7+wGn6EhoYgvZdgz0X4PFwKDdugmEUxwzZYfSiuuOKKtwLud79r2ZSHwbGGd6S5ssiZgDYMENKal7aGnpBg2Kua7AP8rMw5E9kSk0pPenabjhRWVwJrlEiApplcEw4357ftiWrL2Ghmb8b0Lxum/IorrrjirYyLQef9WNIUsCejkWbiyMxuLr8Odzl5pwxEiqOw/rvdM7kpKCgoKOQCb0/CRmNwzXQQdfmX8rDib7T8K6644oq3Qa7Zbri+NCsX9jyB3QvIkbeU/CuuuOKKtyKugUiO51tSccUVV1xxxUGgJe2GkkoqqaSSSnqlP302W0kllVRSSSVNqSExoaSSSiqppJIp0tpxbe+Ntt0VV1xxxRVXHPz2HgVpn39hdTMUV1xxxRVX3C8QOEajPtI51hsllVRSSSVbmfS7OSTnK7JyKfPzr7jiiiuu+BHL/Qj36FNSkcZd52K49V6T4U0AmcJT9Yorrrjiirdo7jcbculYEIHw8gx6A8MZaUr6l5nDK6644oorfsRyMeSCm1ONRxKul/04PQbp/MnoT0FBQUGh9SD7O65TDYTbOGQ1Hp4IGiSDCgoKCgrNB839ClAQJE+Ftd3B/eo3uxsiwXoHNUkDYr2T2r3iKalXXHHFFVf8SONiyAW3SNPVav6l7UsgMZJcYnEBbncrNimFi5NMxTW6paSSSiqp5JEl/WbHQVhOKdMWEvNoJ4kVAASG9U0mfcqkuzsJQ7ontJVUUkkllTzSpPmOa4nVQZBIQfK1o9IyBYYEIcGQGEhK23eia59BlHfqSkFhkRVYQUFBQaG1IbnjWkrwnONkGgoJ5vSENL8PnXgioeIyKsMRtu7aRyy+u/lyr6CgkBOKI7sJF3Rp7mwotADkey/4k6bAlOY3w+lFmK8TNZAShk2eTlXMoGLnnobOt4KCQiMjHj7Y3FlQaAnw5efdfMe1Ia3ehD1sJKzhJZNJCf3HHMeeQxEMaTRkdhUUFBQUWjA07LOYJObUs8WllE5PoqxbT2oMvzIQCgoKCm0MGsLaG+FIs1OBa2aipMNRxGLxZs2ogoKCgkLTQwOSe99cw0vOTDWSeC0bsxUUFBQUWi80zEVNyVVM9nwEAikkQvORUKNMCgoKCm0Sri6C3Z2QHi513Vn7pKCgcATD3PVqr3Z3dr0q3rZ4vtDMI5pc8xFWb8KZl1D75BQUWges37Lzm7Z/60Lp25I+X/g9bx+1tkUkpVSngCsotBKYJynYj5Qejeu70rd+fX7wC9cu61SJc4KHgoLCkQ6RxqwhZeyxg8yNjdK3Rn3u8NvBMkllIBQUWg/MjoS0Wg2vlFnclb4V6vOEZk5FmONWSYnDFRQUWgmEM0ytZFuWecJ6xzXOHgnb4OCSCgoKrQAyOTagZNuW+cCPSO8vJF0EUi1vUlBQUGizMPdJOEucskgFBYUjH2qfhOL1eObXzIEqK6TnfdcurqCgcOTD/bNWvM3yfOFPH6VK51Kd/qqgcERDYiCl1tzZUGgBMO+F3Nt0TXh6D9bO61Quk0ZImKkorrjiRxhXH/URmPDIOu4fZ8e13YHIyKWBRADmNjtzlYTiiit+5HBp7rgWJleybUtz931u94+5TyLbB5LjWUiQLuuhuOKtgJ938fG88pNjuL6F5KfxOCCsdYtKIqafzcd/vpaXLm/KdKfx0qPf4+ObxjRv+YF87h+/zKCX0vFmfqSB82pTJ4Diih8JvA+/vmEQowoMVs9+n/83x6u373UM6foNtKT8NwyXhsR8QrS41Vw0FP/mjVdx05AQbsSq9rN48f944OllrGrg9A6b29dd2vXSFOlLJ00pZQPEVz8upXU/OB5qv380gbfX4JHWJxna/iiu+BHCJ3RkQEGM/WGN/n37ZvBPfvE1IP/Bd77CM5f0aaL03BCNxPfzyvceZez3HmXGAx/y5EYfY6YezxO3TWNqk6R/pPBUNEf6ud8/GinOGaVtbVMkWdyVXulbiv68gSUUhw/x+o4ogS6d+VpqePtOb/L89aFLkZl2U9WPWd50KbO456fHU5fbVq/gkT8+zY/m7Ed2H8ZNl3dv5PTz1Sfz23TppzTSzVn+PO4fa8e1RJK0N44UWO7m31RJFnelV/qWoe/D+C4Bwrv38u8v4ayBHZg4Bf79qTs8gI8uZx3LEwNLaF8AGAa7tm7m8WdXs8Adb7d+3Hx2XyaUBwhoQE0VC5Z9ya8/qHDSPe/Sk/lW7yiz7p3DH538DOeRn/ak/ebVfP3ZTYiJ43nm5I4UA/QezKs/HQyRvfzjoQW80mj1Q4YfuCWyuOetJ10/+8nFzB85jakjx3CG2Mabtr7PeO771hiO7xIiqAFV+5k9Zw4/eGkTCDjj+1dy16gE7z30ND9eacV30UUsmt6JDXOe5qtPHrLSmcbLjw0juHAmM/6yDaafy8df68TKl+ax95jJTO9mxh/bu4mHH3ydpypc+bOz6crv0LNO565pfejXzgdA5c5NvPLS69y/NBlu6MnTuPH4PgzrXERJADB0tq1Zxj0PzGG2q/xTLziXm6f2oEcRYETZu2UPh6pT6qnzSO6+NplP4lE2LF/M/X9eyOyGvj5OuaVL1n3/aKalIbshAqSUSGkoqeSRJSd0YkBBnLVrNiCX7mVzRKN/n34efyYKGdVPZ857czjnnjn8cdEh2vXuy00X9U3GVz6A3148iGMLw/z3vx9xzmPz+ccWH6MnjeHhMzulxEdKflw/S2kgP5/PpfdsZQsQ3ryac+55i3MenM/LjVgf9hNlY32S5U7VreDzHVEoLWWi7dZ5Ek/832Smt9vPc39/ijG/mMn9a3xMPPV0Xrq8N1JK3li9j0pK6T+xxInrun7twYB+vUYm4z+7Pd2pZsPSrSZHAiEmnTeZfuvmcPm1j3DJq1uJduzDdVeMT4ZzNZS2W/dzv8rjZ/en0+5l3PKLRzjr/k/5XOvJZd+9lNuOTvrr2KsTnas38sTjLzDmmqe4+s0KSoeM4abLeyTjOuUc7jq1B6V7V3DHXY8w5p45zIq0p3uRN82rrpjCGZ2ree+pFxhzzQvcMbuCqJZgfSNfq3zuHw2EaWkEJN9OZ8tUy5MNSq/0LU9//qBSimNhls2XwAaWVRgEunbmojSfNXz09FweW3YIOMS77y7hw11Q3OcovmXFf8opPRlSUMNnr8/lHytqYP9eXn7pf8zZr9FryIAMceaDpqkf0YgfG9l1RfSYZvLzLx7OqKJDvPfEizww/xBi91ae+vMHvL/bR7/xE/guIGbtZEMU+vU62opnMEM7wdI1FdClG9dbcZ/Zq5RQ9BCr5nrT2/b5TC59egWrgdWvL+TzvRDq0o0zs+Z5OLdM6UbJ3vXceu+nvLUbtq9ezI+fWce2QHvOOm2CE+7TJ17gq7/7gL8trUBwiPmvLmPJIejXd5CT11tO6UlJ9Vb+cucHvLIJxKYV3HP/Rran1FPPdj6o2s8bcyoQVPDKczO59JHFbG+Ca5V6f2RDTlswpZQgrV16lnXxcqVX+pam78u4LgHiu3bzvKV/ftMh4sFSJkxxhwfQie1zhw+zqjIKWiH9x0uk7M6xXUJQVcmcNe70K3h6aw0Eizl6vDs+0vNn/pBc+Uu6NV39mM/PjSHdzU2q3oROrFoiGcz03kVwaD+zlrj9beXh9Ycg1J6J0ySSeSzeDXTsxGVSIocNoF/pIda9WMGGUClDjwEpSzi+WxHs3sHDKenFjApXPrZwKA74fXRKy5fFj+nP0FLYs20dn7jzv3IeS3dDsFsPLnK79xnOdd+7gJfu+Q5zHz2FqaVAu2JOB2TnPvQrhcotm3jSUx+uNC33Wev3E23fn/vuuoDbTu1B90a6Pl6Z3/3j7LhO3WmNy91+T4Wwiqe44i2eT+rEwAII9BrMa7ecyau3nMlrU8sJoDGg70CX/yTc4T+qjpuOmkTIEAE/EI3yUUp6u6Ru+as9viRSOU1WPwjLrRGkp8wp+lKz8qiYB4Iign6gOsybKf62GVZd+kz+/Jb9UNSBSceCGFlCj737eGvTNrYdKqLfqJ4ghtOjDDZsWeZN15WZWt3dvJ2PEFBZ9WVKuENEDECDkOU+9cILee/maVw2wMe2xYu5/dHneWUn4PfRGWB0EaXAof3r6qynT5/4L7fP2sT2UDfOv+A8Xv/DZTx+YZ9Gu06C/O83v/kUkPK0g3SkdCyLMN3tnXuKK96C+fkDyyiO7eep++bwgpTWLS+57MozuahrZ75mrOEF7CdKae2TSIaf0S4ExAnvlkhZQzwBhEKcICUfudLrKswJThISaWSPz/pxWU9tEhxD0TS/r/R9Eg0rPeXz6McyqpsPDh3icymRhIklgKJizpDSnMi2/PfQrLrUJVLCts/3se24AfQbVsJ1XTpQuWc18+Rqhuw4gak9BtFjWin9QtUsWXUQaZU3WdWZymu5Z/JXqRMFSooHgVztCldKgQYYEJUSyRSun9aNjnu+5Pqfv81s676adIErvm1RDgGl7fsj5WJv+mn1dJA3X3iVN18QDJ1yAjedM4JJp07nvq1/50dzG+d6SWlY+yRyu3/MnoSwehIZPsKZmJCuSlZc8ZbMBzC+a4B4xR7LQCT1T22thGAZE4/3/my94XszvksAqqpYsF4C25izKwrt2nHcQHd8nbisRyHEqli6wB2fj2CHZHxdjymig5OM7a+KfREI+v1NWz8eiAxuDauf+u2jmVSks2HJIssgfMl7m6uhtD1fGe0O35Pr+5dCdD+fv285rVjHhkNQ2n4sQzvBhrWLAHhyyyFo34GL+5ZSUr2Pz+fWN38uzF3HqkPQqecA154OAcOPYVQXiO7cyvMAJ3emRwA2rHnHMhAAnU1DYmPFDrZVQ0mXo7z7Q7r4CdaSv1WffsTV7+6gkiL6D8kl/4ejz/3+0aTFpcvdLU3LI9VHfY6cz6TODCyALVtXpesW7me9YQ45SSmtW72ECZeN5JTehcj2Pfj2lcOY0C7OkrnLeMcK987bm1kVKeK4Gcfwzd6FyPYdOe+CURzXwWDLyi953vL30o5q4hQxZFov+slCRk0ez50ndiBomD+oZF4OcKAaAh07cVE3SdfeHenXqPVC8kfuSJnCD0fvanwk9BgyjFtuupzfH1NK5Zbl/P6pLU64l59dztLqUqZfcR7XDymBzj25/NqTObmLzoYF8/mrE/9qPt8RpaRTX/qVHmSdvVv+g/1sC7Vn+qBiojt38KQnX+58ZM8f1iGoQV+JpV/O3bN3UtlxAHffdAyTukh6DBnD778+gB7xfbzx9nzT3/sVbDOg36BTOaOz6efuX57PGV3c8S/iyUX7iLbvy+03TGZSZ8y4bhhAD6d9ldB5DI/f911evvYYzu8joXNPrh/dmRKqWb+6oa9PUkqZX5vuFwiksMapBEgprB6H1Yuwuh1W5wN7V4XiirdUft7gMoqpZO1Cma7ft461+/vSv1tXLuZL4gCV+1lKF676Rl9u0IBINUvmLuNnc8PJ8PtW8uN/6dx63gC++o3pXKwB1ZUsmDuf22ftSsY/awnPdZ7AJYNH84efQ7zyIHNmraL8pOEMxB70kggq+N27G+h1dj8uu+psLjOq+eilWdy3qrHqRyYfLBtL0oHzH/8B51ssWrWP+bPe5u4XvmSb21/FXC5/QOf3V43lshuv4DsaULWP2W+/wfUvbvTE++Ta/Vw3pBs99q7jzQo7/AY2HBrM1I6wYdWKDPnIlj8Xf381s08+ijOOuYTHNz7O1e/Dtlf+zXfjZ3L39HE8fudEACp3buTJx1/j/iV2PLN5+N3O3HLSYO7+zWBzX8P/lvJ8zSgu7p6Mf/YTr3G/72yuHz+Rx38z0fS3cCmfF4xlmFMPW3lvSV8uGTuOX/5sIr8EqD7E529/xI/mNuB1SasHad0Vud0/Yvild0gw13Lb1seZ5TZ0pJQUHzXIFSgpk0mi9Eqv9C1YX5LYxwG9gFTY/rNB6VufvswXIex3BkDrvH80ASAFAhDWoU5uKQB7x2aqJIu70iu90rdEffonm7vSt2Z9fvePPWsGEq9KklQlBzSVVFLJI1Ca8y8y6eR+VFS8TXFzTsJwKWuXyXdcOyuZUlY6eVJLR+1apVd6pW9JeoEwf/LYowQ2V/o2o6/l/kiFwO5JSPsJI/nUYTmYfw3D9C1xltE6y79dUumVXulbpl6af+xfdLJX4XDPL17pW7HevBeMnO8fc3WvvRfCksm9EcJJRkg3syJ0UaVXeqVvwXpSkeqieJviedw/fnKBNHAvikJKZMqjitIrvdK3YL2U9o/Z8qZ42+UGEpnz/aOZCmmZDen9pJoWsAJmkEqv9Erf8vXQ7A+xijczh7zun5x6EuZMeKaUHB9Kr/RK36L1Zm/Cfl60oXjb4wh3zxLqun/SjERyx529J892l05UmaXSK73St1Q9JJuB1OZA8bbFTbfU+yX7/VN3T0KAOWZlQkkllTzypPkbdpgXdmuQDUrfuvSuOapc7h/NvHFk1n84n1yjVFJJJVuiFHh7Ew4XKVzpW7k+v/smS09CWB7MaKUhaVmz84orrng+PO0d3HiheNvhUkqkcO24ruP+0ZCAFKbCE7Pl5ki3XiquuOJHGldQAPK9f/x2p0G4/Dj9CAFSChI1h/AXtbM8CGuVhFRcccWPEJ5c6qjQ1iEl4LyPve77R/OEFplGtiTxSKU7CUeruOKKH2lcoa0j3/sn85yEPdshpXlEh2GQiFTjCxbgvPtUSSWVPGKklDK1dVBoo5DI5Duuc7h/kjuuwexiWB9B8qbS/H4i+7Yj9YTjV0kllTySpIKCG7nfP9YBf66w7iEn1xHigaISqrZ/STx8oBEzrqCgoKDQkpAy3GR1McA0DhKr1yEQAkJlnanZs43qiq0UlHUm0K4cLRBq6jwrKCgoKDQR/E5n1GUfnBMAnWEpYeoEhNp3QY9UEzmwm6qd6zES0eSSWgUFhRaJPUDWHdcKbQoVefr3e3sPmL0GpMcwJH2YOn9hMb6CIjNMyimC3pV26qZUUGgpuO47V5pfBNb6dpKvkkHYTiacAQXhdVCz320O/h4Vsz0OMmU9tWeXZpbvmbiCgkLLQq/ON1ivJsYxEML9KjJsd9ODcLkBiAxDBsmRCGU8WitEIpFQrbuCQhvAq4t2eA1ESu9B4DIOMmkUJLiMiDWmoIxCm0Fub6ZTUFA48pFiILANhNV7EJ7h5uTcpNsgCKGRcRhZPWq2WigjoaDQVpBiIDxuAmdvlBQieeaC2yhYc5TeQ3wsf5rqWbRWKCOhoNBG4MxB2HAPOzmLVaTnYB4rJCAdQ5BcxJJuLBRaH5SRUFBoS7AnqT3zEjLZe3B6Efb8hB0w2aMwF0c5fQ135E1QAIWmhjISCgptBM4wk2sOwu5BCFtvGRHTjrjnIswYajcEasipNUIZCQWFNgJn61OtBsK9dyK5HNYVixpmamNQRkJBoY3AXsnknLcjcA0/2QbCGmzyLHH1GgZ7FZQTZ8o3hdYFZSQUFNoQMvcicIaYkjCXMiWNg7Smt82Ns44xScbcRCVQaGooI6Gg0KaQ7EUkVzEJz5yD/d3uK9jGIbly1jUepU5aaPVQRkJBoa1AmvsZ3L0IW2GbgtQeguU7ZfhJeoTafd26oYyEgkIbgXePhH1eU3KYKWkg7CEmu8fhPeQvs1FI2VynDEergTISCgptCXbbL7xNv/B8k04PInkMdKqBSOldyBSjoEahWg205s6AgoJCU8E6sC9l6Ci51FW4ZiLcp8C6DYREbJ/Joz+8nCc+qbDntC0cYMljl/HCvINWPDZvwLdZrn+Gu374DNsaLkaFOqCMhIJCG4J5smtyTiF9WEhau7AzDTGZhmPXio/oNO5YwgsWc9BlWNxxqBcctR4oI6Gg0EaQ+n4IMk1Gu7+lzlUIAXITa+dAz6lTGLhxDmv2ZDEIyVMDXd8b6EMDx6c+tX7UnISCQhtE+tM/uPdEYO3A9vQopIBdX7I6PJHT+g6iatxalqw7wIRO5a7GmxTjkx3bo1CjEQAAIABJREFUXv0mn3b9DZMOPMOLbyyn1zcf5qKJ5SR2fMT7z/2LBRur8ZePYfxFVzB9ROes8dTmP7prMYvffYV5S9dSFS2ix9RvcNY5J9IpZIY9sOgJZr7yIdsOQLv+J3HiRV9n9FEBU3loOZ8+9yifLj9AonggI878FmdN7WM2mtFNzHvqT8xeto1ocQ+GnHg5p50ygnat8LFbGQkFhTaG5FEb5v4HzWUIsq1csl9EtPfLj9g54UK6akWUDRnDi0uWUnXMibRLevXOU6Ryb7RsfPFxii/+IT960DICW2fy9z+sYdwND3JrjyIIL+e9h+7j07J7mdIjJV6AbbX7r9y0Cd+x1/H9Szvjp4IFf7mRlz4ZyNXTe8Ced5j5zwpG/PwfXNEJopvnsDZmxR2ez8w7/0Ph5Xfy/75bDvFtLPnnHbxe9CDnjg2w8bXbWdjxx1x//whCegUbv9hGIls5j3C0QrunoKBQb2R7lbUE2MaG+ZsYMXAwfqBdv1F0XTGfdQfIYAiyWQqv1UiMuZDTxnWyeJjV7/2bjhdfy4QehaZb8XDGTytjycqNGcLX7b/TxHOY0L8Tfk2C1omhY8awZ+0aqpBQdZBdoc6UF5vxhXofy4jefkCy67Nn2HbytZw6osyMN9Cd0SedyPJly4lSRXhfnOLyMkKahEAn+k4eTbmWrZxH9kf1JBQU2gqSm60dB5HynOgsh3UfvWH1IsSuFSzZPIYJ/YrMIaWuQxja4UnWrqtm9LgiUh/znbfdCZGxhyIE0K4dAUcXJxqB1U9ew11PpnieHjfjcOVJ5OIfc8hp2ccfsmTDWvZsOwDDJ5rh+5zCBcf9jhdv/wF9p36NqVOPo0cHc6hJr6ngwHs/5643U+Id3pOEaM/Qsy9n9R9v5v7FxzH11HMZM6wHoVb6yK2MhIJCm0Zyl0RdOLBmDrtYy+u3X8brbsXSxUTHHUvI5XQ4m+lGXvk4544tagD/cba9+nOeXtWHk876GhfP6EJi6UM8sthSa+UMPO83/PSUbaydO5O37vknnHY7V03vA0D5jN9w3Sl9Mid61KlccOc0Dmycw8K37uC+f03kwp99lyHF+ZX1SIAyEgoKbQl5N95W94MK1ixYS48L7+eK47s4KjbP5E/3L2JjzbEMKcTpOdQP5XTr25m31n7JWWPH5NA41eH/wBxmv3cUM+76PiOsxrsqUzTFPRg4/fsMHDSTR37/Kdum96FTjwkc+Hg1e6b3oVO2HoIWoLz/iUz//kS6/fNqFv/vawyZXJ57cY8QtNIOkoKCQq1Imz+oAwdWsH7jQEYMTVll1HM0ozt8xqpV1YfVe7DRdfLX6Dv/T8ycvYmoARhxDqxazh6jHv61AFDBnl3VACT2LWbeR8udsIn1b/DevE1Uxa0ibl7Dgb6dKAZCo85ias2zzHx1MVVWvFWbl7MrDBgVLH91JhsrrIA1G9i5KUB5WSvsRgC+22677fbmzoSCgkLjY82ucHKVKuAcz2ERa7Tf6Qi4z3KqWvIib1ZN4LSTB1BgzVGYyjJCkdm8vb4bk8cMoFhu5qN/fUhwwkl0Ly6gwMO9+alc/RKLOYkThnRMOhb0YuTk/uz/4CFeeOoZPvrwI3b4uzOg3wDaBYGiAuSKJ3h1xyCOG94FrTb/Jb3o2W0r855+iNfffp9dDGXSSQPYvj7IyAl9KSgIUjn/H7z81F9577+vsVJM4WuXn0W3EODrSN9JE/GtfIZ//+WvfPD2u6yr6kSPwQPoUFRCkVzNJ/96kJf/8zyffLaTbjN+wvQx5a3yqVskEolWuGhLQUEhFW8s2QWaZSTcZzh5jERyiawjU+cs3EbCsyNboTWiNRo+BQWFHJBLw+49GTYVykC0BSgjoaCgkDuUQWhzUEZCQUFBQSErlJFQUFBQUMgKZSQUFNoQ0lYupcw5ZFrZ5PWfJbzSt1q9Wt2koNBGkLq6SWjuhiHz6ib7LEDnTXV2KyKdP2riupVD9SQUFNoQhL1PQqTwbHqy+Fe8zXBlJBQU2hCk9HQCkjybniz+FW8zXJ3dpKDQRiCsR0QhzWEjZ5hJmOczCWuHXdLdHoSy/DvDTZY/Uvw7hwVKxVsRb5ieRMUCfnzry0xxfabd/l/umLmKvVnOXMk93jd5raJBcnnY2DnzRk5/eInX8YtHOP2Hr7HT65PXfng6j3xRS2SpdXbbq9zw2BwW7o03fMbzxP+efZkpz65q5FRW8fCtL/Pw8rp95obMdZ7xmrGER06/kdd2ZYlq07Ncefov+OCgy+3gB/zi9NN5cL7b42ae/fbp3PtJ7LBz7+CLRzj99EdIzXFDQErzj7SIw61HRw93u2fyr2SbkQ043FTAzTeez6d3nc+nd53D2/83nJGbV3Lh0yvJ6Se0awE3PLCAvQ2XoQbGTnYxkGH//amnIVoCnL3qEe6d6TITu3bBwGG8dmtdP3ZXnf18Mlf3qOJnD7zN48vDjVOE1oyMdZ75mvEFMGMlj9ydatwt9BzIGJawYqPL7cslLAkGmb10ZdKtZgubtw9g4IAgxJbwyMWn8/V/rmvYcjUgnJ6ERRzu6jlkdM/kX8k2IxtpTsJHsH1/LjihjNiq3XyZS5A9YRY2TmYaCN0Yfe51/PTaYbx2a/IpdPS467jurrNZ+eiVyYao62jOvv6nXDf0NX6a1svIgmBXRs6Yzp+PgydeWcSaw+mBHREIUlLYgNFlrPPM14xxo7nu+ns5e9UjXJnWywB8AxgwIsbajckrt3LpbAaMHEZs2drk9dy0gvkMZ2B3IDia655/i2euHHB45SgKJl8F2tCQzh9Tyhxlvv6VbFWyUSeuYwnDmho/yDuPvMyVb2zxelj+EdN+PZsF77/JlH/tg//f3rnHRVlnf/z9oAM4Il4CBAQVUFDRHC9gguUldbXEzC5uZRf3V7Zp230317It3XVtrdwu1m7tppVmVmqJm4iWWIkpppggFxUQEFAQFBGFQZ7fH/PMzDPPDDCopDDfz0s8c55zvrdn4Hu+53xvpQVMnb+B2Pk7SFPnczKDj5ZvZNL8DYx9OZH4ggu25RzbyxtLNzJWCXO98V2ejfeStmYDz32Xx+HvvuPRl03hnUfXZHD2Etrkf9syXtWOQofOZeVj2lGsP3H/fNXey2gU7egd24PR58pJznGmfRdJW7OBserQ0NkDvDJ/A2/8bH1HtT9vI9bspaXvIPbtveTlWPOc9OoOflaHVhyg8Xd8kbPH01jz701MfVF5vyv3kndelUF9OT+v22ySv7SR+evKqbG5J+YiRcnW72fq0u+IP9Zcj8rxO3f4nTGYuR/NtfcyAOhGnwFeZBw1/76WcOhnL6LvnMTgzEMcVdpVdTyfqsieBCs68U9N4mlLuSXEPzWV5SklpLz/PPfePolJU+9kwfp8W8+6NIUPnr2TqZMmMfXe5/ngUC3dNbWpOhzPq48qOjNm8+rXRy33IpR8/bQm3JnBBzMm8dDqfGsGx9bw0NTlYJljkExUaohiyzepL2hbpi1kJIzUFqfxTsJZeg8LZiCdGTmkI4cPFqH24A9nn8FnQCDDx01m43hP8A1m4+Lb2bl4NAMtWhf4IKmSmJmTSfjrzbwWcYElX6ZZw1In9jL/gyIYM5Lti29n+9NhuO/az6wNOeoK8fN3acR3iuTtl25n5x+C6ZSeyUfpFy+pdYMdjEL9b3PkOQy29zKaQufORHS4yMHCUifa147w8E7UHinjsDl9zinSOrQjPsdqkLNzztI3ojuWA5lPFPDyj5789slb2b5wBHP15Tz3TSNzEE6841OHT+M+KoovF97OzoUjmFhRwAuJ5m/7HLs+3sFzRd14/fmp7Hx5Io+HnuNndWyxeC+vbKph4qNT2Ll4Cqtv74pHjZPvzAaO37mj74zucfZehoKw8Cg4km/6Ls9kkJpjoM9gf3p2TuHQMZNOQV4GXgP60K3ButSyZfEyjtz0PJ9uSODLBWM5+v4ytpjLqtrJq/+3iENDX+XT/yWwceXTGIoOYBOwKopnwbNr4J532JiQwMb3HsHry7nM/q8p7OVviMY/cw8ZZiNfdIhUvKjad4By5VH5wT2UxBiUwaGM6X8Z5IYotnyT+oK2ZXoFjcQFliwzT8RuYuqHRbiPHsK/bgsFoNPwYO44W8rPlr6rgF+yYcqgBq4HtMCTuXePoG9nHbh5M+z6zlB6jmKlzJ+3FPBzeF8ej1IuQ+ncn8fv8qU25Qg7VK5CbWQfnonqjrsbENCL0ddB3oly++Kag00/2s85ZH5HioMJ0fhkZ6ciO9HNC6gHZ9rnHu7LxPNnyVTKPJxTxejYQIbllCsGuYCsHIgJDbYWUd+N5x4YSKB7O2gfSEykJ7UlVQ3MBznzjtvRe8wo7ohU3m/7QMYM9iQvp8yUZ3EaK7N1PH7nCPp2agdungQO6c4gdTFnLpDtpiPQyw3Q0anPECaGX94lLg7fuaPvjAy++8nW23MP60NYzhGT15B9gJSowfRv15/oG2tJPVQClHPkUBVR4Y2Hl8Ieepp7+pnMiFfUKGLJIP+4SZa/+SO2BzzI0/eF4dUOcPcnKmawKnUtO1d/wNEb5/L0GH/To25RzJ13B7VffGqaWO9lILZzCgeUmG5VRiruMx5k7OFDZJw35ZGRlkH/gf0deBIaj8HCa2iT+oJvy/wVXALrybynJxPn24DYPYTR4Zm8fbCAO4KDobiIxLOd+UOfdpdR5lmKTsGwwT64qx/37sJISsk6DqP7XUb2DeDAO88T328uK/8Zh/KnS8nXr7I8M45XE+Zi/TM/wPL58fR/bCXLbvN3nJkdzlJehRKmc6Z9gQz1zWHf0TPEda/kl2w9w57uTkBKGgdLobdnOWlnOjEx9FJb6+w7NnK2IIvEb4uIL77AsbMXwfy7UH6BNDrxh4BGigkfxOL+ycx/9X8MiwzkoXEDGdjd8xLq6/idO/rOOBHPq+9lELc4gblDNdkE9mGA+xoOHYPg7FT8+03HCwjrP5ijSRlUTe9G/mFl0voSUXEiHwb1oWeDGuWUH68lbGyY7bsPHUAU8RzKg7GD+xN9ozuLfsngqagwDqQUEH3PAnpmf0BqBsQOPcqh/f5E39ONY4cPm3ZcyyCBZZeUpPwvKdmbd1ybOgvzR7Hj2lXxK+6T8GTYsG4c21RE3i3BdMooJzsyhIGtbDtfyddP8/ym/sz9SNXZ7FvOQ+9lELd4mcpAlBD/lNIxOW0ggNJyDp5vx6AgX8CZtb++DIrQsSS7gD8PukiaexfGuAfTKXQvifkXoP0pEnv58syl92VO4Bxpa77lD3mezB7fn9fv8qVm93buas46TrdujLxvCtvPFLArKYPX3t4MUYNZeVtzrJvjd+7wO+MAyx9cTsaUV1mmNRAAhDFgcBXfHc/naGY5UXeaunKvgdH0f/MQR0t7cqS2L9HaCYSrgP6DY6lakUr+/8Gh9Ciig9wJHhjGBxn54H+IVGJ5vBccO+MNbpLFSNgcyyFLlv7fSoWREPi1d1z3D+ah2lJ+LjhD2uEL3HF938usSScCr4OfC8tsJwPzTrOLjkT0uLzq2sEy8lxGnKVzsI5c1aNRi2ehHrk2iYsc/rGIXV27M6EPONu+3uFdCDxxjmPZpeQqcw/hoZ2Iz84j73g1I/sG0umSG+1EHUozWHnQkz/Pmcg9UcFc19ETD7WuRzsCqSbXGZvXOZiRt01k5QO+nNtdYLOAoSk4fOcOvzOVZ/H4YEdZAV6E9fPnQPZ2jmTHYghXHnfvw4AOhziSnM/RyDDCLsMRdu/gZZ33cIhudOvhztHso7bvPucQKQxmQG8ln+ujiSrKpyA9lZ2RBvq3g26DoiHlAPlHj1BwYzT9MXfpSry5UeqsnqCuQH9dI+EWSszAehL3pfNzQWdG9rX+hV0X1InA0nJ+PnUR6pzdUObJsN8EMyz7MO+kKD3QmQze+aIU96g+jL70ntEBSoj/u2nkqTYG5s7mebW3YOmY1KGnJnC+iJ/XJfKHn92YHTeYQMDp9oX6MPrsGeIPVjO8lymle7gvY44Usb6gnkE9G4oBOgMn6uDWDqglr7ASuEjtiTTW7FatQOsTwQO+F3jjs73k1V6EujMc/iaXdapSatOTeee7HE7VXgSMFOWdpairZyOTwho4fOeOvzP2LTd5Fn9u3ID3DDdQm7yF7QEDCLMs1+1P9I0FrPtyJ+6NTlo3jf5THqR/5ge8uj6f2otAeQZrVm9RabgTe98jhP2wnGVJiikpT2H5knW433UvYzsrap37E90vhR/jD9G1vxKa6mUgtngPa3amMLi/ad7EGlZSxZ0d8jQhF7wr8b/6sRx9h3en5t9FJIb343F1CKTPIOYN+oEXXt/IK+07sfjp8Yx2JsPuw1n8yF7e+XwXYzdcBHcdcTcNYcW43le45v7E/TOBOM3TwY8nkGBXpziWJWg1HcE02b8EoH07hvXw4W9PRzHsOp0qLyfa59abYX0yeC67E6/dqxjeTt0Y6J7DGwXd+Hcz5yPCr+9G3zUZvLE/jGeG6Jquw3XX88yUCl5Z+y2x9e0YGRnMo1O7szfRnKMvcb8fTNWHafz+5QJq3HXE3RTBn8PTLHto3HsG0isljVkLD3CqHq7r7stbDw9XjKUTcPjOHX9nDJ1Lgt2X5gC9w+hfmkDBmD42xiSs/2DKN6UwtolJ6ybRPY5Fr5ez6G+PM/V98OoVy4Nz5jD2edX6psA4Fr0Oy197nKlLqqBzT2LvXc77t6nL9mdwlBfLPyngwXvMNQ1jwJAUFiX1Z+4s7c4LGWQJy0XXdrzpkZ0cwbsifxWOCs9jzd/2UzxpMs8Mu5SJSQEBgUtBwi8nkNpJICvRXUkyTTFIIMkm42DhTRxuEsgyuEkS9bKM5CZZ7Icsy4q+acwpy6b0lq5G8G2C//UP+DtTwcHznbljkDAQAgK/NmRZNnXwSEiSjCxLSChUkk0dA4ohUOSm9fKmkaUsm/Mx80p6rRyrHCFv1fJfd06irpQdGwo4FdOXYS262kZAQMARJEmyehCYPQk1b3IjGpc3lV7I25L8V/MkihI2cdf3RgaGh/KXScFNJxAQELjikGUUT8LqKVhDCypeJUfRt448UUactvo2csG3GV5cXyog4CLYcvCE2Cch0GyIS4cEBFwEpvsBTB8kSUKWzVOU5olKFS+peFnDI5vmLRrSx0H+Qt5q5cJICAi4CEzxZ5AsHYPak9DwqDwJrDxKrLohfeWThhfy1ixvZYdiCAgIXDKaCiwLuZA7gDASAgKugkamDiQhF/IG5MJICAi4CrQjRVnzUciF3IFczEkICLgKJOtgUWoGb5nOlOBiURJb135Bas5p6jy6EHT9LYyZeiuhXUxyrX6b53NWs3AZ/O7t++hxLdSnBXhhJAQEXAjW9SvOU3M6TifzxRvf4PPwUuZF6KH+HCV7VrNt52GCb+1Le62+oG2CCiMhIOAiMHkHEpKyBNbCIzdAlRUuin5VZjJH+txKXD89EhK46QkYOZsHlHysh/+4EPX0ogtVpvd5LdSnBagwEgICLgIZwHr4kqojoAEq2ei399DDkTRyK0czsJODfAAuVpCbuJKEpBTKzunxuf5WJs2YRoi3Ij+6ikXLYNbb9xGkpK/6aSnL9kfx9GNj8JIrSH3vKSpG/42uB5azObmIG55ZydgQmdNpq9n6VRKZJ6rxCIlh7J2zieqpA4yU7vqUTV8lUnhOh9fACUy56z76dtO0V6EN5lN/uoG6q9KfSeOHNe/yY9pp2nWPYuS4HnQBZFm2vN+6oiS2fbaalNxq2ncxMHzGg0wY6GdXj9ZChZEQEHARXK4n4Tn4LuJS/sRXC+dzZNLdjIoZjK/emg9yLYXxi/msZDy/e/lp/N1rKf3pTT5YuJzpCx+nn17GHMRSj7yt9VDKw8hPH3/EjY++yPx7O5o69t2v8d4XMuOfeYu7AztQU5RMfjsdkiRRkvgCH+ZM4Hd/WY2/XqImYxX/ffdrvOffhn8725Fxw/nUKXWfwO/+8hT+nnWU7lrGBwvfZforc+jnJcGF/Wxe+E9OT32FZ2f3xqPuBLnfvEsSfa3tKfqaD97IZvgzb/FSYAeoPsTWN17jx25LuTHw2vAMmkvF6iYBAReBnSehoU3K3XwxPPIuj9wZweltS/nX87NZsTaJ0hpFXrqdxG16xk+fiL+nDG46fGPmEBeZTOLOPCXO7Vz5PhMf5MYQvYk3prPri/0MfOgpogNNtz95BMbQtztQvYfkjYHEzZxA9w6m9B79JjDSezuHizX5N5bPye+Uuk/AvwMgtcc3Zi5xkTtJTD4GskzFnq9ICbyXyTf1wkOSQedHyKC+qvpXk5n4OT73zLXkj34AUeO6sD897/Lf/1WSC09CQMBFIEnm/8wPlP8UKpkvGZI0ciWxhAxuHfEf+RCzou+m9NAWElZ9wAen3Xni97F4nS2lkHAm+pkzkIGO+If15nTGcc5JvfBS5Yd5elwy/Uiq+nTq6GUtv7qM0zVD6Bess60/MtRWU0MKG+bdxwZNe0fW2LZXqi5V8nFX8jZ7NsDZMgrpq6o7gN5S9yqpN+fKD0PYTLpI6vap308t5y9A5spHWLhSU5nxRmv71PVX8ZKGv1bkwkgICLgKZEwjRNnMmztqK1F9wBwasnlkZqQO+Ebexv1P6Pjg70kcPhXDELNcljX66jI0I1WzvqVesqae5vxUz22qIwMx3P2PufTrgD3U+ur87NqrrRcNPHfUPpVchoGzPmD6UL2DuqjL05Z/7fJXxEjsS/3lSmQjICDQkmjfXTOCR6FyA1SRK3MUnD9Hnd6L9pYRpwz6jnQCk9zblyCSKSqDIF9zOecpOXqMLqE98NLmp+RTV29UvAms5ap5L1+6eKRTcsIIXd2t9UeGziEEXbeS3Nw6+kW2tz53RBvLx9uPIHZSVCYR5Gt+fk5Vd4kqvS8cLaJK6qt4RLKmPV0ICPVj85Fs6oYNsX1PrZheESMx1HD9lchGQECgBZF48ASWEbkkY7nXWj2ClxqQSydI/fBpdnV5hNvjYvH31kFtKYe3fkPuwGnEdZNBHsvE8dv4eF0iPR+ciL+7kdKf3iE+PYbpM3qZ8gnsy0BWk5F5O0ERempyNhC/MRt6x9iWr65P+0iG/MaP979YSdDshxjkp6OuYj/7cgOJHtaLIbdG8tbH73DdH2YTHaSHCyfJzTcS0reHbXsazWcME8dv5eN1W+j5wET8PWsp3bXcVPe7ewEy/lHT6LtxBfE7+3DXyB60rz7Gnq2JwARLff1vuIuQRctZH/git8X0wkOq5XRWNsaISHwl7fttHVTcJyEg4CJITDuJpNwnAeDmZo6ng6S6T8I6mLfeJ4EkIddXkLf9U7Yn7aHwtBE69qDfyGmMmxyLr4eStv40uYkr2Lw9hdJzenwHT2Hy3dMI6WytR8W+laxfm0hhXRf6TphLXN903kr044nHxtCJ0+x/bw4ZQ97l3hu6qGpvpPSn1WzctJ3C00Y8QmIZHXcfI8NNOmezvyL+4w0cPm2kfZe+DP3NLMbe2Bv7S5IbyceJutcd+x/rP95AxgkjXmFjGTetLyWv5zHoHWVJL8CZdL5fs5wf0pRd6dHTuHXKRPw7XsaXdxUhjISAgIsg8eAJaCch1SvRHCWkY7IN5qWo6qiPYjjqQXJT7hdwk1RhfNmidw1ERQRtISomrgUEXAWSZO34UYwENO1JqKyHnUHQ5CNo26Nin4SAgMtABmSUFfEWig0va3itnn16WZNeyNuWXHgSAgIuAwnFF7B6BVgYFW8rt3oPmvSyrdzKC3lbkgsjISDgMpBtPpqPgnaWt0uPbKsPgm+DvDASAgIuAwlLNyCh8Rxs77N2JDfZCFV62UZZxWvlgm/NvJiTEBBwGchWKgte8M7xwpMQEHAZqE9aVXjTA6TGeMVTkGXJ5vwhM2/OryG54Fs3L4yEgIDLQJlFkGVMBkBGNp/fJGt4tVzRB1t9G14rF3yb4YWREBBwEZj3PZhH/tb9DRoPQ8Urmsrg0nakaaZqz0TQtkfFnISAgIvA4VUCsuAF3zgvPAkBAReBylGwp3IjcnV6s1PhrL7gWz0vPAkBAReBrAwRrSNFWTNyFLzg7XnhSQgIuAiscxEOeLkRuTq9jSfhhL7gWz0vPAkBAVeBLORC3ny5MBICAq4CSTVKRDNqRBJyIXcoF+EmAQEXQd7JM0iWP3+QGrp0yCw3dxqyiZGRrctdZct/qiWwAm0RwkgICLgIQvw62+x9cDPHESSQZDck82E9kmkkaWsk3JCpVxkJCag3qZuXPdnEKwTfVngRbhIQcBHIqh9w9jYJIXd1uTASAgIuAgmsnkQDVMiFXPtcGAkBAReBaRpBFlTQZlFhJAQEXASNjSAFFbQhKoyEgIArwbqdVlBBnaJidZOAgKtAkrDZVauMFmVMsWhM/6zXlmrkNtT8XKsnaJujwkgICLgKlDizpQOQTRTJNHA0PwfbjgKzHqoVMbKV16YTtG1RYSQEBFwFEg49CdNHCSQZCcnOk1AUMG+m0440LTfToaTXyM0Q8tYpF0ZCQMBVIIMsySYPQsJCQeksFDlauQySpJGDyTNpSG7hhby1y4WREBBwEZjWwEtIkpVXSS3PkawegqTwZrlkFqqGodrTYGmACnnrlAsjISDgIpBVEw+ShGkeQrL297IqzmAjt1BVeiU/rV7j6YW8NcqFkRAQcBE05EmY/9eOJG09BHtPwi6fBkamWirkrUsu9kkICLgMZEEFbTYVRkJAwGVgHSqavQOn+RNb+Nfcd8k4r5Kf38u6ufeyJVutf5zdr97LN4eMl1eehT/NvuX3svqn01coP8E3lxdGQkDAZWAdIZr3OTjN+/YglD0UlajkBVkc8tBxKDfXqm88SdmxSPy766g7upalc55jZ+EllGfDc5npBX85vDASAgIuA+sIsdm0XRABg4yUnDhteV6St5fQgQbOHjlGlVnvZB47zKtfAAAdfklEQVTZ9MbPB9qHzeBP771GbNBllCu549mBy0gv6OVSMXEtIOAykJFl07JW08oVE4+WlxzJu+Ab6kv28UKgC7J8kqKMDvSZMgrPNw5RVAvhOpnzJcepGDSEzjJwejufzE9hwOI/MbSLwi8sJealARSsXcnOA8ep6xrLlD88ylB/nVK/Okp3rearDVsoqOtCcPQMBuisnoQsS1B/mqNbVvC/7XsordLjO3gKt/72dkI7y8gVO1g1f49Spkm/eMuTvJd6C394fiK+sikk9tOS+Zy+cyW/CZOo+HklX67fTkGFTKewcdx8z30MDdRZy0NTvovxwpMQEHARSJIyQpRMI3MzLznJ+wYNgcIyTksgXThGbvZA/EJ98btuPyUnTfqnTx2ma1gPvM3p0eR34X98tu44Efe/xgvL/8v9UXl8tX4nVYq8bMci3t4KY15Yw6Jl7/FADBRnq+tjpHDjX1mdN4C7Fq5h0fJ/cc/Aw6x+5R0yqiWkrn3p23s/OTnViv5JSjKha9UBSiqV9lTmceTYWEJ7SUhlW/jyvye5/umPWPTexzxxV190dZf2ftoqL4yEgICLQJaVWLNC5WbSdt17EZqVx8laGTk/i1+G9yVA6k3I0Apy8k4iyxWcPHqS8B6B1nRo8iGSSXdMxF8PstSBkEEGSCukQga5No3dXx9jxF330rezSd+jp4FQf6zpT37H5kQ9E+/8Df6eMrKkwyd2LrdF7iThh1xkuQc9B/vxS26OSb/6GEfbT2P00HTyC2qRZTAWZJM1qC/+7WXks2co9vSla0dzebEM6tn+kt5PW6XCSAgIuAisnoSkGTk6SX2CCPbcT8lJibKSdALCetBBAr9e0eRkH6NGKqPs8EACA9yt6dDko+Ulc91Aqi7j9IVIAgPdNeWrRrZnSykgnB5+anlHAvv0piKniCoJAvtGoUs9TIkkcTE3ndKB4QyOGMu+w8eQJCg7nkrAgN54SxJS74ncMyqbtS88xuqvdlBYbmz+e2njVBgJAQFXgaz6uSS+BwEDT1JacpLSo0WEB/cAGTxDBxJxMJfS0ycpvtCLLl1U6Zui5s+NyRvTd/QsOJJhp/ZwrBhKC9IIDepB+6C+hGblUCqfpPgQRPYx1R2pC+HT/85Lf32R6I5pxP/1Yd5NzLtC76tt8MJICAi4CiTVzyXxenzDenOoOIXS3LEEByuyrr0J7niY0ozj5AwKwbedKn1T1PwZwLMjHqRzsryR+nT2JZhsjpeq5dUUH8mja1gPOkmAewQhUXmcKs/j2IGBhPYCOvemj3SAghPHKc6PIjRQk3/HHoRPfJw5T03jwoYfKbgi76tt8MJICAi4CpwZ2TdBfQMjqdu3nV/8exNgXhsp9yZ0WDY7E/fgFdaDTs3N1wxPAzdM7MLOVavIOQdcNFJx8Ct2pqn0fccxeUI1iV9sobgaqDdS+uM7fJUey6TY3oqenuD+Q8j6JYkCL3M9e9Br8HGOJh0ga2AEvm6m/OqO/o+E5DzOGk18xbHDVIT64nWF3ldboGIJrICAq0AyDQ6t90U0j5clkLqHEF7yP0pH9KaTSs+vZxQnE3dyQ1APm3Tach3WA3M+Onre9gL31LzDly/ew9n2PRgw9iFuvTOLZEs6HcHTXuT+hBV8+ZeVnKzS42eYwv0v306IlzVf75DBeH68ktIZr1nq6Rs8hF++3kLEA9PooOjpAiPxS/mQ9744zNkL7nQaNI1Zs39DN227XZhKdXV1WnsuICDQBvFdRinqQ/3c3CSLTMI6iWzuxC1HhcuAZL10CPMzZahpe+S4QFuD8CQEBFwEphCzBJhuILOaCzMvq3QlG321nppHk4+gbY8KIyEg4CKQVf9j8gtseHttSaOPA317PUHbFhVGQkDARSChngO4VE9CnZts0bA1FLZye0Mi5K1JLlY3CQi4CGQNZ+9ZCLmQ28uFJ9EQUt9nzvupts/841jw0mQCrk6NBAQuCxKAJFkGjra84klIWIR2ctOpf9b0Zt6s35Bc8K2aF0ZCoA2hmM0LFxFfYvvUMPtdZhuuTo2uOcjKeFHp+G15M5Udy7XpzbzUhFzwrZq/gkbC8R+oQ3h44909mCHXRxM90kBIV92Vq4bArwDnv2udlzc+3UOJNIxm5KgIAjxavnYCjUDp+C3LVi1LYpWe3vJYI5ckZMtIU7blJfPx4w3IQchbsfzqeBI1lVTmp7MjP50dm3QEjJzJY/dF4dPCMyS56+ax9NtKCx8wZQELbhHBo5aEsaqS4qpUio+msm2DNxG3PMojt4Sgv9oVc1UoI0XZbCjMPEp/oXgUNnLZOrBUp7fhhbzNyq+BiWsjxbtW8NKSzRTXt2Q5leTnVTatJtByqK8ka9NSFn6USvXVrosLwnSqp+0Pds8c64kf1/25BoyEgsJ43vu6sAULKCAntwWzF3AalbtXsT7zatfC9WC6H8D2B7tnjvXEj+v+tHi4yW7SsKaawowE1n22jSzNwL5sZxJZt88koiUqUpxDbot6KgLa79pYXUbhvgRWfZFMsVGtWU3y9hRm9ItCzEb9ejCPDMEUg5YkyTJfLSFhEsmWOQZJoUpiSx6O8hVou/j15yQ89AQZpvNkuD/L/7SKdHXHXZ1Gei5EBKaw/NkVtjJCmLHkj4z2dpRpLutfWMq2CtUjfQxz/zGEtAWfkFJVSbXRPlXxpkXM2aR6MHQ27z7sxDKYmmJSv43nm+/TKaw0ZazzDiJywh38dmwE3k74Z5X5yWyLT2LPsRNUVimV8/AmqE80Y24ZT1SId8MdqN3yXAOz3plNlBtQWUjyt1+TtDv7kut2paDT+xAyaiYLusJzy5NtQ0zpaWQTRaSjhMZKsr5fx8adWRSerMRYD7jp8PYLYsi4O5k8IgTvK2hdjBVZ7Ni4kV0ZhRRXWr+LgKAh3Dx9cuPfhSWPXFJ37WHPL/spOFFJZQ2qfCIYeesdjO7XdD6Ofi90Xt507+XE70UTbRl1yzgkZZpBkswTk7a8pJqPsPJaucmoNCoXfJvhr94SWH0M0devIt1mK0IlZWeAEAPRkZB+UC3LZc++SkaPcWAlSjJJr7B9pB88hEg3IzsrKq9c/Nu/Mxe/fZN5G7Ko1HglxspCUte9SXpKHPP+NJmAhjrj6lw2/+ffxGc6mB+pqaQwfRur0rex1n80s5+aQaRDo6jFCcpOVJL10zu8u7UQrT10um4thcgoDPpkktVfRH0ZZZWApn2VB9fy5n92aDwPoN5IZUkuOz5dyo6NEUx/Yg7jgy7TUtRXkv75m7z/fbHdO6OmkuKjO1i1dAfrw6fz1NzxOCquMj+ZjR+tJdmuwup8Ulj/Vgrb+s3gycdHO37/9ZWkfLKYFbvtfy+MVerfixhm/n4GUX46u/RNtUWSbgaLx6DyJGxWNFlXPlmpWq6kl3Gg50hf8K2dv6pzEroGS9cRdVOM3QqY3PQ0+z8AoDIzjWLNs/BBDseol4dfVrF4nb2BUMOYH89/ErS1UVCdyvsvL3VsILT5lOxg+YLFbG4gK1sUk7BkAW86MBBO161F4c11dsbuAtUa612c9CYL33NgILSoymL9kqVsdma5dUOoL2bHWwtZ7qhT1aA6ez2Ll262+x0jdz2Ll6xq2EBoUJm5ltc/SXdQnpH0TxY6NBB2miXJrFj4LslVqodOtkWWZUzrWNQrW6y8SU4T8qbSC3lbk19FI1HJmTONiCOjMGitRPp+Umq0ikbS0jUz0m4Goq+//Brawck5jeKdu7CbI68vZvM/3ye1ylGKBmAsJH7ZCtLt2uxA1ehcR+Wwbi2N+kIK7Dr07vj4WTnjwRW8/nmW815ffSHxq3dwaevVjKR/8jprs5vhYxbGsypJU1rIJKY2cyxSvXst8dr1GSXbWL/b2broMTz8CDFeZt75tpg9AaybIWx469xCY/Km0gt5W5NfvXBT8Q6+P6p9GEJEqPlzBGNifUjeWqaSp7M/1UjMCJWrXZ9OWoYmG0M0BjcAA7PffReA1P/M4f19tmqXtE/CzYeo+2czY2gQ+nZGCr9ZyuJvNH/1FZlknoQQVSdYuX2FfeeAnsh7n2V2TAA6jBSnrOK9T1IoUxujqhTWbhrDwjtCWqxuLY3K75NI1T7s6qPaF1NI/Ocp9gbCL4pZD8/AEKRHV2+k+Jf1rPjPDgrN7+fot2wrHM30oGZWqDCetQ46ZZ8Rs5h9l4Egvc4077RhBe9/b31/ud9uo3DMdKzF6Ym5I45v0+Mp1nkTMnIqd44zEOSnR4eRysxtrPgwniybgUEZe3bnMj3I+n2Wpe6381J8Rs7mud8a8NaB8VQuKVu/ZOOPudRFzWKWevTUjLbsP3EaSVKuZEPCTTJ/wrSZTlJGkJKJtzxHBtyQqbemlyVMoyZJ6VMkrLkJ2pbor28kasrITVFWvGhlPYcwRBWWCBo5koCt8TZ66QfTYYRqcjk7jWzNCN8wvIXOYHALIu6F+Uy22BUdQVPuICbpTdt4O4UUFAF+Vn5bkv3yXp+b5zJ3lDkzHQEjZvHYqUIWbbJ9M2Xbt5J6+2zF8F3purUcjFWFpG9dx6qt9r6Lz/BoLN1kehLJpzQKegOz/jSLKHN/6KYjwDCDx28/yrx15ndZRvovxUwPap6hT9+eTJnmmd4wi3kPRllDnB4BGH77ONPz5rE+X3l2Kp2DJdMJ8lcl9J/Mw0+F0jEkQjOZrsO732Tm3J7Dk5+k25RVmZdPJSGW6Rhj/UW7Ogb1N1jy010XQsxv/0jMLZVUetlOXDenLacza00XDcmmQaIkmTp4STaPIkGSTB2DpHT8bmZb4CZRL8uW9IBlYlNSDIWs5GvuYwTfNvgWNxKp789hjlOaemKmjbedx/SPZWTPeOsfKUDqHlLrDZYOMzc9zXYE2lKhJgC/IRjs+iMl3t6Yt3/yIJnaTpAARsbaewcBN99M5KZV2HQr9dmkZYOhXwvU7QrC6e/aLYSbx1jH47mZaXZV1A8dbTUQKnj36ImeQot+cdEJaNaRi7lkZdqVhuGmKAe7wL0J7qmHfEtpprCZv61WQLh20baR6soznDiWS1mVDm+wDYuVn+IU1jn7jnpPu5JTP1nEqgszmapeyeXtrZnnb15boBRZVnoBWUKSZAc8JqvhQA4N8FITcsG3av4aOeBPR9DUZ5lp1wl6M3p0JOvVI7H6VPb8AgYDQBmZ2s0WllDTNYSiAuz8CLcgevo70PUIIdQf0m1i+NUUl1RCP6eWOl3j0GN4eC6ju5p5o6ltGlT/+CZzfnQiu5PFlGHAx9nia4oprtA+rCb5rTmme5SbQFlJGTgqraaY1G8T2Lo3ncKS6sYnwyvKUE/HeY+8hahvlpOiDksZi0n+dCnJn+nwCYlhkqOluM1sy4wnFiojRcnGA5BseKsnYdk7obr0WMujyueqX8YsaIvQq28kvCOI+90sJoc77gB1Q6OJXJ1us2ci+1AWGCKgJpscTe/bYqGmKw0/f7o5FATg4w9oJnovVJ/Dbr1oa4N3BHGPPMLkMPU4t4wzdl5WC6LiDOVXMr/6MlJWv8eqXU2vkmoQHpHMfGIyxUs2W+dbLPkbKVOW4q7Svr9mtsXiJJipZHqo5h1SbToH+TilJ2irpFdlzK3z9iYocjzTn1jAm4ufbNBAAOARxZgRts5zdXq6aYVObo7tSp2WDDUJXCb0GO7UGggA3eUNVfwCnPciANyg3WUU5+OvKq2+mM1LXmKFQwOhQ+8fgmFQkFOHGeqC4pi/+EniIhvZLFeZRfzrL/Hm98qcVTPbIin/mRexCCqoM/TXP5bjEhA51IB+l2rHbkU6mSXT8TySbRvLvhZDTQ3hZAnlOIqmF1PmYP2/p75jy9fpMqH+rnPXvcTSb9VTqtWkfr6erKEzibD5jnwI8ANtPC5o6kLmT2pW9+8cFKNiW1wQcS/PZ3IzJ/MLv37PfsWaLoCYu1RzCSWbWXSw0LlpIe8IJs9dwviKXFJ3bSVhayrFdsufq8n6fD0pI+YS1cy2JGWWIsnWozgs2yIUyFhvvVZTZLVcsh1p2qWX7NMLeauWt44uNXIMMdepHxSTlllM7jHbdR3XbKgpMBi7VZr1heQ72gxWk0uO3XM9Af6tK9QUMiWOSO1vV1UynzvYzBcUZL+GtTA19RL3QDSFIILtiitk/8HmlpbLnr3adUU+jH9qATNHXd6xIbquIUTdMpsFy95k4ezR9ju969PZnwHNbYtlDkIzUsTCC7mQ28tbh5EgiOihtqPK3CMJtvsjmgg1ddDbO/2mlTG/AvwG0e867cNidu20Xxpa/O23tiubANzCGRjeQnVrKXhEMd3BHpTib1axQzPZ6mMYYu9R5Sfw2d5Gxt8ONzb60NnuPdvrGOyXgVG4+TNSGhvu25V3hjK7SeMgQrUL1s5Vcq6pKgFk7mBztrZz1+FjmMGs3zS0eusS2yILKqjztJUYCQgac5PtaHxfCqnqP9wmQk0Bgd3tH+6LZ21mpSmeXKOcJdQiCGL8GPvRctm3y1n+Y7HpALt6I8W7V/DeN/YjbZ+xE1pPGE2FgEl3q3YGK6jPJX5dqm0M3380N9vtXK4m9cOXeHNDKoWW0xmNVBdmse2TRTw5T3M4JAA69A5uvsvJtjXGAWNutvdyqlNZ8fKbrE8ttB4GaaymMHMbqxY9yXOr7Uy3A2SzM0n5Po2V5P64gpeWObErvDqV9z9cS/w/5/HkolUk55ZZ6mCszmVvqvZ3Qo951Wxz2mKBhNWrsKNCLuS2z6/+6iZn0TWa2LD1rLXbpW1CU6Em734DCSBXs4GvmB1vzWOHWefmP7LEmZ3NlwDvsbOI271IE8OuJv3TRTz5aSMJvaKYMaVl6tTicItg+u2RJGs2k1XvW8XaTINqybNp53JSRrxmdU81WVvfZ/FWR5kX8/X2qUTebBuG69zVblcClUlLmZOkOilXH8P0KUmkb9RMKFRlse39xWxzWNzXbJsSyXjL0t1QIsIg1eb3sZr0zxfx5OeOMmgI1aSsWmU5rsVYnMyqpcmsaiyJ3sAQs2fZjLbMeGKh6YMMsiSb5ickWVmhZKb2cjOPWo7cgB4a/QbSC3mrkbei8ak3MaMaOCjHmVVNDkertjDthG0huAUw+anZGLQj68agCyLu6VlEtuJ7ofUjpxNntx+kmuTPNQfm+U/mqYejmnWUeeHmjXbeRMiI6AZWOxVSooouBkx6itkjmjPPU0jCJrWx8ybmZsPlX8Oam8C6X5qz21GPYeZ0G++huW2RbEaMghd843wrMhKgi4p1HHZxalWTnphZc4lpbAVLbg4Fl169pqE3MPvlPxLnxKY4nf9o5i5SH7PRWhHA5DvsT/SlJJ71u2w7R71hFovmTSfCmf5OF4Bh6hjCtd970CSmD3XUdZeRn6cOcukxPLiI+Xc4d8eGzt9A3FjbiSGdYSazRjW2AktHwE1zebKxVVoh01n00ixiApyY6XbzxnD/PGbbnXzZvLbIms+CF3xjfOsJNwG4GYiN0pG623ZVutOrmvSRzHxpCVHb17Fxp2pnrJsO787dCR4Uir4GaMmRuz6EyU8sIfZyLh1qbYicSlxYsl2oMH3dKlKHzsaget+6oPE8uXg0xb9sI+HbvWQVFttd4DN89BhiBze0gkiP4eGF/PHbVazZar0UCg9vuHgebN6qjqCbn2TJKPNuadUlR4DOO4Cg/sMZc1MsBoffh57IexeyZPg2PlufQHq+6fdJ5xVAUORIpk4dTURXHRwMAbsTllS18Iti5oIoZhRnseOnbezZm8uJCtXvpl8QEcMnMOlmAwEN/m423RYJAOsiR3veRLE8N/9vlWt5R/lo5YJv3bxUV1enNhzXOCrZ8fo8287GzcDst5o4/E5AQIAdmWVIbqYu3Q0sn028pIQXZGRJMoUYFGq+qaweGTdJvU9CVsISatNx5Wll1iY2b/wf6UcrqPPoSvANd3PbtLEEdFDr1XIieTUbNm4n/3Qt7buEEznubm4ZPxAvt5apl6vQ1uVJODheXD+igRCUgICADRx5EpbtU5Ijz0ClL0lIstaDUOk3Km8qfcPy8t1v8M6ndUx45g1m9OoA9efJT/w7/3oxmxmvPEqkl0nv7O5/sjwxkAdf/IQwLxmqjrF3/Sf8lBfBhFBdi9XPFeTXePdqpLraCBipzNzMm8u0t4MFMWlKC9xAJyDQZiE7ptpb6a4FedUetn6ax/A5TzGyVwfTY7cO9Jz0IvcO38naTWnUIQOnyUrZR9jEKSYDAeDVi+EPvGgyENdq+1qJ/Nr2JEq28frCePt7JxToR92hWpIoICDQOCQs90aYeYUx+w0oy1ssckkJO0gS8pFVvLAliCdvqSHpi7UcOFpHp+j7+L+Z45D2rWbdlwnk13Vl8F0vcseNQbSXQZIrOPbTJn7Y8h3pJdW07zKUsb+bzbiIrpb7CuTz2fy05hO2p2Zzlq5EjJnN1GlD6ZC1hwNeY3m8n4fJ6zHr40H/6ImwNInsaYMY0MEDfQc4mpVO1chR1vCSRV/wl8Nf056EMTenQQOBVwyP/FZ7jr+AgEDDkE33GMuy5T5j034HK49WruHJ/pDPd/sx+dkP+duyPzL46Ar+9ZdFfN9+Ag8v/YyX5sRSvGo1qeVK+tpCjlVEMuG5D1n8r8+Y/2Age5evJa1akV/I5pslC/ipw+08vuwzFi/7O6OCvOggyZw89iMM7I2fo/r4hBBGNifKZJA7MGDao4Slvs0//vY2Pxwo5PxFx/UXfPP5a9pIZGc3sMvVO4pZL2oPihMQEGgK5nuMrR6FZPIcJLMnoZFLGnnNRKb+dije7SToMJCBw+HC8BncGR1Eezfo0G8E4eyjtFxJ7zmIG28dSvdOJr7DgBFE1mwnv8jEV+z+hB897ue+GUPp5AZSu66ERYXTwVyepxftJU19kJC6+OHLSS7UKPXzGceDS5ZwW9hJtr/7LAv/+BLxycep09Tfrv1C3qT8Gg43lVF2xhudm7KMT1kKOGTcPUyOCWrWpisBAQETZFlWhRIkZGTria4WgUoum4SybS6WELYM4OaujDytoW0rL4PxJMdStrMrZT/F+XmcBEYp8rNl2RBxP76SrEkHtHeHc1XUyda4uEVeXkgpfvT0UNWvQ2+G3bOQYdOOk7l9BZ9//GfK273FgyO6WCPsDdVTyBuUX8NGwofRTyxh9NWuhoBAG4Fl1Ih56sEUgJaUOQn1/IOkokpiLDMZqueWOQ1Jspaj6EsScGo7H73yMcYxDzDx3r8Q4FPI1scWWORWB8aa3ozuPaJhfR6l8lACtYPC8uMcZSg3+EvYJdUH0f/WBTzm8TzLklOpuGFsAxd8CTgDMR4XEHAR2MSbtXFobTzakR6yfT6gDEPN+mbWxOcn/YsTv3mJh6ePIdi3AzrJVu7VLRwO51DuoHyP68cwsmoDe9NrNPWrIXNPIowZTlh70/ML52vs0nt26NZwvL2h9yDkdlQYCQEBF4FN/NkSh9ZQrVytp/IkbOcxUKVXexIS6NypOH6cs/USknyeou/j2auSdxseh+H4atYmHKZGlkA+T/GuJPJrJCT3QYy938D+D/7Jrrzziudzmpz4v7I6ayKP3D4InSQhlSex6qn5rN91jLN1pnyN5ftJSkyjX+wQrnO2fULuUH4Nh5sEBASuKGQZUxeuUEe8hIZXybXU7Emo85ds+Z4TF3HLf5bwj8fepn3oKMbFzeDO0Xs4Ztb3imbGoj+x/dN/8+pjhVzw6Eq/MTOZrMg7RT3L8wHfkfjpMyxQdlz3vOFuHps3jkAPpR7XjeHhJb78sOG/vP1ZNmdrwNM/mqhb/8690V0bbo/gneJb2bEcAgICl4ofsk6Bm8kfMB/LYe4XzMdyyMhIkvVYDrPNMB/LYVn1ImMJP5nnKNQdieDbDi/CTQICrgIl9mzp3gUveCd4EW4SEHAVSKp5BTOvDBctvMKpeVmRy0p6W96qLzvUF3xr54UnISDgMrCsT9JQGngu5ELe2k6BFRAQuGRIyryDJJv3Fih7FUChEkimc2HNvO28tZmXLLySpQ1vT4W8NcuFkRAQcBHIyKguMUaSZGRZMQzKPdWmBU+KnurSa0mW7NJbqNSEvKn0Qn5Ny/8fQqXs5p5hyfQAAAAASUVORK5CYII=;fontSize=32;imageBackground=none;imageBorder=default;dashed=1;labelPosition=center;align=left;" vertex="1" parent="JfqZfDmFp8OTxattPUuS-59">
            <mxGeometry x="56.872340425532" y="109.0502512562814" width="297.04814713672164" height="231.29145001139034" as="geometry" />
          </mxCell>
        </UserObject>
        <UserObject label="" tags="" id="JfqZfDmFp8OTxattPUuS-24">
          <mxCell style="shape=image;verticalLabelPosition=bottom;labelBackgroundColor=default;verticalAlign=top;aspect=fixed;imageAspect=0;image=data:image/png,iVBORw0KGgoAAAANSUhEUgAAAcsAAAD+CAYAAABVwi7tAAAgAElEQVR4nOzcf1xUZd74/9cyeURlQkEEqRlIfuigNhpiIZRifXT6AeZa21L3rn5rpXtvbDfb+rDL5rZlt8W9rbb3yrc7rb2l3aQfkulYjmwKbiAqos6KDD8NmARGZBQZwQ4Off44w0+BAS219no+Hj5k5pxzXde5zjnX+1zXuc784OLFi18jCIIgCMKAPK51AQRBEATheieCpSAIgiC4IYKlIAiCILghgqUgCIIguHHDtS7AN63M9DZ5J2Fi7BPcN/lal2aIThfwwbYSWtQRPPijaHyvdXkEQRCEXoYeLDtaqD78OUWWU5yVnQCoxvgSPP1O7pzqi+rbKN11E0TK+PTtPOr7WzRCYuyEUGbcHk3IuKtdLkEQBOFqGNowbGsVuz/4gN3m+q5ACeA830TV/o/ZvK2IUx3fVhGvc+0yZ0+WkPtxJrlfyNe6NIIgCMK3YEg9S+vBfVSfB8ZoiI6LZbL/aFQ4abVVcnj/Qcrs1VjtkUwY37lFPXnvfkrZiGvdI/ymTST2ifvoHt3tUQenW6naf5DJt8Qy8RqWUBAEQfjmDSFYNvHlKRmQmHznAiL8O79XMdp/MrGLJhPdDqoRPTbpOMO5C8CISxL7nnHVQfwNfPW3XKpb67CegYliOFYQBOF7ZQjBUoXqB27W6AqKZzn4YRbHzrk+tpTw8dslyt83xfKEwdUna2+h2tzj+aeHitFjg9HPm0fEgIHGSb15F58fqafFCYwYzYTwaObNDkY91Dm9LdUU5RdxrP4szg5AJTE2IILZd0WiGT3ENPrjMZbRnkA7OJ09FzhpOv45n/+zmqbWHs959fOYpxs7xMSHk4aTli+O8vnhEk6dk3F2gGq0L8Ez+lm31UrRPw5218WIsWgi53F33+fP7U2U5H+OubqJVieDHquzllxyj7rK6aFitN9koudGE6we4q4KgiBcp4YQZsYSHjIWkCnL/ZSi+pZB1nXidPPjea21BXz8Xp/nnx1OWu1VFOz4lLLWfjbqaMGyYzOfHnIFSoD2Vk4d383H2WX0t8klGg+StWU3R0+6ggOAU+bsyaNkZw2Q71C11nH6PMAovG7s+pKyv2/m4/1VXUEOXM9592Xxwf5TQ0l46Gm0WinYtpkP9hyl/qzctY/O1iaq9hn5tOcOdlSzOyu7d120n8W6/2M276miK6fWMrI/+JiCKleghO5j9fEHFDR2J3n2cBZZ+3qUs8NJq62E3VuyKDozhF0VBEG4jg3pmeXY2+5l3tlt5H5Rz9FPP+DoaF9CIiKJjNCg7jXU6kv0j54guuxT3s6rh35msY6eGM6M2BB8J4xFPUZSvmxvxXpgB9ll9Zj/2cTkO/o85TxvpcxDQ+TCaKbfrEbVIXPKksvug1ZaTxZQUDWZu0MG2YGOevI+O8ZZRqOZFctsnYaxEiCfpfpANrvL6zl8uJ7JscN82tgh09pYSV7OQWWCk38wk1271PrP3eTVykjjJzP7jtsI7XrOe4zd2UWcshzg2G3xTJcGTn5YaYwOJPzWOwkZP4GxY0YjeQA4af2ygB27yqg3m2marBwLueQY1TKo/CK5zzCDCRI4W09RebgEx+QQV8+ylWOf5WG9IOE7eTZzbgtlwmiVcpNSsptdh05RcuAYkQ9MR6Ke4rKzgJqQ+fdy5y3KMTpbV8LR6lHoxLC0IAjfcUN8dWQ0IfMT0TSWUVRkpqy+iapD2VQdVqGeOJ3ZMZFDH2ob4UvwLSiN7hfHKC+zYm06S+sFpUfScvY09J0SNCaC+B9FM6Hzs4fEhKkLmHcmk0/LWrHWVENI8MB5VhyhrBUmRC1iwa09xlulsQTfOY+Ik0ZK6q2cZSKDD47Wk/f22+T1t8hTQ+z86Sixrwlz6SkYPZl74mOZ2NV/VzHafwbxs+p4e1899bUwPXSgvIabhgrfW4JRJh1Vc6yiBOuXTZxtk5WeYssZOmu2ta0NgLFB4UxwBWvV6AlMjp3Qnf1pM5ZGGB1+Dw/2vIkYMZoJ+ngiT75Nga0eK9MJoZXWC4DnBEKC1Eqw9ZAYe/MM5t08aIUKgiB8JwzrRwkkv8lEGyYT3d6CtaSIg8VVnD15lN1bqpn+wBJm+w0llVas+7PJtTQh9/e6SauDFqBX7PWg3/c4J96iQSorQ246xVmCBwx0p5qalf8LM3m7cICV1E6cAywa1Ag1mojZRN/W49lph40zLQBlfPq/ZQNuenGwDC8jjdbaArI/L6HpQn9rtuFwVezYqXomluZRfyiTD+ojmDZtGpNvVveu48YztACUf8rb5QPmzkUAQpihK8J6vIrszCZCJkcScWtwVyAWBEH4rru8X/AZoUajn4dmeiTV+TvZXX6WY58XofthJO46mKf27yD7eAt4qFD7hRIyJYjgib6MrctlU149XJQZ8tuKI1WMBOSvBw90Z85dyQPJnnq8OiJXkf1+LlYZ1EF9JhnZm3FcaVbDTaOxgB27S2jpANWNEwi9JZygSYH4quvIfSePepzIX6HchYyezH0/DqTaXMDRijIKdpVQ4KFi7MTpRLpGCZqah7cHE+74ET8JKeFggYXKY7upMrsmF936Lf5ohSAIwlVyZT9356Em+HYdE8oPcqq5iVPgJlhWcdTSAh6+zHjwQSKv9FlWk6v34+k1aL7jx6rhZAsT5zzBfborzLOTFELsrDI+2FdPSe5Bwh+e3T14PN4HL6BlTATxP+4xfDwcw0yj6qgSKH31S3hw1hBm2o5QEzxrAcGzAPkUZQf3cbDiKLs/bmLeIwsIGecFtDBaF0/inKHtgeQXQWxCBLE4afnyGAX7iqja/zGnWh/kR1Hfn7dtBUH41zOE2bCtVB06Sn37AIubXD2gMeruYVBpZP89idOnONsB+ARfOulj2L8A1MqxMuUH6NQTAhlsxM/XX+nZ1FccG9rM2SEarZtHpB9w7hj7/tkz5UD8xwHnqyk/ebmpDyeNJk6dAfAlOKJPoOwYwuCyNIHJsQ9yT6gEspWqWiDQn7FAa0059cM+NirUN89gwYOzmQC0VFdxdrhJCIIgXEfcBktnWS655iI+/dsHZJutPV4NkDn7ZRGf7lFe3VBrw7t7VurRjAY4b6W8XllfbpXBxxsvAHs55pOuwVb5LNX7P+av+/v95VVFSwm7/17Cqc685VOU/H0bBxsBj7GETLm01yJf6BG8bplBxI0or49sK6D6bOdAr5NWu5Wj+4/R5K4i+jWa6XOmo/aAU0dzKenKUs30WzVItFKW/QHZx0/R2nmzIbdyqryAov5+Gq/9K1o7LicNX7y9AJooP1qvPAvukDn7RQEfZxb0+U3bVsr+nknmR7kc/fJs13NjufEoh6plYCy+/oB6OjO0ErSW8emWbEpsrV1D3fL5U5TtL6K6M/vGg2S98wGf7i/rPkbtLVQfsHAKUPlOcDNxShAE4fr2g4sXL7p7MxJr3k6yywbuG0jjZ7AwPpIJXaG3nrzMPu8uek7mvsdm0/r398mt7RMoPEYTfJeOr3KLqO/5uonrh9S/8pvI6KZ6pVfaO2cmxi7hvsndM1yb9n/Ax8eVd0F7Dbu2lvFpVh71/T0Q9RjN5P+TSOyAMzc7f0i978/dKU7t+wCjpQVJO49H/k9IVy/31P4PMB4f4L1U/9kkPjBduanoKOPTjDylB9dn2HWoaciV2by/13rJ897Rt8xDJ+dSdFJNxKIfET0eTh3+mF1Hmvp9NtxrHzpOUZBlpORcPysCE25PJH7aaOW3g7fnKj+J2JeHmunxP2L2+H6WCYIgfEeofve73/1+8FVG4K2NQB88BrnlHM2tF7p+eEA1xpdJkQt54M4Q1L1+5UeN9mZPTtfXc+7C18qvuahvIlinQXtLEJ72eupbLvD11zDafzIxC+4nMtCD0+XlNP7AjylTNUoQaf2S42WN3BC6kIfvCuSr0zbsbe18/TWoxmq4495FzNGM7FXa0T6enKup5owMN/hMIiLQ07Ub4wmLCMLT0Yjd0UZ7B+ChYmygnhjDAm4ddCZvExVHanGgRntbGH3b/TE3jeFMyRc02es4N07PJNcQ85ibpxLm+zV2u5022amUe7RSZ4tig+kq+Q/G4/11LdWn2nBe9CRwZgg+DC8NlU8IQaNOU99wjgsdwOgJTJ5j4P7IQDxOlVF+2gO/KVPRjIYxE6cwLdiTllN2zn2l1CcjxjJx+l3cd2cwnl3lGoNGF4bP13bOnGnjgtN1LMdNYpZhEbFBrtxH+DApwrWe3aHk37Xe/cwQjysFQfiOG0LPUhAEQRD+tQ31V1UFQRAE4V+WCJaCIAiC4IYIloIgCILghgiWgiAIguCGCJaCIAiC4IYIloIgCILghgiWgiAIguCGCJaCIAiC4IYIloIgCILghgiWgiAIguCGCJaCIAiC4IYIloIgCILghgiWgiAIguCGCJaCIAiC4IYIloIgCILghgiWgiAIguCGCJaCIAiC4IYIloIgCILghgiWgiAIguCGCJaCIAiC4IYIloIgCILghgiWgiAIguCGCJaCIAiC4Mb3LFiWsj51K+uPX+tyCIIgCN8nN1zLzIszt/Lkse7PkqQienoYv1qkw9dtyRoxrjsE/3Yv8X7fZikHcaaUzA8qyahpp8VDRfTUSTzzyDQC+7sFuVhH9t8Os7a8nZYbRrBk3jRWzA9GGiht2UbxnmO88o92fryyzz522Nj7TiGvlLfzleRJ0qN3kRg+5sr25fheYrLHsH3lLHyvLCX3Oi5QZzHzzsd1nI6O5bX538ABvFhHwYdmXjl+gSZURM8M5zeLp+DbeSwGq7NBt22n7sA+1u60UyCDr78fL/w0mshxqisvsyAI3xnXvGcZfU8s+WsWk79mMTkrpxFZV8pDmy3Ibrc8S33TVSjggC5QUVCHPDuK7S8vJv93M4luqOA5Y3W/6xZ/eIiMkSF8+NJi8p+bxkTzEV7Z1zxA2o0Y0/fx5D9auDQ1JxXbDrBhZCgfvryYnCf9KPpbPnsHSuo61JSbw8Pv1mE8P9ha5yne8xnPpu6l2G2K5yj42yGM43S8+9Ji8lNuJbLWQmp2nWv5YHU2+LYtRZ/z3CFPnvxVAvkv380fQ1r4xVuHqBuoKIIgfC9d82DZi/cklsz3QS4/RXnzEVJTs8nuGQRkC2uf34mx/BDPphaT0XGBV9dtJSZ1J8bGHus1V2PctAND6lbiXvmMvTZn97I2ZVnC81uJ+d12UrdV0NLRubAR47qtrD/SSFHWTtc6O8ks769V9yTsvvksnemP5AFIGqKne1LdeqGfdavJPTaCH8/Xob4BUAeTuMCH3AMV9B/v/YhfuZj8lRqi+y7qqGBX0Qh+fM8U1B7AxJks051nc8E33Hy31FGw7TOe/P1WYlK3kvCnfVS0dS4cTj1dynf+veSvieXXA3YondTtKeDYOF/UQ0rxRqJ/ej9rDMFKnaiDWXKXmuIKm1K/g9bZ4NuqI+fy7s9vJ0ytAo8bCVugYckZO8XX9EZNEISr7foKlgAXXYHNW0d8+Hlyj/WIlhWnMPr6MSd8Fq+t0ZGIJ79euZj8Nb2HKTNzTjA+fiGml+/mNW0rv99V7uqpNpL91hHeGxnCu79fTP7zM4muLebfsyp69WSzth6hemYM219+gA9jYf22Yjc9iXZarGbeO9DO0pnBQ9vPm28kuvEc1R3uV+2l0UF5x2hu6dpfFRMnelLcYB9Cb3wYLtipHhnEC6lKj+qF8adJ/fREr1WGX09DI5fm8WrzJBJvdtIy1I08eg+LfvVVB0geyjC3uzobbFtUva+Sr5y0oGLkgOPngiB8H11RsDQYDL3+XRkn8pkTZP2jmeBIDdPwJFLvTYH5hKvBdFJR2kykPsjtM7XEB+YS7TsCPG4kcoY3cv05pRGvLGNjvZoVS1w9PElD/IOBjDjyBQU9WuXpd+lZMulGYASBM/2IPtNCzUCRqPEQz6buwPBGDdJ9sSRN8exnpYlMD7rAe3tKlV6sbCU76yQFfEXdcHsop89T5DeGiT2+8vUbDWcuDD2wDIXfNBINYQRKqq56rKu29wqGw6qnoWorZcNOFU8tmnQFiTRTcOQ8c6cGKz3TYdVZn237aDHbyL7Jj9uG1uUVBOF74ppO8AEo+CyPmM+UvyVpBPPumMb/LFAaSkkfyJKsL8hthHi/GvaVjGDuvw9hMsgNfSZfNF/AATR92UKdnx/hPXsFGm9mYaPaBnNdDaDk0fceop3TzUB/WfvN4rU1euT6MjZs2suzZ+bw2nz/Pit5M/fRadT9xULC8xZGenvzzMMa4isbGe/tfncu0QFfXcZmw9ZspaCgAqPZweFmpcdvBwJdi4dVT0PRYcP41hdMfGgBYZd9G+ekbs8+XmkN5H/n9KjcIdXZANt2sh3iRZPMM0/eOsThYUEQvi+uebCMvmeQ2ZAeYSycWc6bxxqJD2skx8uPP16rma+DGoE0cRorEpqI+6iCivn+hPVdRR1G4i/DSOz8bDvEjlGexA93OG/8GCKbzvcKWk22Vrjk+V4jxnV5vNoI4Mmv+86odUMuzSNp81mmzAkh6WdaghsOEfPuMMs6XJZSXq2/AG9sZ22PrwtSt5L42GJWTHWfhHw8j+f2wDNPzSK4M+AOsc763bZTWynr37LC/Dks0YiZsILwr+aaB8vBqQib7c/pLTUUY2e8/spea/C9WU1g9lnKZYjuDFLWZg7hyf/XtzPolhMu0rsXO1LF+DbnkHp9dUcaOBYUQtBws/XzItyjgbJ6mDZRKUe97QLRWv8+r6Eok4Tih5isfKG9x6dmCvY2cuNdc/j1Pa6KaRhuQS/D1Lnkr+nxufEQz647z7I1c5k2lO1th0jNbCY68W7i/Xscl6HU2UDbgqvHa6Fgko7/vWTUQBCEfwVX9MzSZDL1+vet0GiIv1jHKwUwd3rPrpGEetQFKqrPQUc7DGWiTOhklk9sYX2WhZaLgGzF+HEd7TNvIXq442rnLbz6hxyMla4JSLIV485GmO5P+CUrO6nbt4/skxeAdloqD7B2n4pnFoYP/J7lQDzCWBjZwXt7LMrzz/ojbLKMIT5yeF3ulmN7WfbnQ1TLTrhYx659LQRPGu+6GRmJNBLqbXYlj+YTZOXah1vSq8tm5tW3rDD/dlZM7fPOqbs6G2zbDht7/3KAtWj4wyNThn+8BEH4XrjOe5YAgcyL8mRtoTe948EkEn9Yx1Pv7yZmm4oVyxJIDHWXlh8LfjaTr94v5rHfl9LkoWJu5DT+Jz5s+I3gGB3Jj1xgY9Ze4s44kT1URM+cwv8sUhrUpgOf8di2dpJ/eS/x/qD2gdxNO3nxPKi9vUl+4q7uHswZMy+uO0HTXXP473v8lR8IeLc7OBWs28qr+PDmmrlMQ0XYottZ8U4hDz9fqrxg/293MXeYzz7VU2fy7In9/Pbl7VRfhGnhk/hDfOdMXk+i751E9KZSDM+XEnyTH8/crSH6naG9GgLVZP7nETIm6die2DfAlLI+1UJm50fXM+shDbPKpax/2cKOyTq2P9Yz3UayPzihvLf52b6uZ+AA+GnYvnLWIHU2+LYZMxtJPeEErDz8vLXHwuEPbQuC8N31g4sXL359rQsxOCcVWZ/w2phZvGkIdL+68P1mO8Szu8aw5qc60csTBOGquf7es+ziVIZW64/wpnk0y+aKQPkvr6WarC125l7O8LUgCMIVuI57lnVk/eEA689/Q799Knz3NVupuBhAmO+Ia10SQRD+xVzHwVIQBEEQrg/XbIKPypp6rbIWhG+EU7PG/UqCIHwviJ6lIAiCILhxHU/wEQRBEITrgwiWgiAIguCGCJaCIAiC4IYIloIgCILghgiWgiAIguCGCJaCIAiC4IYIloIgCILghgiWgiAIguCGCJaCIAiC4IYIloIgCILghgiWg7Bnr2bZ48tYtslyrYtyWb7r5RcG0Ghi9ePLWPZ4Bt+1I3tdn5NtZjYuTcCwOAWT7XITsZDx+DKWPb4aU+M3WThBIWPesIwEQwIpOxuuas7X7IfUoQHj08tILwWvH65jS5JO+fpwOoZUI0xJZtPr8QRcuwIit9lpqGsAh/wt5tJdD10kLwJ0C0l+ZjlR/pef8tUpf2+OCiPpr2WQX+NAHuWD/t6VpDwRhY9qgA2cdgrfTmPdTjP2NgkffTwrn11OlN8gmThlGsxGNv4pg3ybTPwaE8m39SxEFcb1aWzMrUUepSVuWQrJi0Lw+gb381vntGP5PJ9KVQRxc0Lw6ll/He3Y6xpowMHVO7LfjKt3TtaS+XgSGXVgWG3i6SigLZ+0xavJIY5VW1OIGQUUvo5hlQnmrWL7L7+JM0TGUddAA+No7/gGkrtcne1oPy65Xq5rZtINKRjRkZyxjvgraA+v1HXRs3R8tAHjZd/JAY1GVhoMGJ42crn3GuY3EjAYDKQfvoJy9MO+YyUGg4GV24ZRMtlBgzmLVctXkWMf2ibfVvmHpSaTZ55KJ6fG1Yi32TF/tIoVg/QiLJtWsOojM/Y2ABm7OYtVT6SR7xg4G/MbCSxL3Ui+rb8GtwHjCytJz611laGWnDdWkrZ7iBV5vbBb2P5GOlmWQSpCGISW0GnKXzV1rmuvpoRCAAopqVG+aqhT/gjQaJBG6VmesR3T1jQM17BR/nZpCRjsRvS6J6FP2sR203bS7r26XanrIliChYwPzQPfJTsdmN9bRdJiAwZDAo+mZGBudi07nI7hJ+nKcFRpOssMBgzrza7tasn500oeSjBgSHiIlRsKsTv7Jt6A8WkDKduU3I2pBgyGlb2Dt1xP4QZXOouT2Hi4RwNmKyTjhSRlmatsne2beb2BR9crgcLyxjK3wSx+jQmTyYTp/TSWBAFyIXuOOLBseAiDwcCyd2u7a+xt5buU7LIrK/9gdQs0bFOC/ev7GgZOo1NQIi/9NpnVf9mOyWRiy3MxANiPVQ5wE2NmzzY7oGP5RhOmT7aweoEXyDlk7Kztdwu3So1kHJchKJH0T0xsWW3AC5nCd3cxUIpyo4WcjzaS9tJqXv9rDlWdcbWtAXN2Jumvrub1v5ooLMzBuDOfWgfQXEXODhOFpVWYd2bw+kurSNuUoywDHDWFmHbkYzlhIee9dFa/sJr0nRYcPc4/2WbG9F46aS+s4vV3c6hy1bujIoes97eQ3wyy9SDGHTlY+o31do5uW80y1zFJy+69hw5zJquWKzdRCcvTMFb0c8xsrhtNQzquqwbzekPvGzxnA/k9r6M/5VDbYz8GzcdZi+nVJBI6l1W56VH2uWaTXjX1yMtMusGA4T+ysFQYSVuegMGQwEOrjDRccl2DJjgEAItVuRjslSUoJXNwtETZN5tVuT512oDu9Luun6Hl5zBnsPKRBKVu/nqQ/g5Vrzp6NIUMs6uOnGbSE1x5uoZtC9e66n+HK6XC15Xt3nAdIYeFzBeUOjUsTmLVe+Ze5xUAtyUrbYnr35bfxiEhofv5SyzR9Ffvg7cDyjmxEmNFFcb/XEaC4SE2ll6azKDnwiBtZVddP22kqsLI6qUJGB7Z2O9jhkvOz0HzHXq67lzDYdhOccTdnU/Ojk3sengd8Zcsd2B+I4mUzhMHGbs5k5QVDtLeSEY/YLoNGP/vCtKPd16cDiwfrWKFah2bn9ANr4jZr7Oq60MtWWmZxG5ejk5VS9bvVpFZ07nMVbY3QrsCxWXx1jN7OmTVgMPhQLdwCQEfZdCwO5/ax7RoqeVovgPQEzfLm/ZPL7f8buq2x6iU6aVlmPpNo3dWAXe6hs6ddqx1SrqSj9fAQ6AygITkqfzvr9EAFmptZwBtv5voV5gwrehn+BpoKFMaxIC74ghRAVFxxEkmjHUHMTcmou1zV+0oNZL2UjqFdvAJCkDel8/BRon1y3zI+dMqNh5wgJcPUm6+sv/+8ay+PQafKhMb1xtdDaOEhIy8rxD7jSGs/mEA1rxNvP7XKiUTlQROGQ5Y8dKuZelUL+zHM0l7IQOzQyIgyIeGA2mYChtIfzEe+2cZbNyhNAT2wiwyLDEE3BHHpWdtPplvdB+TnLXP4DV+M8m3ScjmdJJSjF0Nt2zNIf1XDrw2rSbOZ6CD0b+qzc+wemdnSg4sO9eRGRVDyhx3+TjI/8MKXs91XYPWHLKsg2TkvPSarc19nRWN7Wz4r3gCOs+1ExtZ+VT3Zo7CdNbtjiFtQe8dC9CEAVXwRS12dFiKLTAphJATVVSVVyEjUfsFQAihIdLA5Rosv5pMnknJdN2IyVjezbpkc8fhdJJSe9SR3UxmShKONRtIvi2ECD0YCy1UVQN+tVQWK+tZyqsAHxqsFQDow0MABzlrU8g44KqjtloKN6WzK2ZD/0EQoM1Mxvoc5KClrHygv97YUNsBCxnPp+BodgBRhE7sncrg58LgbWVX7ZdmkPK8A0czEBXKQLs09HwvP92+roOeZQMRMYlosbDxnXxkFfQ6ba27SN/Rs/exgeVTgEYj6TtrlTuoNa4QOyWZTSYTphX6rh6GdPvTbPrEhOmTdBIDwb5tT9cdtCKA+Nc3kTxF+aT07vqMjfvFs/p9E6a/uoJzcwmVpwG0xK9cxeqNSk/KlBaPFyDvPooFpVFPe0BJQvfzTZhMQ3xWYC8k74CrdD4+EBRDfBBQl0OhFbCZOVgHTIllhs8VlN9d3TKENPrRsG0lhvsfZeW7FqSwRFb/Mm6AYKljxt0SYCb9JwYM9yeQ9PaVTfyw1SkBapxX51nkj3aS68++z5AaC3nrlXQKnVEk/3kLm9/cxKaN6bz6hI6qv6ax8QBE/TydLe9vZvOfl6JTgaQNQeMlY6uuxA4ELHiaDVu2s/n1RLSAzWZDbrNTU24FvIhKWseWrVvY8HM9YKeh0QGNhbzzXxmYpRiefnMLm95cz7rHtFBqxFQOUUlrWX2vD/gZWL3ZhGnLKuL6HRbUkfjnLZg+2ULKPAlwYMw1Aw7ytxixo2VJ2pbuXr5cyPZ9wx2ObqCkSNkm7kUTpk82s27NOpLnSO7zseWwJR95t6kAACAASURBVFcGfIhfo5QzbdHAQ2fygQw2HpfB26Cca++vxuAN8vGN3cEBAAld0gZMJhNpi5Qzy1zeTxTWhig3GBW1WKmi5AhI0w3MnwQcKaEKGw1fAoShHXTYdeD8zEYlUEpTk5V2JqPvDXwtu95UGnLdE0oaG57QAXaMb+6iFi9Cpih1crS8FpqrKKlzbVpcSS0yVeVVQAgzdF5AFSX7ZECrXLPbN5GWNkBv0cX++WaMzaBfshBtf3MHhtEOONo0rnVWE+fda4mbc27wtrJnOvLNy9nwiQnT7wdqN4aT7+Wme6nrIFgCIQtJjJKQd29hl1NLSI9FcnWlctc2KZYYDaDSEhOn3GPX7jf3O+QB3T0M+cDrLLvfgOH+ZDLr4LJmRNweS5Q34Ke9pK8jTdTgyF9HyuOPkpBi5EqeMClDqAYMj65ShmT84jHMkgAtcUv0QC15hxtwFB/EAujiooY2AWqA8g+rbgepg8HINTnk/HOgoyQR8/M0EvU+SIAUtoTVvzQMI/V+UpQG6SH0Lhm1B7awxyYRtWw5C8OUy8dLE0LAuXy27G5Aum0pyxcok2skQHZCQHgQXioHtVVW8Iph6WMGtF7AVzIy4B/ojyTbqKqWQb+U5Q/o8JKgvc0B+BAQIHXn+5OlzA+SAC/GaULwwoH9nAPabJSU2JGCQ/Af9KoOZUaYF6i80OlcV01tAw1UUVIIUEtWijJc/9Af8pXlzuFeAAFE3aNDAnJeSCDppSxq1P6uxsZNPidrlYYwMJ7425Ry+geOGzCnhi8syuV5e4xyrnlHEXcngEy+uWeTGsL8GOUs9A8cJEr4awmVANmBw1pJSTPow2PQhqLc7NkcnG8GJmnQDDQBbdD8GqitVOoz5sGFSs/Xv8/10WalskZJI9aVhvau+UoQr8nD3AjaaVFIQIPVilxdghkd8Yt0UFdCVXMDteWAFEFoIICO2EU+QC0bkx9i5doc5IDBWoFacrLMynYz+x9SGE47EPDISiUwX1Jf7s+5obWVAST+YokS1Ac9JkPP9/LSvdT1ESzxIe6xeHywkLHzKENt7q65NjPpK5JI22SGuJ+Stnppr0B/2Ub5EDIvmfT1yehHKV/5zIpDD1gOWSgsV07++Xdcy7nCAwtYtA7TJ9vZvGYJWrkB03+uI6d5gJW9dCxN28x2k4ntf16ORlbGaXSay5thMW680phZT59xfWOj9oTrz55nu9OBtdyKLOmYHRHQ65yzV5VQJUvo74wiwFX/9tpKbHgREuyPV5uN2i8ccHME2hsBZOzVlTQQgFbjA2crqTwN2nAtPhLgtFNbZQPvEELHgq3Kle+0znxlZHsDDrxQe0nITZWU1ENAsGv7q6IduZ/nfgABD6xj85spLJ0Xgv1IFq8/9Sgrd1zdafuXR4M2DKCWhsO1VOGF9iYfQsJ1gIWq/FpqAEK113TWPeEziAEoryW/qgTZO4L5t4cCZkqqbNjqAH2Eq22R0P98M5vWJLNkpg9VuRmsWvoo6eYBboIazeTVAN4RhH4DE3u6R2yGacht5Ti8PK+ggAO68nSvk2AJTEkkeZ6E40Bhr265FByq3KmdyCPfCjhryc9R1tDeoafXvVJ9LTYn4IQATajSW5m6nA3bXQ+6t25h+yeDPeeE2jo7DNBoXMKSp/QAJy0h+VEDGpWd8wOsaq1zzbgZJO2uCT5bN5P+63hCeg5z+Mwn4W4JCjPIKJRhyvx+XysZTvmHVbdD4Wwg50OTMkFGJeHl68MYABw4Lij/m99YRkLCMjZ2XtzOBgpzq5QJCrYcMjZbAC2xt7marzojKYsNJKSahjTTOWByBF6AI3sXhQ5wFOaQIwNBsej7NBayLCvlHNHrW2hzICPh5SUpwczpwFpehUOlIVTrhXyuhspT4HOLlnGSstxWbYVRGiICJBwnrVidEppgVw+s7Qy1tQ64ORRNZ09RJXW/DuKoUurdW4c+2AvHySqqZC9CQvzdDBfZqbfT67h5TQ8lAH+0UwB8iH9xs3JOfbKdLVtNrOs7DOrZ+Tz5KCUngObuRwCdHMdN5LXpSfz1Ojb/Og6QsVTbwF0+vj5KEKrLIafCVY9VAz+0DLhF6cFyIJ/CZqUsOZ8DSMTohznPAKVc2lAJqCIvpxKZKCKCwGf6bAKAin/kUQWEBF/OEywlfR9Xdebn5yvnsLWSyp6rjNIQGoRShnxlSLP2H3uUNq7znBwVQugkoM6GuboKZkYQotGiQ6YkN58aIGBK96tPDZ8bsQYsZPmLG1i/TAvYqaweYPTG6urd3xzAQLef30w74OZcGEZb2T95gJu5YZzrnYbZpnS6Dib4dPIiJjERbW5G71mLmoUkP5BFyg4LG5cb2Nj5vV88yfe6BjyCQ9AD5mYjKfcbkRalsT1pCcun7iL9+EaSErq2QvuTDWx4rO9AYgChEV5Q6sC8/lEM63Uk/3UdUe6K3JnviY0k3b+x31U04XrAjGNbCoZtEvFp20keLFoPSCIqJgZpdw4NdaC9V9/jbvgyyz+Uuh2Ghh2rSXu7Ct5+vXfJp3YG9irytjUgA8YDVSzXh2B5+xlWfWSHV7vX91mUTLyr/Woo3IO5DTicw1G7AYNP53tX3YypBozEk2ZKRj8lnqVTjaQfN7Hqoc4pSRJRP4rrPTym8kIbrIFcM3v+YSEkbhxnzPlUescR6+OLFw4sh81UBWtp+Mcm1m1rAP8otGoJuaqKqjbQhPgrAa/tDJWVdpgYj/ZGsH1RgQMNoVqlmZHPKME1YIYWn1FeoPGHNgt79lvQRUkc/WgdGRWgW/YQUf5g31+PA4mREthtDUjjA3q/Z9kln9cfNdBV25KOpQ8oQSXup/FkphoxvvBod11JcazanEJMzwjsHcKMICisaSDzKQOZgDRKout5hWwh89XXyWqkOx8konQawGfwfILiWDI1k/TjtV1pD0a6fSnLp+Yrx+6R7ulk0tTlLL398no0IeF6oBBLqQUmxRIyCrg5lBmAqVQJCBHBl9uvlIi6Nx6fXCP23DQeyk3rZx0tC5+MJyvViOXtJAxvd37vQ/yTC13nZAARkV5wwoQpG0KSQpD8fIjwhqxsEyARP8119jaaWPeHdMxyeo88fIiY3P8+NFhdofsW7cBB7xtpBwIGPxeG0Fb2T0LyBpqr2Pjv6YRuTx5evv3cbV7apgytJNdPzxIgKJ6l8/peFF7of76BtGVRaEcBSPjoE0lb32OWlo+Blc/FdS2X7HbsqgDi/2s9Kffq8enazkDiXf0ffN2jq0mc6qXc2Y46g6NpCOX1MbDyuRgCJGCUlrhnVrN8ap9V7l5Jyjytkq4kYT99+e/7SbfPZz4AWhbe0Xs/Lqv8Q6nbYQhYlEb6Mwb0nWOHo3zQ3/s0617s/HGJEGIXBSBJAcTfHgJI6B5JYentrvoZ5YP+sTQ2JOm7hkUDouajHwXSbXHMGNJJHUD8i+tI7qzzUVrifr6OlLv7biwRsmAZiVNkCjelkLQ0iZS1Gezab+HrkIUsDIOGnWkkL09m9ftVSD0m99itldgJIPQW5Vkr52qprAefUC3jVHYaqqzgE0aor7IXjoYqqtokNCEaJJWEdt4ylkxyULghhWXLV/L6TjtRy9JY9UMdXkj4aELRYsf00jIeXZ5OXt0AQ2wLnmb1D0OUERRvHYmvrO6a2OV1WzIb0pYSFeTlWq4l6lFD17B+Ny0Lf5GIzlsCJLTzUtiQurBHNelI/N3TGLrOLS1Ry9K66nPwfAKIfzGt67yUNHE8/VziwEOeXdes8pwXyQvtvKdZ33Mm7DB53aTt7p1HhCp5q0II6bpOdWhvury0ASR9Mms72x7JC91jq0me06cMnXWkUc4HyUdPYtoGkm/rvshCwrtvbZXgrWPG7Z3f6IkIdv3pZ2DlbxO70/LWYfjtWmVCTj9kx5n+F/Qu4TfSDgx6LgyhreyfjiW/NLjKZcfRz4POoZ/riuG3KYofXLx48euhry5cS44Dr7PsBROOoOVseHPJsCbaCAOQ7dQWmzGflgjV6QnRuIJCWwOWQ0dpkIIICdPg1WLD4emP1t8Lh60W23kYd7PrmWKbndovz8BYDVofsH9p5Qzj0Nzsg6QC2V6LtamdMRNDCOhsfNrsVBWbqTjvRVi4jpDA3q2So6aQvKMNjNToidJrB+hZCoJwtYhg+Z1gJj0hBaMM4IVh9SaejvpO/XibIAjCd9p19MxSGFBjLZUyyvDFshR+JgKlIAjCVSV6loIgCILgxvU1wUcQBEEQrkMiWAqCIAiCGyJYCoIgCIIbIlgKgiAIghsiWAqCIAiCGyJYCoIgCIIbIlgKgiAIghsiWAqCIAiCGyJYCoIgCIIbIlgKgiAIghsiWAqCIAiCGyJYCoIgCIIbIlgKgiAIghsiWAqCIAiCGyJYCoIgCIIbIlgKgiAIghsiWAqCIAiCGyJYCoIgCIIbIlgKgiAIghsiWAqCIAiCGyJYCoIgCIIbIlgKgiAIghsiWAqCIAiCGyJYCoIgCIIbIlgKgiAIghsiWAqCIAiCGyJYCoIgCIIbIlgKgiAIghsiWAqCIAiCGyJYCoIgCIIbIlgKgiAIghsiWH4vNGB82sDKbQ3XuiDQeIhnU3dibLzWBfmGHN9LTOpeir+xBBsxrtvKs3sGqaBh5VnK+tStrD/+DRXvqhhCHVwt1gOkbjvxLST8DRyX+kO8+K2UTbgc389gaTOy0mDA4PqX8EgSq/5aSIPzWhXITLrBQPrhq5ytXMza1J0YbT2+q8zj4dRs9rb0WK3oM2LeNNMCVGzbTsx/7qPiKhdV+LZcR4HputPM3k/tRM6epHw8U0rmmzswpG4l5vntPJtZTF1H57rt1B3Yy7O/30pM6lYS/pRH0Zkra1D6XmtNe3b2Pk4Tw4j+spLs5ivKRviGfD+DJQDxpJlMmEwmtryxktlfrCPp/xqvYcC8BiQ/wnwvUPHlha6vqsvPUsd5jtV2V0RNbSuBE9SogbBFCeT/dg5h16C4gnBVNVZgvBjAgokAF6goqEOeHcX2lxeT/7uZRDdU8JyxGoCWos957pAnT/4qgfyX7+aPIS384q1D1F1B9n2vtfqmC33W8GbeHR5kFVxJLsI35YZrXYCrQfLREf/bV3H8RxLrdseQtsBHWeCowrg+jYx9tThUPuh/mMKqR/V4qcC8PoHVo9LY8oROWdecTsIqWL09GT2As5DX79+O/v3VxFWlY3gngPRkiS3/tZEcKwTcuZJXfx1HgKr/MjkqjKS/lkF+jQN89CxJWcVSvZey0NmAecd7bH5/D2a7jKSJY+WLKcQFdm9vL9zI6teMWNoktHMWEiH3l4s/t2ghy9YIaIBmaqwqls5U8ffyGlZMnQQ08sWXTqLnKIk37dlJgtmP7Stn4UsjxnV51MyLJfrEIV48coEmD09W/NtdJIaPUbLosFO09QAvHrlAyw0jiNePpm9R5JpDrP+gDuMZJyPHjGHpkjtInHIjdJSy/nflqJclsDRUWbf4w608xTRyHnY1IeY9xOz3xfSkHvWZUjLeKWeTzQmSJ0vu0ZEUG4zUX37vWclqBrW3N8k/vp34oDHQtT+3E24+zNrydr5Sq/n943O57UwhL75no+CiigXzZvKbezQ90nVSdySPTdsaKZBhWriG3zwyi+BRrsVt1RjfLya9vJ2WG0awZN40VszvLJeTJnMBr2xtpOCiimmhPkzv6FPgHtszZgyJUzzwZURX3i0nLezYUU2mtZ0mVERHTWPNokm99ltutJDxpwo22ZyM7LXP/Ri0vN2a9uwkoT6QTRObeC23meIOFdEzw/nN4in4egAXGyn+RwmbC+zsPa/U9W+WzWWuv+uk7zhHcfZB/ryvheKL/dRbl2b2vrmHDRP0vLt4ErTUUbCnhE1HWiiWwdffnz8mzSGsczubmbWbTpDVq8flya9X3ku8X4/6lsHX348XfhpN5LhLL8Sm442gm4XatX3YffO7bxIlDdHTi1nbqAQwdeRc3p2pcnUvbiRsgYYl+6wUN0Ggb//V7O64dF9rQexbl8erjQB5xHwG0ffE8tp8P6RwPwI/s1JtCCR44GyEq+B73LPsQ6UlbmEI5s/NOABowPjCSjK9lrNhqwnT+68y++gqkjaYkQGdPgZHUQmdTwFriwuR5UJKalxfVBwlLzCCEG/X5xMZrP7Yi6X/sx3T+6uY8c91ZBzoN4KBzciqX2Xi9fgGtptMbHllNkdXJZFudq0v26g8pydp/XZMJhPrFzSQtt6E3bW5bE5nxeoSZr+8GdP2Lbz6oBc1X/afVdBNY6iw2mkBkK0UnVITN1MN1XaaADhLtc2TsJs9B6y6rK1HqJ4Zw/aXH+DDWFi/rdh1R32B4qw8nq3z4Y8pCeQ8fyfxI7/iWM+NG4+QurEO6Z655KxJYPsyH4r+lsuG0gvgEUxkqJOi6s5xYitlJ0A+Yae6s5pPOAjT+KCmmb1ZFo7pZpGzZjE5KycTqR51SQOP7RCpbzcS9PDd5K9JYPu/3cjetw9Q1ONQZG0tpuWuuzC9fDevaVtJfWsXay1+vPD8YvKXj6duTzG7eo1aNpNV6ctvnl9M/ku380CLlec+LlVuCjpsGN86wt4J0/jw5cXkP68n7PgR1h9RGlm5NI9ffNhC9E/vJv/le3ktdgTVZ3pVENlvHeE9j2DefWkxpuf0hJ9vdR0bABXyl+eQYqPY8tJi8lPCCP5nMZnlvYdIjEWnmPZv95Kz5gH+EvkVa985RHF/p5+b8l7ieA1ZTOK13y8mPyWc4FILr+S6KqfjLGUtviSteID8NQ/wl5lfkbrln8q5xgWKs3J56rgnT/3qAfJfvptnp3ohjeybgZO6Pft4Rdbwh0Wu4dALdqpHBvFCqtKLe2H8aVI/dT276zhBxls1SPfMJ39NAqZHfAge48+7a+4l3g/k43n8YofMkqeUMr17l5O1/fYAnVSfbGe61q+fnW6nxWrmvQPtLJ3ZGaJUvVvLr5y0oGLkJSdgb0M7Ln7Er1zMm9OVIJm/ZjGvzXeVSx3AbTc0U9PSdxvhartug6WhxzNHg8HwjaQZoAmDkw1K0Ck1knE8huQnovBRAZKWJb9IRNq2hfxmkG6dTdSJo1iaARowF+pY+pNxlFQqodZeWYIcFYG2M3F5PsnPuHqS3lHE3Slj+aL/CTeWHRlY5iSz/HalhysFLWHlIxLGLflKIB+lZ8lP4ghxdYC1d81Hd7iUKieAg/wtRqRHVpIYpvREfabEMX9S//us1ngTdqpFCfq1ZynQjCVIO5boRjvFLYCtmWJGc4v/wPU2/S49SybdCIwgcKYf0WdaqJGBljKyjniw4sHbCVOr4AZvwqL8iOyxbUWelYLQSSTN9AZUSDfNYsUcDzL2ltGCJ9PCx1BU1aA0sI02CvwDeUbqbByUXu+cSRpA5qs2wMPVQ/CeRLS+b6GdFO+xwrxZrvKqkG6axpJJzRT0eAjbtT8eNxI5wxvOq1myOAz1DUCQhgXeF6g51TNdH556WIfvDcANgcTf6wfH6jjWAVhKWXtRw2/uC0btAUgaFs5Rk1VaDTRTsNfOiDnTuupPHTqJuT17IpVlbKxXs+LH05T0JX+iI717Zo7v7XNYMtUfyQNQ65gX6qSo9nSvdZYY5hLpO0I5RvdMZhl2ci39PHMYtLz98Atk+XzXuuopLI0bQ8GRGiX4SGEsWTSNYG9XvjP9iD55hvIOus6NpIeimeY9AjxuJCxqCoF9WxzrIV7MH8l//mxW9zK/aSQawgiUVF3HqK7aruTZZOfYeW/mRSrnk1rvT/T5Zo41AjSyK9tO9INziXbVhXrmJH7YYafokke2dupOjcDHu8/XjYd4NnUHhjdqkO6LJWlK/zeRLWYb2Tf5cZu6/2rrNOTjMiBvxvvKnD47jE2Eb8W/xDBsL54SEkqwc0yZT0jPIaGgCKLIorIe4qbomD0ljYP/lIm71cJBIkiO9CHrUwvcHUVVuYWYKF2PjUcg9RnpaThzBrrDqYudyhIHurtCevWKtLoo2F6JlTh0AHID5p1GtnyWj6WmAQc6Gk4D/lWUmCFqcd90B3CTN7PavuCLJhhRfpag4MlIkkRkUAXHap3MvXiOIo0vQYMkIXn0beHaOd0MNJ0lFzVLNANt6Rrinerfa1+Dg9RQpATwsDAfonc0UizDtAo7aGdyq3cBu044mTu9ifJ6NZGTAPyYt9CfHX/bR8JxH5bfE0H81L69AjtfNEDBMWUoq6fEqMH2pydPJDe9Bbw9CaKFuiYItrUiN9pJSLX2Xmc6wCnKrDArdsAKounLFur8/AgfNM92WqxlZO+uw3jyPBXngelngIHucNT4eMGxJvslS5oGLa97au+R0HQeOxAIINsozqsgy2ynqMlJE57MbYLIznMjaIDnEACtNax/p47iiWFM7zs022yloKACo9nB4WYluHTlSTstMiABvYa0m6hphMx3t5PZKzFPfj203QO/Wby2Ro9cX8aGTXt59swcXpvfp55th3jRJPPMk7fiJlb20fO49Nej7Y8n6pHt1J8bVkbCt+BfKljWlh8FXz1ecMlztUsFoI8KYGOxBcaUYIuKJyAsgNgDR7HgxdEDOiJ+4q5VvUw2Eyn//v/juPc/WPF/1xOiyiHl8T3dy90XvpuHL+ETLZQ3NDPSCtH3KRdpkGYE/1tTR530lWuY8zI4h1eUfvn5E+1t5dgJJ+oamehYP8LsXqSeqGHFmNPsnehLoquapfA5/Pfvmqk+cpyM7Xmk5wbzbvJMujtqEjeOhugFsbw2b6iN0eUb6QGSpwomBrP9qZ7l6FSK3Pf5ZF/ulnOB4qzPeLbck+X36fjjIwHUf7yDJ4dSwH7uCQYv7xB1ptt4hNQ/V+PQT+KpH9/KbzzKSf2Tqws3hHOjaL8V5mhILDpBZqWOpaFKYJVL80jafJYpc0JI+pmW4IZDxLzr2sgviLl+VrL+UUf0PX7U7fmCrHE+vOsHIKEeBUsfXkzSlMvdOYARSBOnsSKhibiPKqiY79/9LLOtlPVvWWH+HJZoOm8ESlmfanEFaB/eXDOXaYMlf92O5wmD+dc5bE4Lu0wN6O9UgqVPaARepSVUtfVYp6aEQnSETlQ+aiNjkMpqyTmSj36aFlQ69OElVJorKRkzG/1ltcc+hEZ4YbFU9WpMai2FEB6KBrDseAvznatITzKg03j16bFq0E6FSutQ36n045abVZTXV1B2Us1kVycnOHws562nKbZdYNZNgYMnMZCAG4mmlS8GfCtBybug1tZrX6trWmCCmgDX/twarqK8rpiiE67yTfJlWrWd4i9bGBMyvnejfoM3wVFzeOHpMOadbGBfr7y9CQsaQVG17cqD+CDk2rMUjFJziy+ob/Fmmq2J8rb+1vQlfCJU2wZ+bcM3cDRS03nqBwqaLWVkFalIfvwelug1+I4aMcCKPQtoo6JRxfSbLz1BBy+ve9U1LaAZSxDKEPveyTr+e4mesIk3KsPEnbRjWUALZdaBUgL8NTxjmMXSuz3ZZDziek2jmYK9jdx4VxS/NugI9u07ScmHyKmenC46TFzqDh4/pua1n81y9TgDmRYERScGy7TbyF5dBSdc7DM8OlLF+DYnX3V+7rBhfMtCwSQda3r1NqewYs1i8tcsJn+wQDnIcRlYI3WnPQmaMIxNhG/FdRssTa7XPjr/XQm5zkzGqhSME5JZebfrQeCUeJZOzSf97ULsTkCuJeu/M5EXPURM53OMsNnENeVhKtIzIxzAi5ApZyjJLqHqtohLBlgHNg6fHvFI98BSdPvS2XhAGSaTa7JY975M/EMxeAFjPL2gtpZaJyA3kPNuFlVdW/sQc18UVZszyHHNi2nIzSCzdODcg7SjKSpqYN8kX8I7v5w0nrnWBrIbPAm/eZChssH4TiI+6ALvfGKm6SJwsZGCnXUU9FglLFZDdOUJNhxpBpzIJw+xfl8HS+dO7urNhoV7U2+xUXSTq3xqH6bJZ8muvcCsIFfFdVgxbsqjyHZBSaf+HF94jCSwzzOnwLkhxJ84wdo8q9Krk+1UHK++wuDZTHahTUmv2cIGUwvRd05WehsTp5EU3sL6d49QLTuh4wJNlRVUtwH4ER05hqJ8M3ub2oF2mgqP8V7P2BmuYdkoO5s+raalA2ipJmtPj+HTkSrUtFNTdw5op6XyAJstl5awoKiYOtkJF5spyjqBcaKGB0IB1Iwf12PFQcvbj6ZGciv7P3YjRnrAqWbqLgKyjYLsBoo6t1NPZsnMDtZ/fICKFiWfusJDFPSYwRo5NYhAD1DfoWPFRSsb9zcDI5FGQr3NrtRH8wmycnsOJ1fwUe5InvrVA+SsWYxpZWyPma6eRMYFMnK/mYzjroza6igu7fmicSc/AgMuUFPnCpDnLbz6hxyMla7tZCvGnY0w3V85Jzts7P3LAdai4Q+PTLl0YtkABj4ulxrpqaKo1kZLR8/A3UL92ZGDzrgVro7v8TCskRSDEQDJW4v+gVVseDSqx6scAcS/uA7Wp5G0eJXr1ZHVbHhU330hqHTMmGrG2JhMiuuZilYXRf5fjeifSx5GWQKIuCOAVanpxJqS0f8/9u4/rsnzXvz/a0QCFiIKpSA2QNEgQWzKQbT8qIj1YWknOEr7aGm74tkm22div6PrxsrE1tlR3ayednDOqj2duFnrKmMSz6TOgeyAzAHF1EgQEIHUCKaJYkAxGs73jwQNCKLWFmev5+PB41Hu+76u631fd8j7vq7rvqtfMmvfgsINmaS85nh1ZO1mMlT2lgOX5pD+SR5Z3yxCGhRHxisZPHag9Ept3o/msN6wlrU/SGK9zRPlkhyWP1lL6SitS++fTFSPHmm009qhy1Rmy3Xs0Huz7Jb/EL1IeFGF4X0tz69u46LUnWWpIWR2ON3Z+0aSv9xGwR8rSfzI8erICwtId35wQuFD1PYWDIsH4wtgZmAdG494kJ/quGAu3sye0cbm9/byUh9Ipe5k/p4dEAAAIABJREFUvjifqOHfWhOVvJz9DYq2NfDYX+pA6sqCyBm8PIsb/oK7hs+9RBg0/Lu6j3ZcSVsQSf6VaV4Pol5I4OWSQ7z0i3ZMSIiQ38vKZxUwEWSxcWw2VvP623vIdbx6kRXVS/Fg3S4hZHzPwsZtn5JysMH+ekGSnMU7++z7pUqeXXKaNSV/I65EQoJKwXPzzVQOGay6syTwHAW/LqWyz/6Kxu++NzjN6k5oiAfasjrUsx8n2ff68V5jihvW2oOkbO3HMsGdZU/Hk+G4dsGJ4WS1aHl+dQmyKV4sTwsmTae/ElNEWjwbSg7x4/WlmAbscb0SNsLDLS5ykp9o48M/HUY7J4GYx0OI2dpE0qomgqf58vKjcmK2OfoDOQtUzXx/dYlTeQkRsxRsSFcik89jw3frKPiwnLjtIPPwYEmiklCuvf6hITLWtHWQpQoBDyUrnulnS3EliWdsWF0kxESG8dul9sRo+vsn5LbZAD1Pr3IeuQ6+sjLSB+d61+VaiqRQlr2jI2lVC8HzVGxfGgJGM0fu8+HJO3ZY8/XxjcuXL//feAchCMKdZ+g7t3eI1iqePzCZ330v4mrys2hY96aBWaMmrVFYdWz8tYnkV+NR3KHJyFC2hy2THuG12OGP7QpftTv0IyIIgnAty+nztFvO0dFzyb7hcg8ttUaOeNzDAzebT6ShJIefRd3QN/ax42Ggjb8emcxzD4tEeSe4i6dhBUG428gensM7p+p4/a09tF8GJkiICgng9ZciUdz0PLsERVI4MU3nseJx69P0XxaLlalJs+/YUe/XjZiGFQRBEIQxiJHlXU6izx3vEARBuA1s8vzxDuFrTYwsBUEQBGEMYjZcEARBEMYgkqUgCIIgjEEkS0EQBEEYg0iWgiAIgjAGkSwFQRAEYQwiWQqCIAjCGESyFARBEIQxiGQpCIIgCGMQyVIQBEEQxiCSpSAIgiCMQSRLQRAEQRiDSJZ3hS7UP0oie3fXeAcCxjpeyd2L2jjegdwmRyuJy61Ee9sqNKLeVMIr5dfpoJtqs4mC3BIKjt6m8L4SN9AHXxX9IXJ3t30JFd+G63KqjjVfSmzCrbg7k2W3muykJJIcPynPZJL3+1q6bOMVkIbCpCQKP/mKm7Vq2Zi7F3W307bWKp7O3Uelxemw+v3EvavBArTsLiXulwdp+YpDFb4sd1BiuuP0UPkXM1FzQ65uOtNEUWEpSbklJL6+h43l7Vi/pNaH/62ZyvcOvU5TFcR81sq+ni8pAOGm3J3JEoBk1peVUVZWxq7/ymbuiU1k/lQ9jglzHEh9Ufj00/JZ/5VN7c1nMdDHkc6rHdHReZ6A+2TIAMXSFKp/HotiHMIVhK+UsQX1ZX8WT3X8bm1h8382c0oVSekbqVT8OAIF/deW69aw+Td7vvANyPC/tVOm4W15seBhF4prDF+oHeH2+Fr8e5ZSbyXJP19H7w8z2fS3ONYv9rbv6D2OumA9RQc76ZV4o3oyh7znVHhKQFOQwtqJ69n1XaX9WE0hKXmwtnQFKgBbLf/xzVJUO9eSeLyQpG3+FK6QsutXW6jQg/8j2az7WSL+kpFj6m1RU7ihiOqOXvBWkZaTR4bK077T1oVmz4d8sLMcjdmKVJ5I9pocEgOuljfXbmHtBjW6C1ICYx8jfMTbXz8eCITibiMgB3ro0EvIiJTw1+YOsmaFAEZOfGYjJtZeual8LykaX0qz5+CDEfWmKjoWxBPTVseahn5MLu5kvTCf9FAPexMDZupLDrGmoR/LBFeSVfdccydu7aij4I8G1GdsuHl4kJH2MOlhk2CgiYLVzciWpZAxw36s9qMSVhJBxdOOrxBNOXH/8KHs+ypkZ5oo2tbM1m4bSN1JW6QkMz74mn/h3tpRR8GHeop7QOblxYpn55Ec5AFXzmceoZpP2Nh8iYsyGa9/J4F/O1PLmg+7qbksYfGCSF5dJHeq14ahoYqtu43UWCEiVM6rz8wheKJj94V21Du1FDZfwjLBlbQFEWQtHIzLhklTw5slRmouS4iY4c3sgWEBO5XHw4P0MBd8cL3StuWkjj172tmhv4QJCTHREeQvDRly3lajjqK3W9jabcNtyDmP4LrxXmUq30vKqQC2TjWx4UAP2gEJMZGhvJoaho8LcNmI9u+NfFBjprLP3tevLksgwc/xoR84h3bfP/nNQQvayyP02xU9VL5bzub7VGxPDQGLgZryRrY2WNBawcfPj7cyY1EMluvWsHFrG8VDRlzu/Cz7cZJ9nfrbCj5+vrz2YgxRU679QzQdNYJyDrLB36ta2TEthI/jHddeFkzywuF918Tm/TD7/gGaR+7dIa53Xa7+rQVxcFMV64wAVcTth5hF8WxY6Is01JeA/XrakwIIvoH2hC/PXTyyHEYSSOJj09H8r4ZeALpQv5bNDs/lbC4po2znOuYeziNzswYroFTF0VvfyOAqYKe2Fqu1lsYOx4aWw1QFhDPdy/F7WxFr/+xJxm9LKduZx0OfbqLo0CgTON1q8n68A8/vbKa0rIxdb87lcF4mhRrH8dZuWs+pyCwopaysjILFXawvKMPsKG7VFJK1tpG5b3xAWeku1n3Lk47PRm4qaJoHLXozFgCrnvrTMhIjZdBuxgTAWdq73VHc7z5q1xWXNNAeGUfpG0v4KB4Kdmux3+v2oy2u4hWDN2/lpFCx6hGS3S5yxLmwsYHcLQakixKoyE+hdJk39X84wOamfnAJJmqGjfr2wXliPcfawNpmpn2wm9t6Uci9kdFDZbGOI8o5VOSnUpE9kyjZxGu+4OmuI/e/jQQ9/SjV+SmUvjCJyv8+RL3TpSgu0WKZP5+yNx5lQ+B5ct/7mI06X15blUr18nsxlGv5eMigoYfiVh9eXZVK9S/mscSi5yd/brLfFAx0o36vgcr7IvjojVSqV6lQHG2goME+SrA2VfHSRxZiXnyU6jceZ0O8K+1nhnQQ+95r4EOXYLb/IpWyn6gI7TvvuDYAEqyfnUMaH82uX6RSnaMg+FMtO5qHTpGo608T8cLjVOQv4f2oi2zcVod2pI/fGPFe42gHxYSw4fVUqnNCCW7S8eYBR+cMnOWYxYfMrCVU5y/h/ciL5O761P5Zox9t8QFWHnVn5Y+XUP3Go7wyyxOp2/AGbBjKD/KmVc6vlzqmQ/vNtLsF8VpuCtVvPMpr935O7l8ca3cDbRS914F00UKq81Moe8abYA8/tuc/TrIvWI9W8dIeK2kr7TFtn29j43t1XDs2s9F+8hKzA32vXGNtSz8LQuXXfqacr9X7nzFziQpZ/41NUd3YdfElOTuVd2fbk2R1fiobFjrikvnzbxN66LAMLyN81e7YZJnktOaYlJR0W+r0lyvgZJc96TSpKToax4rvRuMtAaSBpL2UjnT3Lqp7QPrgXKLbDqPrAehCU6sk49tTaGy1p1pzayPW6HACByu3LmTFy46RpFc0iY9Y0Z0Y+YEb3Z4idLErWD7PPsKVBqWR/YwU9a5qeyKfqCLt24lMdwyAA+cvRPlJE8dtAL1U71IjfSabdIV9JOodlsjCkJFaApncC8Vpiz3pd56lRj6ZoMDJxBjNaC1Adw9a7uEBv9H7bfZ8FWkhkwBXAiJ9iTljocMKWI5R3OBC1rfmoZBJYIIXimhfopzKtlTpqZkRQmakFyBBOm0OWbEuFFUew4I7EaEe1B/vsn/BGrup8QvgZengl4N91BsbIgesXLwAuDhGCF4hxKiGB21DW66HBXMc8UqQTosgLaSHGqdF2Cvn4zKJqIe8oE9GWqoC2QQgSM5ir346TjvX683Kp5X4TAAmBJD8uC8cMXBkANA1sfGynFefCEbmAkjlPBYro7ipHeihptKMa2zElf6TzQghwcep6tZjbDklI+vZCHv9Uj9iorycG8dnXixps/yQugAyJQtm2Kjv/HzIMWlJCUT5uNqv0aKZLMPMAd0IX+jXjXcEvgEsX+g4VhZGRqIHNQ0d9uQjVZC2NIJgL0e7kb7EnDxD8wBXPhuZT8UQ4eUKLpNQRIcRMPwbR1/Hmmo3fvm9OVf3+UaQnqQgQCq5co0M7WZ7myYzR/q8WBBl/zzJVH7E9PVwxAhg5ON9ZmK+lUCMoy9kkSE8OWCm/poZUzOG0654X+lqK+fOgw+n2fF2KYm5JSStL0fd0efYb8NQ3sAnkdEkeA2va3Q3fF1G5cW9PlY+P3sTRYQvxddiGnYIdylS7MmuN2wh052nhILCiaaY1lOQGKZkbth6/vmplcQHdfyTcFZEeVP8Fx08Gs3xZh1x0Uqnwq5Ih830dJ05A1fTqYOZ1sZelPOnD7mDDVRGQ2krehJRAli70OxVs2t/NbqOLnpR0vU54HecRg1Epw6vdxTTvJhz4QQnTODafJag4JlIpVKiglo40mkj4fI56uU+BF2nCqnL8G+4S3zeA5jOcgAZafLRSjqmeGf5DTnX4CAZ1NsTuELhTcweI1orRLSYITCSB71q+LjNRsJsE82nZESFAPiy4DE/9vzhIClHvVm+KJzkWb7D2jNzogtqjtinspylR1/vfJy5Ix19aGHn5U4QFgwmCO4+j9VoJiVXP/SY2QCnOaaHOfGjdhCmzywYfH0JvW6bl7Doj7HvbwbUJ/to6QNmnwFGu8OR4e0JR0zma/aYrhvv2GRebmDqwwwEAFi70Va1UKwxU2+yYcKdBBNEDX42gkZZhwA430HBNgPaqQpmD5+a7dFTU9OCWtPLJz325HKlTS5hsQJSYMiUtokOI+zYXsqOIZW587MbOz2KawxsWPY4FT5gOljJD7Y1EPbzeIJ0VeR2BrB52U1kyms4X5fhn93RuCNzu8Spc1+gWeG2+Foly87mw+CjwhNu4Ak3f1TR/mzR6sCjke7oZPwV/sQfOowOTw4fUhL+7bG+VW9Rdxk5P/hPeh//IVk/LWC6pIKc75Rf3X8zj+e5+BA6VUdzVw9ueoh5wv5HGiR35XcdBgzSi45pzltgu7lQRuTrR4yXniNtNmQdVmLifVGYPclt6yDL43Mqp/qQ7uhmaWgs76zuob3hKEWlVRQeCGb7ikiuDtSkTLoHYhbHs2HBjX4Z3To3F5C6S2BqMKUrneMY1IR1+PrkcGPtpx9t8X5eaXZn+RNK3nrGn1N/3sP3byTAEe4Jrh/vDRqs19hA7m/a6VWFsPLZB3nVpZnctx1DuBv4bNT/Qw+xctLr29jRqiRjhj2xWpuqyPzgLGGx08n8XiDBXXXEbXcU8g0iwVdP8d8NxCzyxVB+guIp3mz3BZAimwgZT6eSGXZrp2YfCdr/2yf2fhL2nKDJaKRpn5kWo5nEXKcpiiNVxGnklGZ7siNX50jQ3rybn0DE9Rq5Y+fzhOv5+lw2m46Py7pQPWJPlt4zwvFsauT4BadjOhqpRckMx9NxgVFxSI91UtFQjSoiECRKVKGNtGpaafSYi+qWvo+9mRHuiU53fMiXSaeuFkJnIAd0e95D80gehZlJKOWew0ascgJnQav+Rt+p9OWB+yU0n2rh2EkZMx2DnODQyfTpP0fb3c+caQHXr2I0/pOI4TwnRn0o0N52TWf3kHNt77DAfTL8HefzYKiEZoOW+jZHfCE+RLSb0X5mwWP6vUO/1Cd4ERwdy2s/UrDgZBcHh7TthSLIlfr27i/tcX8Aa+dZaibKeMAHZA94EdFtovnCSEf6EDoV2rtHf2rSJ+AepKY+To2WNC3HKK6XsOI7i0hTyfGZ6DrKgc4BdtNilDD7/ms/oNePd2ztHRaQTyYI+xR75Uwl76SpUEydZJ8mHhQ4mcVYOKYfrSbAT87LSXPIeNSdreoGDANgn7o2Mml+ND9LUhLsM/whJW+iZrnzef0nJObu4TtHZGz43hzHiDOAiCCob7teo1e5DRkq+BIWLKGuY6Sy9jXF6vyrP1fWF7Pn4EMYWVf2XSdRXue6jM6I4XN3gu67iSLCl+KOTZZljtc+Bn++CKtBQ1FeDur7VpD9qGMhMCyZjFnVFP53LWYbYO2k+J0dWJc+RdzgTItiLommKsrqVTwUCuDJ9LAzNO5r5Pi/hV8zwTq6KXg75SPlkgyUBwvZcsg+TWbtKGbTTivJT8XhCXi4e0JnJ502wNpFxfZijl8p7U3cE9Ec/6CICsdzMV0HitjRNHrrQYH3UF/fxcEQH0IHN4bcS4K+i31d7oTef52psuvxCSE5qJ9t/6PBdBm4bKRmr4Eap0MU8XJiWtvY3NAD2LCerKPg4AAZCTOvjGYVoV6c0nVTP80Rn8ybCOtZ9nX2MyfI0XEDetRbq6jv7rfXc+ocJ1zcCBg2KxaQMJ3ktjY2VuntozqrmZajX/RduR721Xbb6+vRsbnMQswjM+2P/E+NIDPUQsH2BtqtNhjox9TaQvsFAF9iojyor9ZQaboEXMJUe4QPnXNnqJxlE81s/Us7lgHA0k5xudP0qZsEGZfoMJwDLmFpPcQHumsjrKnXYrDa4HIP9cVtqKfKWTIDQMa9U5wOvG68IzAZOdA68rVzdXOB0z0YLgPWbmr2dVE/WE42k7TIAQr+fIgWi70dQ20dNU5PsEbNCiLABWQPK8m6rGfLP3oAN6RucKrbbO+PnjaKDzhPJ7fwpwNurPzxEiryUynLjnd60tWdqMQA3P6hoeioo6ELBrRNzi8aD/IlwL+fDsPV9UNFvJx7/6FFfbIfuIRhv33UGnWd9fyxjH5druXmLqG+sxvLgA0uD8Zl4dRZNwJueRpAuF3u4mlYNTlJagCkXoGoluSx+blop1c5/EleswkK1pOZmud4dWQtm59TXV1fkyh5aJYGtXEFOY41lUBlNNW/V6P6yYqbiMWf8If9ycstJL5sBSq/ZNa+BYUbMkl5zfHqyNrNZKjsLQcuzSH9kzyyvlmENCiOjFcyeOxA6ZXavB/NYb1hLWt/kMR6myfKJTksf7KW0lFal94/magePdJop7VDl6nMluvYofdm2S3/IXqR8KIKw/tanl/dxkWpO8tSQ8h0vjv3jSR/uY2CP1aS+JHj1ZEXFpAe5vT0rcKHqO0tGBYPxhfAzMA6Nh7xID/VccFcvJk9o43N7+3lpT6QSt3JfHE+UcNnwicqeTn7GxRta+Cxv9SB1JUFkTN4eRbXecpxDD73EmHQ8O/qPtpxJW1BJPlXpnk9iHohgZdLDvHSL9oxISFCfi8rn1XARJDFxrHZWM3rb+8h1/HqRVZUL8WDdbuEkPE9Cxu3fUrKwQb76wVJchbvdDxYIlXy7JLTrCn5G3ElEhJUCp6bb6ZyyGDVnSWB5yj4dSmVffZXNH73vcFpVndCQzzQltWhnv04yb7Xj/caU9yw1h4kZWs/lgnuLHs6ngzHtQtODCerRcvzq0uQTfFieVowaTr9lZgi0uLZUHKIH68vxTRgj+uVsBEebnGRk/xEGx/+6TDaOQnEPB5CzNYmklY1ETzNl5cflROzbfBBGzkLVM18f3WJU3kJEbMUbEhXIpPPY8N36yj4sJy47SDz8GBJopJQrr3+oSEy1rR1kKVyPB3nG0n+Cwd5fete1vXZXzu5Omq9Fde7LtdSJIWy7B0dSataCJ6nYvvSEDCaOXKfD0/escOar49vXL58+f/GOwhBEO48Q9+5vUO0VvH8gcn87nsRV5OfRcO6Nw3Myra/PnLDrDo2/tpE8qvxKO7QZGQo28OWSY/wWuwXebBIuB3u0I+IIAjCtSynz9NuOUdHzyX7hss9tNQaOeJxDw/cbD6RhpIcfhZ1Q9/Yx46HgTb+emQyzz0sEuWd4C6ehhUE4W4je3gO75yq4/W39tB+GZggISokgNdfikRx0/PsEhRJ4cQ0nceKx61P039ZLFamJs2+Y0e9XzdiGlYQBEEQxiBGlnc5iT53vEMQBOE2sMnzxzuErzUxshQEQRCEMYjZcEEQBEEYg0iWgiAIgjAGkSwFQRAEYQwiWQqCIAjCGESyFARBEIQxiGQpCIIgCGMQyVIQBEEQxiCSpSAIgiCMQSRLQRAEQRiDSJaCIAiCMAaRLAVBEARhDCJZCoIgCMIYRLK8K3Sh/lES2bu7xjsQMNbxSu5e1MZxav9oJXG5lWjHpXEbhoP7WbaqhLhVe1F3j0sQgiB8Ce7OZNmtJjspiSTHT8ozmeT9vpYu23gFpKEwKYnCT77iZq1aNuYO+9JureLp3H1UWpwOq99P3LsaLEDL7lLifnmQlq841DuFqXwvcZvqMN1S6Tb2/OU8sS8sofoXi0mWalizuoQ1h8z23eOayAVB+CLu4n/PMpn1ZStQAVazjo8L1pL503Q2/yoZf8l4x/YVkfqi8Gmh5bN+8HMHoL35LAYucaTTRsIse0d0dJ4n4D4ZMkC2NIXqpeMY8780G9YBV4J8XO23oVNUvPYL1XgHJQjCbXAXJ8urpN5Kkn++jt4fZrLpb3GsX+xt39F7HHXBeooOdtIr8Ub1ZA55z6nwlICmIIW1E9ez67tK+7GaQlLyYG2pPQFjq+U/vlmKaudaEo8XkrTNn8IVUnb9agsVevB/JJt1P0scNTH3tqgp3FBEdUcveKtIy8kjQ+Vp32nrQrPnQz7YWY7GbEUqTyR7TQ6JAVfLm2u3sHaDGt0FKYGxjxFuHakVPx4IhOJuIyAHeujQS8iIlPDX5g6yZoUARk58ZiMm1l65qXwvKRpfSrPn4IMR9aYqOhbEE9NWx5qGfkwu7mS9MJ/0UA97EwNm6ksOsaahH8sEV5JV9zA8FGtHHQV/NKA+Y8PNw4OMtIdJD5sEA00UrG5GtiyFjBn2Y7UflbCSCCqeVjj6vZy4f/hQ9n0VsjNNFG1rZmu3DaTupC1SkhkfjPSa87Zhaqtj40d6intAMSOE/GUqAgbnUS60o96ppbD5EpYJrqQtiCBr4Uj1OM5/XiRBzfbjL0rdWZY6jwyV97BjmyjI1bEDYFMJ62YrqU6HglwdPJ9K1qyRro8Nk6aGN0uM1FjBx8+X116MIWrK1+VuThD+ddyd07AjkQSS+Nh0NP+roReALtSvZbPDczmbS8oo27mOuYfzyNyswQooVXH01jcyuArYqa3Faq2lscOxoeUwVQHhTPdy/N5WxNo/e5Lx21LKdubx0KebKDo0YgaDbjV5P96B53c2U1pWxq4353I4L5NCjeN4azet51RkFpRSVlZGweIu1heU4ZjMw6opJGttI3Pf+ICy0l2s+5YnHZ+N3FTQNA9a9GYsAFY99adlJEbKoN3smGo8S3u3O4r73UftuuKSBtoj4yh9YwkfxUPBbi0GAPrRFlfxisGbt3JSqFj1CMluFzniXNjYQO4WA9JFCVTkp1C6zJv6Pxxgc1M/uAQTNcNGffvgPLGeY21gbTPTPtjNbb0o5N7I6KGyWMcR5Rwq8lOpyJ5JlGziCAkOoIfNVe5k/DiV6lfDmHOyjQ81/fZdA92o32ug8r4IPnojlepVKhRHGyho6B/1/HdUtML8+ZTlp1Caeg/7dh4aYU02jKx8Jem487PsVKrTw0atb5D1aBUv7bGStnIJ1flL2D7fxsb36hx9KwjCneSOTZZJTmuOSUlJt6VOf7kCTnbZk06TmqKjcaz4bjTeEkAaSNpL6Uh376K6B6QPziW67TC6HoAuNLVKMr49hcZWe6o1tzZijQ4ncLBy60JWvOwYSXpFk/iIFd2JkR+40e0pQhe7guXz7KMTaVAa2c9IUe+qtifyiSrSvp3IdMfgJXD+QpSfNHHcBtBL9S410meySVfYR6LeYYksDBn5nGVyLxSnLfak33mWGvlkggInE2M0o7UA3T1ouYcH/Ebvt9nzVaSFTAJcCYj0JeaMhQ4rYDlGcYMLWd+ah0ImgQleKKJ9iXIq21Klp2ZGCJmRXoAE6bQ5ZMW6UFR5DAvuRIR6UH+8y57Mjd3U+AXwsrSHDvsGTnxmIzZEDli5eAFwcYy6vEKIUY0WtBcvvxCBzwRApmTBDPj0lCO76ZrYeFnOq08EI3MBpHIei5VR3NQ+Sl0QE6MiOWQSIEGmeojMoH7+qvmiT+8Y+XifmZhvJRDj4wq4IosM4ckBM/Xj9XCUIAij+lpMww7hLkWKPdn1hi1k+kSnfUHhRFNM6ylIDFMyN2w9//zUSuKDOv5JOCuivCn+iw4ejeZ4s464aKVTYVekw2bPus6cgavp1MFMa2MvyvnTh4yKApXRUNqKnkSUANYuNHvV7Npfja6ji16UdH0O+B2nUQPRqcPrHcU0L+ZcOMEJE7g2nyUoeCZSqZSooBb7uuXlc9TLfQi6ThVSl+H3VJf4vAcwneUAMtLko5V0TPHO8htyrsFBMqi3J3CFwpuYPUa0VohoMUNgJA961fBxm42E2SaaT8mICgHwZcFjfuz5w0FSjnqzfFE4ybN8R2lXgtuwkFt6+gAwdZ/HajSTkqsfesDs63TAEF74TIJ64xngOncYYzLRYYQd20vtU7dXuPOzL1CrIAhfjq9VsuxsPgw+KjzhmnW1a/mjivZni1YHHo10Ryfjr/An/tBhdHhy+JCS8G+PPAn4hXWXkfOD/6T38R+S9dMCpksqyPlO+dX9Ywd/lYsPoVN1NHf14KaHmCfsCSZI7srvOgwYpBcd05y3wHZzoYzI148YLz1H2mzIOqzExPuiMHuS29ZBlsfnVE71Id3RzdLQWN5Z3UN7w1GKSqsoPBDM9hWR+NxEc1J3CUwNpnTlzZW7pp4JX3RdUYpsImQ8nUrm2DO2giCMszt2Gva2s+n4uKwL1SP2ZOk9IxzPpkaOX3A6pqORWpTMmGr/NTAqDumxTioaqlFFBIJEiSq0kVZNK40ec1GNNrC5Lm9mhHui0x0fkmg6dbUQOgM5oNvzHppH8ijMTEIp9xw2YpUTOAta9Tf6TqUvD9wvoflUC8dOypjpGAUGh06mT/852u5+5kwLuH4Vo/GfRAznOTHqtKG97ZrO7iHn2t5hgftk+DvO58FQCc0GLfVtjvhCfIhoN6P9zILH9HuHJrUJXgRHx/LajxSiymTjAAAgAElEQVQsONnFwZucspQ94EVEt4nmC2MfOzI9xzphwbT7brUChwAigqC+TT/2oYIgjLs7NlmWlZUN+fkirAYNRXk5qO9bQfajjoXAsGQyZlVT+N+1mG2AtZPid3ZgXfoUcYMP7SjmkmiqoqxexUOhAJ5MDztD475Gjv9b+DUTrKObgrdTPlIuyUB5sJAtjvfvrB3FbNppJfmpODwBD3dP6Oyk0wZYu6jYXszxK6W9iXsimuMfFFHhWDbrOlDEjqbRWw8KvIf6+i4OhvgQOrgx5F4S9F3s63In9P5bHCX5hJAc1M+2/9FgugxcNlKz10CN0yGKeDkxrW1sbugBbFhP1lFwcICMhJlXRrOKUC9O6bqpn+aIT+ZNhPUs+zr7mRPk6LgBPeqtVdR399vrOXWOEy5uBHhxc6ZGkBlqoWB7A+1WGwz0Y2ptod2RPGVertcUqT/aRkvPJRjop32/loLL3qTNudmGgUnuKK784k5UYgBu/9BQdLTHvumCAW2T+D8ZCMKd6I5Nll+cmhzHw0FPZRfSqswb9o6lP8lrNpHeu4XM1CSSnvkZ/3xoLZszVVfX1yRKHpqlQTMxHKVjbTNQGU313ypQKaffRCz+hD/sz8e5hWgA/JJZ+1Y6ve9nkpKUxFOv/pOH1m5mhcrecuDSHNIlO8j6ZgpPrSyiNzmDx5xmfL0fzWH9EjNbfpBEUspTrG9eyPInPUdtXXr/ZKJ6LnFvoNPaoctUZsv7qTlzDwG3PB/pRcKLKp7s6+D51SUkvlFHsyqETOd1YN9I8pcHYN1fSWJuKSlbzUS9sIDMMKenbxU+RJ3sQxo8GF8AMwMtFDd5MDvQccFcvJk9w0bxe3uJyy3lsW09LHhxHlE3PRPuQdQLCbw8pYuXflFK3Op95P7NSK9j6CsN9CHhjJ43y68OWWd72/h4614SV+3lpaMyNvwwnohbmYH38yZRZub7g3c28nls+K4/pj3lxOWWkLRRywGz9YtPbQuCcNt94/Lly/833kEIwp3J/p5lpSqeDQtvac5dEIS7xF08shQEQRCE20MkS0EQBEEYg5iGFQRBEIQxfK3es/w6kuhzxzsE4RbY5PnjHYIgCE7EyFIQBEEQxiDWLAVBEARhDCJZCoIgCMIYRLIUBEEQhDGIZCkIgiAIYxDJUhAEQRDGIJKlIAiCIIxBJEtBEARBGINIloIgCIIwBpEsBUEQBGEMIlkKgiAIwhhEshQEQRCEMYhkKQiCIAhjEMnyrtCF+kdJZO/uGu9AwFjHK7l7URvHO5C7kY32sn3saP0y6m6iILeEgqO3XoP1SCXrDvbcvpAE4Q5ydybLbjXZSUkkOX5Snskk7/e1dNnGKyANhUlJFH7yFTdr1bIxdy/qbqdtrVU8nbuPSovTYfX7iXtXgwVo2V1K3C8P0vIVh3q7mA7tJ2n1firP3Ia6yvfySvmNZ31T+V7iNtVhAsCIelPJTZUfU4+WoqNeJMxw/H6miR3v7iEpt4S4VaW8skOLYcCx77KBmh17SVnl2FfchGlgtIpvRDs7flnC87vbr2wZ3j/SWXKmVh+h5Qu1Iwh3prszWQKQzPqyMsrKytj1X9nMPbGJzJ+qxzFhjgOpLwqfflo+67+yqb35LAb6ONJ5tSM6Os8TcJ8MGaBYmkL1z2NRjEO4t4PPvEWU/WIRCVO+eF2nTP1jH/QVMtUbuDgvjAAA+mmpMWCdG03pG6lUr44kpquFn6jbgXPU/KEO9RQl23+RSnXOg0R16sjdZ/gCrQeT/vNUti8NvrLlmv5xCSFh1lnUmjur3wThdvha/OPPUm8lyT9fR+8PM9n0tzjWL/a27+g9jrpgPUUHO+mVeKN6Moe851R4SkBTkMLaievZ9V2l/VhNISl5sLZ0BSoAWy3/8c1SVDvXkni8kKRt/hSukLLrV1uo0IP/I9ms+1ki/pKRY+ptUVO4oYjqjl7wVpGWk0eGytO+09aFZs+HfLCzHI3ZilSeSPaaHBIDrpY3125h7QY1ugtSAmMfI9w6Uit+PBAIxd1GQA700KGXkBEp4a/NHWTNCgGMnPjMRkysvXJT+V5SNL6UZs/BByPqTVV0LIgnpq2ONQ39mFzcyXphPumhHvYmBszUlxxiTUM/lgmuJKvuYXgo1o46Cv5oQH3GhpuHBxlpD5MeNgkGmihY3YxsWQoZjtGS9qMSVhJBxdOOdK0pJ+4fPpR9X4XsTBNF25rZ2m0DqTtpi5RkxgcjdW7saCVx2+Hd/AQiBs+nO5jSMBNv7jZSY4WoeSo2LA2xl7vQjnqnlsLmS1gmuLI4agZZyT4cfLuKdUaAKuL2Q8yieDbMB+3fG/mgxkxlH8i8vHh1WQIJfqNc5OGc+sqEhJjIUF5NDcPHxRH3Pg/end/Hb3abaZ7t1AcAGKk/CjHPejl+d0fxxMKrNzVSOTGztWw09gOTiHnxm8S4OOKSBZM2v5WCg92YkgLwuU6IVqOOordb2Nptw83LixXPziM5yAMcn4VKVTwbFoJ60wj9s9CX4NDJ1FS1Yo2MGHpdBOFf3F08shxGEkjiY9PR/K+GXgC6UL+WzQ7P5WwuKaNs5zrmHs4jc7MGK6BUxdFb38jgKmCnthartZbGDseGlsNUBYQzffC7q62ItX/2JOO3pZTtzOOhTzdRdGjEDAbdavJ+vAPP72ymtKyMXW/O5XBeJoUax/HWblrPqcgsKKWsrIyCxV2sLyjD7Chu1RSStbaRuW98QFnpLtZ9y5OOz0ZuKmiaBy16MxYAq5760zISI2XQbnZMF56lvdsdxf3uo3ZdcUkD7ZFxlL6xhI/ioWC3FvsYpR9tcRWvGLx5KyeFilWPkOx2kSPOhY0N5G4xIF2UQEV+CqXLvKn/wwE2N/WDSzBRM2zUtw/OE+s51gbWNjODk30tbb0o5N7I6KGyWMcR5Rwq8lOpyJ5JlGzijX0hH23irVP389rqVKpXBiA91Ij6lH1X+75P2eY6nY/eSKV6VTRLAqTIXHxJzk7l3dn2JFCdn8qGhb4wcJZjFh8ys5ZQnb+E9yMvkrvrUyzXb92hD+3OKjb2yfnd66lUv55AurV56GjPpGfDUR/yV6cOS5TAgInmszLCfEeq+xIWvYYPD10iI9Ix8nMZmsAvXhwAqcuY/aWuP03EC49Tkb+E96MusnFbHdprPsaj9A9AyL0k6M/SMbyIIPyLu2OTZZLTmmNSUtJtqdNfroCTXfak06Sm6GgcK74bjbcEkAaS9lI60t27qO4B6YNziW47jK4HoAtNrZKMb0+hsdWeas2tjVijwwkcrNy6kBUvO0aSXtEkPmJFd2LkB250e4rQxa5g+Tz7CFcalEb2M1LUu6rtiXyiirRvJzLdMQAOnL8Q5SdNHLcB9FK9S430mWzSFfaRqHdYIgtDRj5nmdwLxWmLPel3nqVGPpmgwMnEGM1oLUB3D1ru4QG/0ftt9nwVaSGTAFcCIn2JOWOhwwpYjlHc4ELWt+ahkElggheKaF+inMq2VOmpmRFCZqQXIEE6bQ5ZsS4UVR7DgjsRoR7UH++yJxxjNzV+Abws7aHDvoETn9mIDZEDVi5e4GoS8AohRnWdoJ1NkZP1RDAyF2BqCAm+l+gw2KcKe6024Bu4uQBSP6KiQ0ZPKFIFaUsjCPZyvdoXJ8/QfCNrdEYdW4968eoLEfhMACZ4ERXvx0WdwXHTAgx48NxSx/7hTL20e7rjfU29dbySu4ek/+pA+kQ8mWEj3fT0UNPQR8KsYGRjhJmWlECUj+P8Fs1kGWYO6G5i7cLFg6nSfj4f5T5REP5V3bHJ8kvjLkWKPdn1hoUzfaLTvqBwotHRegrwUjI3rJZ/fmqFHh3/JJzEqHB0Gh0Ax5t1xEUonQq7Ih02G9d1ZqSnTMy0NvaiVE4f8qUcqIyG5lb0gxusXWh2byFv5TKeWl6Ijg66Pgc4TqMGopWB19Q8omlezLlg4YTJvl4ZFOyHVConKsixbtl1jnr5ZIKuU4XUZfjH5BKf9wAnz3IAGTPlo5V0TPEG+g051+AgGTgSuEzhTUyHEa0VLC1mCAzhweB+jrTZ7KOpUzJmhwD4suAxP6x/P0jK25Woj97EgzMu4DZsk6HHPh6MmB9CVKeOlPX72VFrwDJW4rN2oy2vYs2mUlLe1lPDRQymMcoAnO6jZsDM91eVEJfr+Pkvw7AHqdwI8Bql/Gh857AhfwkVK0OgrJJXyruHHWDDUH6QN88HkBl7s5XL8PaEdpN57EOvcEcqdXw+BOEu8rVYsxzU2XwYfFR4wjXratfyRxXtzxatDjwa6Y5Oxl/hT/yhw+jw5PAhJeHf/pJWZbrLyPnBf9L7+A/J+mkB0yUV5Hyn/Or+m7lrd/EhdKqO5q4e3PQQ84R9uixI7srvOgwYpBcd05y3wHZzoYzI148YLz1H2mzIOqzExPuiMHuS29ZBlsfnVE71Id3RzdLQWN5Z3UN7w1GKSqsoPBDM9hWR112DG5Ofip/lzORFnZY/7TtEyn5ffvPjeCJGurTGBnJ/006vKoSVzz7Iqy7N5L59g0nbTUKAizevvWFfS729XJFOjSArxUTin1poWeh3ZS3TerSKn5TDyyvnEDx4z3O0krjtjgQ4W0l1etj1q//63VILwjW+Pn8GNh0fl3WhesSeLL1nhOPZ1MjxC07HdDRSi5IZU+2/BkbFIT3WSUVDNaqIQJAoUYU20qpppdFjLqoR14/G4s2McE90uuNDEk2nrhZCZyAHdHveQ/NIHoWZSSjlnsNGrHICZ0Gr/kbfqfTlgfslNJ9q4djJq6PA4NDJ9Ok/R9vdz5xpAdevYjT+k4jhPCdGzRf2tms6u4eca3uHBe6T4e84nwdDJTQbtNS3OeIL8SGi3Yz2Mwse0+8dmgwneBEcHctrP1Kw4GQXB2/Hmxku7gTMmkPW/xdJpouRA6O8N9NSpadyppJ30lQopk5CejN/PYE+xGDhmP4WH8d2Gf4QkQ0uD6vLTcK9F2xcHPy9u47cHT3EpM8n2fkhpFkJVOen2n+ulyit3bQYJcy+/2Y+6Gc5ZbqHB27pb0MQ7lx3bLIsc7z2MfjzRVgNGoryclDft4LsRx2rPmHJZMyqpvC/azHbAGsnxe/swLr0KeIGZ6sUc0k0VVFWr+KhUABPpoedoXFfI8f/zWm9ckxT8HbKR8olGSgPFrLlkP3u3tpRzKadVpKfisMT8HD3hM5OOm2AtYuK7cUcv1Lam7gnojn+QREVjhm3rgNF7GgavfWgwHuor+/iYIgPoYMbQ+4lQd/Fvi53Qu+/wac5h/MJITmon23/o8F0GbhspGavgRqnQxTxcmJa29jc0APYsJ6so+DgABkJM6+MZhWhXpzSdVM/zRGfzJsI61n2dfYzJ8jRcQN61FurqO/ut9dz6hwnXG5h2nKIPuqLy1G3OuYMLT2csrgy1fERcXOXUN/ZjWXAnphc3VzgdA+Gy4C1m5p9XdQ71SbzcnX+jXudX1+RhvJkvIQtf6xB23MJuIT1VAva7htMnj6ehJrO0T44TdynY92vK67GbtWj3muE2X72PuzWsO49PSycR9YsjxvukZp6LQarDS73UF/chnqqnCUzRj52eP8AYDnPqSke166tCsK/uLt4GlZNTpIaAKlXIKoleWx+LtrpVQ5/ktdsgoL1ZKbmOV4dWcvm51RX19ckSh6apUFtXEGOY20zUBlN9e/VqH6y4iZi8Sf8YX/ycguJL1uByi+ZtW9B4YZMUl5zvDqydjMZKnvLgUtzSP8kj6xvFiENiiPjlQweO1B6pTbvR3NYb1jL2h8ksd7miXJJDsufrKV0lNal908mqkePNNpp7dBlKrPlOnbovVl2y/OYXiS8qMLwvpbnV7dxUerOstQQMjv0Vw/xjSR/uY2CP1aS+JHj1ZEXFpDu/CCKwoeo7S0YFg/GF8DMwDo2HvEgP9VxwVy8mT2jjc3v7eWlPpBK3cl8cT5RX2gm3J3gGe7sKalk4xkb1gmupD0RTZpjZkGRFMqyd3QkrWoheJ6K7YvDyWrR8vzqEmRTvFieFkya7uq5SgN9SDjTzpvlQWxY6EtoiAfasjrUsx8n2VdCcNJ8fis9xJtv7UF7GYKneZOZIgdu5GZFzuwZOrRtEDUD8FCy4pl+thRXknjGhtVFQkxkGL9dGoYUI/v+2Ia6D9h/kLj9TtX4yh2vBY3cH0sCz1Hw61Iq+yAiVM7vvjf6NPc1/bM0BDrP0hwi5xbnKgThjvWNy5cv/994ByEIwtisDeX8e1sw29NGefR53PVTv20f2tir780Kwt3ijp2GFQRhKKkqmMXNbdRcGPvYcdGjo9gi50mRKIW7kEiWgvCvwiWE9DR/pL2XxjuSEVnPuZCc8uCtPVktCHc4MQ0rCIIgCGO4ix/wEQAk+tzxDkH4mrLJ88c7BEG4bcTIUhAEQRDGINYsBUEQBGEMIlkKgiAIwhhEshQEQRCEMYhkKQiCIAhjEMlSEARBEMYgkqUgCIIgjEEkS0EQBEEYg0iWgiAIgjAGkSwFQRAEYQwiWQqCIAjCGESyFARBEIQxiGR5V+hC/aMksnd3jXcgYKzjldy9qI3jHcjdyEZ72T52tH4ZdTdRkFtCwdFbr8F6pJJ1B3tuX0iCcAe5O5Nlt5rspCSSHD8pz2SS9/taumzjFZCGwqQkCj/5ipu1atmYuxd1t9O21iqezt1HpcXpsPr9xL2rwQK07C4l7pcHafmKQ71dTIf2k7R6P5VnbkNd5Xt5pfzGs76pfC9xm+owAWBEvankpsqPqUdL0VEvEpz/ceUzTRQVlpKUW0Li63vYWN6O9fa16KSdHb8s4fnd7Ve2DO8f6Sw5U6uP0DLwpQQgCOPqLv4nupJZX7YCFWA16/i4YC2ZP01n86+S8ZeMd2xfEakvCp8WWj7rBz93ANqbz2LgEkc6bSTMsndER+d5Au6TIQNkS1OoXjqOMX9BPvMWUTbv9tR1ytQPPrenrtvBVG/g4rxYAgY3WFvY/J/NmBMiKf1/cqR97ahr+4eVsmE4WMXG/z1PwnceJ9n3VlsPJv3nwaQ7bbmmf1xCSJjVyJ80/bwc6X6rDQnCHekuTpZXSb2VJP98Hb0/zGTT3+JYv9jbvqP3OOqC9RQd7KRX4o3qyRzynlPhKQFNQQprJ65n13eV9mM1haTkwdpSewLGVst/fLMU1c61JB4vJGmbP4UrpOz61RYq9OD/SDbrfpY4amLubVFTuKGI6o5e8FaRlpNHhsrTvtPWhWbPh3ywsxyN2YpUnkj2mhwSA66WN9duYe0GNboLUgJjHyN8xOGEHw8EQnG3EZADPXToJWRESvhrcwdZs0IAIyc+sxETa6/cVL6XFI0vpdlz8MGIelMVHQviiWmrY01DPyYXd7JemE96qIe9iQEz9SWHWNPQj2WCK8mqe64Z2Vg76ij4owH1GRtuHh5kpD1MetgkGGiiYHUzsmUpZDhGS9qPSlhJBBVPKxz9Xk7cP3wo+74K2ZkmirY1s7XbBlJ30hYpyYwPRurc2NFK4rbDu/kJRAyeT3cwpWEm3txtpMYKUfNUbFgaYi93oR31Ti2FzZewTHBlcdQMspJ9OPh2FeuMAFXE7YeYRfFsmA/avzfyQY2Zyj6QeXnx6rIEEvxu8O7Lqa9MSIiJDOXV1DB8XBxx7/Pg3fl9/Ga3mebZTn0AgJH6oxDzrNeVLaaqVnZMC+HjeLn9XGTBJC8c1vdHq/gTPsy2nr+hEK1GHUVvt7C124ablxcrnp1HcpAHOD4Llap4NiwE9aYR+mehL8Ghk6mpasUaGTH0ugjCv7i7cxp2JJJAEh+bjuZ/NfQC0IX6tWx2eC5nc0kZZTvXMfdwHpmbNVgBpSqO3vpGBlcBO7W1WK21NHY4NrQcpiognOmD311tRaz9sycZvy2lbGceD326iaJDo0yIdavJ+/EOPL+zmdKyMna9OZfDeZkUahzHW7tpPacis6CUsrIyChZ3sb6gDLOjuFVTSNbaRua+8QFlpbtY9y1POj4buamgaR606M1YAKx66k/LSIyUQbvZMV14lvZudxT3jz4SKC5poD0yjtI3lvBRPBTs1mIAoB9tcRWvGLx5KyeFilWPkOx2kSPOhY0N5G4xIF2UQEV+CqXLvKn/wwE2N/WDSzBRM2zUtw/OE+s51gbWNjODk30tbb0o5N7I6KGyWMcR5Rwq8lOpyJ5JlGzijX0hH23irVP389rqVKpXBiA91Ij6lH1X+75P2eY6nY/eSKV6VTRLAqTIXHxJzk7l3dn2JFCdn8qGhb4wcJZjFh8ys5ZQnb+E9yMvkrvrUyzXb92hD+3OKjb2yfnd66lUv55AurWZ3H2Gq4eY9Gw46kP+6tRhiRIYMNF8VkbYlZFhD9qWfhaEykfvA2MDr9dMJiN2ApYLNxQk6vrTRLzwOBX5S3g/6iIbt9WhveZjPEr/AITcS4L+LB3DiwjCv7g7NlkmOa05JiUl3ZY6/eUKONllTzpNaoqOxrHiu9F4SwBpIGkvpSPdvYvqHpA+OJfotsPoegC60NQqyfj2FBpb7anW3NqINTqcwMHKrQtZ8bJjJOkVTeIjVnQnRn7gRrenCF3sCpbPs49wpUFpZD8jRb2r2p7IJ6pI+3Yi0x0D4MD5C1F+0sRxG0Av1bvUSJ/JJl1hH4l6hyWyMGTkc5bJvVCcttiTfudZauSTCQqcTIzRjNYCdPeg5R4e8Bu932bPV5EWMglwJSDSl5gzFjqsgOUYxQ0uZH1rHgqZBCZ4oYj2JcqpbEuVnpoZIWRGegESpNPmkBXrQlHlMSy4ExHqQf3xLnvCMXZT4xfAy9IeOuwbOPGZjdgQOWDl4gXAxTGK8wohRnWdoJ1NkZP1RDAyF2BqCAm+l+gw2Kcre6024Bu4uQBSP6KiQ0ZPPlIFaUsjCPZyvdoXJ8/QfCNrdEYdW4968eoLEfhMACZ4ERXvx0WdwXHTAgx48NxSx/7hTL20e7rjfWWDlXPnwYfT7Hi7lMTcEpLWl6Pu6HPU1Y36jyYee1qF7AbCG5SWlECUj+P8Fs1kGWYO6G5isd/Fg6nSfj7/chZOBWHc3LHJ8kvjLkWKPdn1hoUzfaLTvqBwotHRegrwUjI3rJZ/fmqFHh3/JJzEqHB0Gh0Ax5t1xEUonQq7Ih02G9d1ZqSnTMy0NvaiVE4f8qUcqIyG5lb0gxusXWh2byFv5TKeWl6Ijg66Pgc4TqMGopWB19Q8omlezLlg4YTJvl4ZFOyHVConKqiPI5026DpHvXwyQdepQuoy/GNyic97gJNnOYCMmfLRSjqmeAP9hpxrcJAMHAlcpvAmpsOI1gqWFjMEhvBgcD9H2mz20dQpGbNDAHxZ8Jgf1r8fJOXtStRHb+LBGRdwG7bJ0GMfD0bMDyGqU0fK+v3sqDVgGSvxWbvRllexZlMpKW/rqeEiBtMYZQBO91EzYOb7q0qIy3X8/Jdh2INUbgR4jVJ+FMU1BkIdI8HtjwywbVsDLQN9aHfW0vJwDAn/fzv3HxPlfQdw/L27eTA5htxBPRgHV4ST44enBbrBsVHWZjInmAnJRmxlXVpiJv3DLBntZdosNm5NNaYVmk66VUys2ZIrCdBIiQVJRGb1hsSTcyC/7iLcDUER3OjBuf1xB54WygFbpfB9JSQ8zz083+/z3F0+z/fz+X5Z4PkeFoxCDn3DI/MfOiMQmcz7+RCEFWRV1Cyn2TqvgFKPHPyYMahCn66i0mKFoA6c6Xmo4lVkXbyCFTlXLupIfOH/VJVx1lO2513Gf/wrSn9TzgZpE2W/bHzw+kKe2iVKtBFWOh2jBNghY5snXRajXsMH/QMMyD73pjkXwb2wrswqfD0ZIXau9rgJ7neRkRVO/IgcY08/pUG3aI5QUuS9zTJtJu8cGKWv7RpVNeepOKfh1N4tS5uDs17Pq2Ub2W218FHDRfLPhnPs11kkz/bWDrVhPNbHuD6WV36+idcknRjf9jNoB0iJlCh4/Q1PLfV/xTMS9PyuzIwiu66X651Wmq9O0nq1AZPJ5+Cj1TQ/l8Xh9R0YTnkDYIqOlqKEL29k9T1SC8IXrJ5g6bbySb0D/QueYElcIvLyDrr/nYdqenTZ38EldBRHeDajUw3I3rPRJGtBn7YXpAr02g+50a6iI+hpti5qZqGCuEQ5FdZuXDtUMyMum/USaItRA9a692n//n7qS9I9L/ou/UBNdBI02h3wlMqP9sJ5MkpK3WAXspvBZHpHgRrtOu59eguLfIK05MgvP8VcVN8mAwe9Q5A8673wtN1qc+IifOZa+/rH4Ak1Ku/1bNK28ccBCwE9waQWAeuUJDeOYAkdI2hDzMPB8JshaNIzeT3Zwh8O2rkwxBJmeHpJAolMSqNUF4byrTbOdUFy0hcP6zpvp3mjjpYCb3BZyKqQaCUZdPMPu5tk9SKmY0ukgG86NJwEjRRTvx2SHhnah6Zx+FCaz47rlBt7idk3PRs2m5ZDfrTpctI1JCUlKhz/L/YOg8NryVzqeyIIy8yyfWasr69/6GcpXAPtVO0vo/aJvex71lv1ScijOKmFij9dYsQNuGyY3jmNa0chhunUVfzT5Ayfp96sZ7MWQM6GhNt0NHTQ/ZRPvXJeoSh84pFuezG6CxVUXvQ83bv6TRz9i4u8QgNyIChQDjYbNjfgctB0ykT3zF8rMGxLp/vDKpq8QdRxrorT1+duPSZ6LWazgwuxSrTTO2PDyLY7aHAEoo1a5FoaZSx5MROc/Lid4SlgaojWMwO0+hwSn6Um40YPx9tGATeum5cpv3Cf4uyNM6PZeG0Ig1Yn5u94+xesINl1hwbbBGkx3ht3307tifOYnROe8wzepVey8LTlw+5hNjVSe8ObMxwbZXBsDRHej0hAoBSzzcnYfTdMuVkTIIF/jjIwBbictDY4MPucLThkje8WYaE+mzItO7OkVP61FcvoJDCJa7ALi9PPeqBSjnb4Ln0+aeL4LDVhf7NQe90En/AAAAKdSURBVHMCmGTgbC+mUAWpfpZyZ9NqtjDgcsPUKGZTD7URarbHzX7so/cHgLF/MRga5FNbFYSVYdkGy6Wrpcw7OahwXwU3dPsfWWOpIu93Rykar6Tkp7nk/uxVPtt8kOMl+gf1NamOzUnttH8rEZ139BmtS6fl0yb0ug0L6IuKxO+p+MRYQTvA+jwOHili/M8l5OfmUvjaZ2w+eJy9ek/L0TvKKJKepvQn+RS+UsV4XjFbfdKCimfLeHP7CJV7csnNL+TNzh/y8k75nK3LotaROjpJmG/tUBJBinqC1ttriVx0HjOE7N16dt7rZ9eBanLeuEynPpYS3zpw+BYOvRyJ62wzOcYa8k+MkPr8M5Qk+My+jVeSevMeMs10/yLZGD2G6XoQKdHeN0yiICXOjen9MxiMNWw9Ocozu79L6pIy4YFo4gL5e3UzOcZqDEfssC2dAm9mIT5Xyy+cXeT+toZdH/ejyUmkVOJk14Fq8t++xq0MDQU+3yBZtJLs23Z+3zgEBKKNDcJy9rL3vxlJ0eT+gPe2uDh2pA6DsY4XPxpg2DXpZ1/VpMSNY+nx2RW+hUPPh9B64gwGYx17rgVz+KU0FpknAALZHn2X8rdqMBxo5PjnkXzw0txp7kfvDwC2O3TGKpbQB0FYnr4xNTX1n8fdCUEQ5udqa+TFHg2nCuaY+vzYTWA+2YAl88G6WUFYKVbwyFIQVhaZXsOPOnto9XPN5Fdu1IppTM1OESiFFUgES0H4upDEUlSgQjbub+r2q+W6KyEvf9PiZlYLwjIn0rCCIAiCMI/Vs3RklZLajY+7C8Iq5Vb7sz5FEL4exMhSEARBEOYhapaCIAiCMA8RLAVBEARhHiJYCoIgCMI8RLAUBEEQhHmIYCkIgiAI8/gvfkHfk9Og+A4AAAAASUVORK5CYII=;sketch=0;" vertex="1" parent="JfqZfDmFp8OTxattPUuS-59">
            <mxGeometry x="434.6973995271869" y="103.46231155778901" width="588.071958831286" height="325.4216912950957" as="geometry" />
          </mxCell>
        </UserObject>
        <UserObject label="" tags="" id="JfqZfDmFp8OTxattPUuS-27">
          <mxCell style="ellipse;whiteSpace=wrap;html=1;shadow=1;sketch=0;fontSize=30;fontColor=#3333FF;strokeColor=default;strokeWidth=2;fillColor=none;" vertex="1" parent="JfqZfDmFp8OTxattPUuS-59">
            <mxGeometry x="400.8085106382978" y="336.7587939698492" width="498.95981087470454" height="128.52261306532662" as="geometry" />
          </mxCell>
        </UserObject>
      </root>
    </mxGraphModel>
  </diagram>
</mxfile>
